<?xml version="1.0"?>
<VTKFile type="UnstructuredGrid" version="0.1" byte_order="BigEndian">
  <UnstructuredGrid>
    <Piece NumberOfPoints="732"  NumberOfCells="1097">
      <PointData>
        <DataArray type="Int32" Name="NodeNumber" NumberOfComponents="1" format="ascii">
1 2 3 4 5 6 7 8 9 10 11 12 13 14 15 16 17 18 19 20 21 22 23 24 25 26 27 28 29 30 31 32 33 34 35 36 37 38 39 40 41 42 43 44 45 46 47 48 49 50 51 52 53 54 55 56 57 58 59 60 61 62 63 64 65 66 67 68 69 70 71 72 73 74 75 76 77 78 79 80 81 82 83 84 85 86 87 88 89 90 91 92 93 94 95 96 97 98 99 100 101 102 103 104 105 106 107 108 109 110 111 112 113 114 115 116 117 118 119 120 121 122 123 124 125 126 127 128 129 130 131 132 133 134 135 136 137 138 139 140 141 142 143 144 145 146 147 148 149 150 151 152 153 154 155 156 157 158 159 160 161 162 163 164 165 166 167 168 169 170 171 172 173 174 175 176 177 178 179 180 181 182 183 184 185 186 187 188 189 190 191 192 193 194 195 196 197 198 199 200 201 202 203 204 205 206 207 208 209 210 211 212 213 214 215 216 217 218 219 220 221 222 223 224 225 226 227 228 229 230 231 232 233 234 235 236 237 238 239 240 241 242 243 244 245 246 247 248 249 250 251 252 253 254 255 256 257 258 259 260 261 262 263 264 265 266 267 268 269 270 271 272 273 274 275 276 277 278 279 280 281 282 283 284 285 286 287 288 289 290 291 292 293 294 295 296 297 298 299 300 301 302 303 304 305 306 307 308 309 310 311 312 313 314 315 316 317 318 319 320 321 322 323 324 325 326 327 328 329 330 331 332 333 334 335 336 337 338 339 340 341 342 343 344 345 346 347 348 349 350 351 352 353 354 355 356 357 358 359 360 361 362 363 364 365 366 367 368 369 370 371 372 373 374 375 376 377 378 379 380 381 382 383 384 385 386 387 388 389 390 391 392 393 394 395 396 397 398 399 400 401 402 403 404 405 406 407 408 409 410 411 412 413 414 415 416 417 418 419 420 421 422 423 424 425 426 427 428 429 430 431 432 433 434 435 436 437 438 439 440 441 442 443 444 445 446 447 448 449 450 451 452 453 454 455 456 457 458 459 460 461 462 463 464 465 466 467 468 469 470 471 472 473 474 475 476 477 478 479 480 481 482 483 484 485 486 487 488 489 490 491 492 493 494 495 496 497 498 499 500 501 502 503 504 505 506 507 508 509 510 511 512 513 514 515 516 517 518 519 520 521 522 523 524 525 526 527 528 529 530 531 532 533 534 535 536 537 538 539 540 541 542 543 544 545 546 547 548 549 550 551 552 553 554 555 556 557 558 559 560 561 562 563 564 565 566 567 568 569 570 571 572 573 574 575 576 577 578 579 580 581 582 583 584 585 586 587 588 589 590 591 592 593 594 595 596 597 598 599 600 601 602 603 604 605 606 607 608 609 610 611 612 613 614 615 616 617 618 619 620 621 622 623 624 625 626 627 628 629 630 631 632 633 634 635 636 637 638 639 640 641 642 643 644 645 646 647 648 649 650 651 652 653 654 655 656 657 658 659 660 661 662 663 664 665 666 667 668 669 670 671 672 673 674 675 676 677 678 679 680 681 682 683 684 685 686 687 688 689 690 691 692 693 694 695 696 697 698 699 700 701 702 703 704 705 706 707 708 709 710 711 712 713 714 715 716 717 718 719 720 721 722 723 724 725 726 727 728 729 730 731 732 
        </DataArray>
      </PointData>
      <CellData>
        <DataArray type="Int32" Name="ElementNumber" NumberOfComponents="1" format="ascii">
1 2 3 4 5 6 7 8 9 10 11 12 13 14 15 16 17 18 19 20 21 22 23 24 25 26 27 28 29 30 31 32 33 34 35 36 37 38 39 40 41 42 43 44 45 46 47 48 49 50 51 52 53 54 55 56 57 58 59 60 61 62 63 64 65 66 67 68 69 70 71 72 73 74 75 76 77 78 79 80 81 82 83 84 85 86 87 88 89 90 91 92 93 94 95 96 97 98 99 100 101 102 103 104 105 106 107 108 109 110 111 112 113 114 115 116 117 118 119 120 121 122 123 124 125 126 127 128 129 130 131 132 133 134 135 136 137 138 139 140 141 142 143 144 145 146 147 148 149 150 151 152 153 154 155 156 157 158 159 160 161 162 163 164 165 166 167 168 169 170 171 172 173 174 175 176 177 178 179 180 181 182 183 184 185 186 187 188 189 190 191 192 193 194 195 196 197 198 199 200 201 202 203 204 205 206 207 208 209 210 211 212 213 214 215 216 217 218 219 220 221 222 223 224 225 226 227 228 229 230 231 232 233 234 235 236 237 238 239 240 241 242 243 244 245 246 247 248 249 250 251 252 253 254 255 256 257 258 259 260 261 262 263 264 265 266 267 268 269 270 271 272 273 274 275 276 277 278 279 280 281 282 283 284 285 286 287 288 289 290 291 292 293 294 295 296 297 298 299 300 301 302 303 304 305 306 307 308 309 310 311 312 313 314 315 316 317 318 319 320 321 322 323 324 325 326 327 328 329 330 331 332 333 334 335 336 337 338 339 340 341 342 343 344 345 346 347 348 349 350 351 352 353 354 355 356 357 358 359 360 361 362 363 364 365 366 367 368 369 370 371 372 373 374 375 376 377 378 379 380 381 382 383 384 385 386 387 388 389 390 391 392 393 394 395 396 397 398 399 400 401 402 403 404 405 406 407 408 409 410 411 412 413 414 415 416 417 418 419 420 421 422 423 424 425 426 427 428 429 430 431 432 433 434 435 436 437 438 439 440 441 442 443 444 445 446 447 448 449 450 451 452 453 454 455 456 457 458 459 460 461 462 463 464 465 466 467 468 469 470 471 472 473 474 475 476 477 478 479 480 481 482 483 484 485 486 487 488 489 490 491 492 493 494 495 496 497 498 499 500 501 502 503 504 505 506 507 508 509 510 511 512 513 514 515 516 517 518 519 520 521 522 523 524 525 526 527 528 529 530 531 532 533 534 535 536 537 538 539 540 541 542 543 544 545 546 547 548 549 550 551 552 553 554 555 556 557 558 559 560 561 562 563 564 565 566 567 568 569 570 571 572 573 574 575 576 577 578 579 580 581 582 583 584 585 586 587 588 589 590 591 592 593 594 595 596 597 598 599 600 601 602 603 604 605 606 607 608 609 610 611 612 613 614 615 616 617 618 619 620 621 622 623 624 625 626 627 628 629 630 631 632 633 634 635 636 637 638 639 640 641 642 643 644 645 646 647 648 649 650 651 652 653 654 655 656 657 658 659 660 661 662 663 664 665 666 667 668 669 670 671 672 673 674 675 676 677 678 679 680 681 682 683 684 685 686 687 688 689 690 691 692 693 694 695 696 697 698 699 700 701 702 703 704 705 706 707 708 709 710 711 712 713 714 715 716 717 718 719 720 721 722 723 724 725 726 727 728 729 730 731 732 733 734 735 736 737 738 739 740 741 742 743 744 745 746 747 748 749 750 751 752 753 754 755 756 757 758 759 760 761 762 763 764 765 766 767 768 769 770 771 772 773 774 775 776 777 778 779 780 781 782 783 784 785 786 787 788 789 790 791 792 793 794 795 796 797 798 799 800 801 802 803 804 805 806 807 808 809 810 811 812 813 814 815 816 817 818 819 820 821 822 823 824 825 826 827 828 829 830 831 832 833 834 835 836 837 838 839 840 841 842 843 844 845 846 847 848 849 850 851 852 853 854 855 856 857 858 859 860 861 862 863 864 865 866 867 868 869 870 871 872 873 874 875 876 877 878 879 880 881 882 883 884 885 886 887 888 889 890 891 892 893 894 895 896 897 898 899 900 901 902 903 904 905 906 907 908 909 910 911 912 913 914 915 916 917 918 919 920 921 922 923 924 925 926 927 928 929 930 931 932 933 934 935 936 937 938 939 940 941 942 943 944 945 946 947 948 949 950 951 952 953 954 955 956 957 958 959 960 961 962 963 964 965 966 967 968 969 970 971 972 973 974 975 976 977 978 979 980 981 982 983 984 985 986 987 988 989 990 991 992 993 994 995 996 997 998 999 1000 1001 1002 1003 1004 1005 1006 1007 1008 1009 1010 1011 1012 1013 1014 1015 1016 1017 1018 1019 1020 1021 1022 1023 1024 1025 1026 1027 1028 1029 1030 1031 1032 1033 1034 1035 1036 1037 1038 1039 1040 1041 1042 1043 1044 1045 1046 1047 1048 1049 1050 1051 1052 1053 1054 1055 1056 1057 1058 1059 1060 1061 1062 1063 1064 1065 1066 1067 1068 1069 1070 1071 1072 1073 1074 1075 1076 1077 1078 1079 1080 1081 1082 1083 1084 1085 1086 1087 1088 1089 1090 1091 1092 1093 1094 1095 1096 1097 
        </DataArray>
        <DataArray type="Int32" Name="GeometryIds" NumberOfComponents="1" format="ascii">
1 1 1 1 1 1 1 1 1 1 1 1 1 1 1 1 1 1 1 1 1 1 1 1 1 1 1 1 1 1 1 1 1 1 1 1 1 1 1 1 1 1 1 1 1 1 1 1 1 1 1 1 1 1 1 1 1 1 1 1 1 1 1 1 1 1 1 1 1 1 1 1 1 1 1 1 1 1 1 1 1 1 1 1 1 1 1 1 1 1 1 1 1 1 1 1 1 1 1 1 1 1 1 1 1 1 1 1 1 1 1 1 1 1 1 1 1 1 1 1 1 1 1 1 1 1 1 1 1 1 1 1 1 1 1 1 1 1 1 1 1 1 1 1 1 1 1 1 1 1 1 1 1 1 1 1 1 1 1 1 1 1 1 1 1 1 1 1 1 1 1 1 1 1 1 1 1 1 1 1 1 1 1 1 1 1 1 1 1 1 1 1 1 1 1 1 1 1 1 1 1 1 1 1 1 1 1 1 1 1 1 1 1 1 1 1 1 1 1 1 1 1 1 1 1 1 1 1 1 1 1 1 1 1 1 1 1 1 1 1 1 1 1 1 1 1 1 1 1 1 1 1 1 1 1 1 1 1 1 1 1 1 1 1 1 1 1 1 1 1 1 1 1 1 1 1 1 1 1 1 1 1 1 1 1 1 1 1 1 1 1 1 1 1 1 1 1 1 1 1 1 1 1 1 1 1 1 1 1 1 1 1 1 1 1 1 1 1 1 1 1 1 1 1 1 1 1 1 1 1 1 1 1 1 1 1 1 1 1 1 1 1 1 1 1 1 1 1 1 1 1 1 1 1 1 1 1 1 1 1 1 1 1 1 1 103 103 103 103 103 103 103 103 103 103 103 103 103 103 103 103 103 103 103 103 103 103 103 103 103 103 103 103 103 103 103 103 103 103 103 103 103 103 103 103 103 103 103 103 103 103 103 103 103 103 103 103 103 103 103 103 103 103 103 103 103 103 103 103 103 103 103 103 103 103 103 103 103 103 103 103 103 103 103 103 103 103 103 103 103 103 103 103 103 103 103 103 103 103 103 103 103 103 103 103 103 103 103 103 103 103 103 103 103 103 103 103 103 103 103 103 103 103 103 103 103 103 103 103 103 103 103 103 103 103 103 103 103 103 103 103 103 103 103 103 103 103 103 103 103 103 103 103 103 103 103 103 103 103 103 103 103 103 103 103 103 103 103 103 103 103 103 103 103 103 103 103 103 103 103 103 103 103 103 103 103 103 103 103 103 103 103 103 103 103 103 103 103 103 103 103 103 103 103 103 103 103 103 103 103 103 103 103 103 103 103 103 103 103 103 103 103 103 103 103 103 103 103 103 103 103 103 103 103 103 103 103 103 103 103 103 103 103 103 103 103 103 103 103 103 103 103 103 103 103 103 103 103 103 103 103 103 103 103 103 103 103 103 103 103 103 103 103 103 103 103 103 103 103 103 103 103 103 103 103 103 103 103 103 103 103 103 103 103 103 103 103 103 103 103 103 103 103 103 103 103 103 103 103 103 103 103 103 103 103 103 103 103 103 103 103 103 103 103 103 103 103 103 103 103 103 103 103 103 103 103 103 103 103 103 103 103 103 103 103 103 103 103 103 103 103 103 103 103 103 103 103 103 103 103 103 103 103 103 103 103 103 103 103 103 104 104 104 104 104 104 104 104 104 104 104 104 104 104 104 104 104 104 104 104 104 104 104 104 104 104 104 104 104 104 104 104 104 104 104 104 104 104 104 104 104 104 104 104 104 104 104 104 104 104 104 104 104 104 104 104 104 104 104 104 104 104 104 104 104 104 104 104 104 104 104 104 104 104 104 104 104 104 104 104 104 104 104 104 104 104 104 104 104 104 104 104 104 104 104 104 104 104 104 104 104 104 104 104 104 104 104 104 104 104 104 104 104 104 104 104 104 104 104 104 104 104 104 104 104 104 104 104 104 104 104 104 104 104 104 104 104 104 104 104 104 104 104 104 104 104 104 104 104 104 104 104 104 104 104 104 104 104 104 104 104 104 104 104 104 104 104 104 104 104 104 104 104 104 104 104 104 104 104 104 104 104 104 104 104 104 104 104 104 104 104 104 104 104 101 104 104 104 104 104 104 104 104 104 104 104 104 104 104 104 104 104 104 104 104 104 104 104 104 104 104 104 104 104 104 104 104 104 104 104 104 104 104 104 104 104 104 104 104 104 104 104 104 104 104 104 104 104 104 104 104 104 104 104 104 104 104 104 104 104 104 104 104 104 104 104 104 104 104 104 104 104 104 104 104 104 104 104 104 104 104 104 104 104 104 104 104 104 104 104 104 104 104 104 104 104 104 104 104 104 104 104 104 104 104 104 104 104 104 104 104 104 104 104 104 104 104 104 104 104 104 104 104 104 104 104 104 104 104 104 104 104 104 104 104 104 104 104 104 104 104 104 104 104 104 104 104 104 104 104 104 104 104 104 104 104 104 104 104 104 104 104 104 104 104 104 102 
        </DataArray>
        <DataArray type="Int32" Name="Partition" NumberOfComponents="1" format="ascii">
20 20 20 20 20 20 20 20 20 20 20 19 19 19 19 19 19 19 19 19 19 19 19 17 17 17 17 17 17 17 17 17 17 18 18 18 18 18 18 18 18 18 18 18 18 21 21 21 21 21 21 21 21 21 21 21 22 22 22 22 22 22 22 22 22 22 22 24 24 24 24 24 24 24 24 24 24 24 24 23 23 23 23 23 23 23 23 23 23 23 31 31 31 31 31 31 31 31 31 31 31 32 32 32 32 32 32 32 32 32 32 32 32 32 30 30 30 30 30 30 30 30 30 30 30 29 29 29 29 29 29 29 29 29 29 29 29 28 28 28 28 28 28 28 28 28 28 28 27 27 27 27 27 27 27 27 27 27 27 27 25 25 25 25 25 25 25 25 25 25 25 26 26 26 26 26 26 26 26 26 26 26 26 14 14 14 14 14 14 14 14 14 14 14 13 13 13 13 13 13 13 13 13 13 13 15 15 15 15 15 15 15 15 15 15 15 16 16 16 16 16 16 16 16 16 16 16 16 9 9 9 9 9 9 9 9 9 9 9 10 10 10 10 10 10 10 10 10 10 10 10 12 12 12 12 12 12 12 12 12 12 12 12 11 11 11 11 11 11 11 11 11 11 11 3 3 3 3 3 3 3 3 3 3 3 4 4 4 4 4 4 4 4 4 4 4 4 2 2 2 2 2 2 2 2 2 2 2 2 1 1 1 1 1 1 1 1 1 1 1 8 8 8 8 8 8 8 8 8 8 8 8 7 7 7 7 7 7 7 7 7 7 7 6 6 6 6 6 6 6 6 6 6 6 5 5 5 5 5 5 5 5 5 5 5 20 20 20 20 20 20 20 20 20 20 20 19 19 19 19 19 19 19 19 19 19 19 19 17 17 17 17 17 17 17 17 17 17 18 18 18 18 18 18 18 18 18 18 18 18 21 21 21 21 21 21 21 21 21 21 21 22 22 22 22 22 22 22 22 22 22 22 24 24 24 24 24 24 24 24 24 24 24 24 23 23 23 23 23 23 23 23 23 23 23 31 31 31 31 31 31 31 31 31 31 31 32 32 32 32 32 32 32 32 32 32 32 32 32 30 30 30 30 30 30 30 30 30 30 30 29 29 29 29 29 29 29 29 29 29 29 29 28 28 28 28 28 28 28 28 28 28 28 27 27 27 27 27 27 27 27 27 27 27 27 25 25 25 25 25 25 25 25 25 25 25 26 26 26 26 26 26 26 26 26 26 26 26 14 14 14 14 14 14 14 14 14 14 14 13 13 13 13 13 13 13 13 13 13 13 15 15 15 15 15 15 15 15 15 15 15 16 16 16 16 16 16 16 16 16 16 16 16 9 9 9 9 9 9 9 9 9 9 9 10 10 10 10 10 10 10 10 10 10 10 10 12 12 12 12 12 12 12 12 12 12 12 12 11 11 11 11 11 11 11 11 11 11 11 3 3 3 3 3 3 3 3 3 3 3 4 4 4 4 4 4 4 4 4 4 4 4 2 2 2 2 2 2 2 2 2 2 2 2 1 1 1 1 1 1 1 1 1 1 1 8 8 8 8 8 8 8 8 8 8 8 8 7 7 7 7 7 7 7 7 7 7 7 6 6 6 6 6 6 6 6 6 6 6 5 5 5 5 5 5 5 5 5 5 5 20 20 20 20 20 20 20 20 20 20 20 19 19 19 19 19 19 19 19 19 19 19 19 17 17 17 17 17 17 17 17 17 17 18 18 18 18 18 18 18 18 18 18 18 18 21 21 21 21 21 21 21 21 21 21 21 22 22 22 22 22 22 22 22 22 22 22 24 24 24 24 24 24 24 24 24 24 24 24 23 23 23 23 23 23 23 23 23 23 23 31 31 31 31 31 31 31 31 31 31 31 32 32 32 32 32 32 32 32 32 32 32 32 32 30 30 30 30 30 30 30 30 30 30 30 29 29 29 29 29 29 29 29 29 29 29 29 28 28 28 28 28 28 28 28 28 28 28 27 27 27 27 27 27 27 27 27 27 27 27 25 25 25 25 25 25 25 25 25 25 25 26 26 26 26 26 26 26 26 26 26 26 26 14 14 14 14 14 14 14 14 14 14 14 20 13 13 13 13 13 13 13 13 13 13 13 15 15 15 15 15 15 15 15 15 15 15 16 16 16 16 16 16 16 16 16 16 16 16 9 9 9 9 9 9 9 9 9 9 9 10 10 10 10 10 10 10 10 10 10 10 10 12 12 12 12 12 12 12 12 12 12 12 12 11 11 11 11 11 11 11 11 11 11 11 3 3 3 3 3 3 3 3 3 3 3 4 4 4 4 4 4 4 4 4 4 4 4 2 2 2 2 2 2 2 2 2 2 2 2 1 1 1 1 1 1 1 1 1 1 1 8 8 8 8 8 8 8 8 8 8 8 8 7 7 7 7 7 7 7 7 7 7 7 6 6 6 6 6 6 6 6 6 6 6 5 5 5 5 5 5 5 5 5 5 5 5 
        </DataArray>
      </CellData>
      <Points>
        <DataArray type="Float64" Name="ElementNumber" NumberOfComponents="3" format="ascii">
0.000000e+00 0.000000e+00 0.000000e+00 6.121149e+05 0.000000e+00 0.000000e+00 6.529226e+05 0.000000e+00 0.000000e+00 6.937303e+05 0.000000e+00 0.000000e+00 8.161532e+05 0.000000e+00 0.000000e+00 0.000000e+00 1.000000e+03 0.000000e+00 6.121149e+05 1.000000e+03 0.000000e+00 6.529226e+05 1.000000e+03 0.000000e+00 6.937303e+05 1.000000e+03 0.000000e+00 8.161532e+05 1.000000e+03 0.000000e+00 9.873286e+03 0.000000e+00 0.000000e+00 1.959528e+04 0.000000e+00 0.000000e+00 2.916830e+04 0.000000e+00 0.000000e+00 3.859464e+04 0.000000e+00 0.000000e+00 4.787653e+04 0.000000e+00 0.000000e+00 5.701619e+04 0.000000e+00 0.000000e+00 6.601580e+04 0.000000e+00 0.000000e+00 7.487751e+04 0.000000e+00 0.000000e+00 8.360342e+04 0.000000e+00 0.000000e+00 9.219563e+04 0.000000e+00 0.000000e+00 1.006562e+05 0.000000e+00 0.000000e+00 1.089871e+05 0.000000e+00 0.000000e+00 1.171903e+05 0.000000e+00 0.000000e+00 1.252679e+05 0.000000e+00 0.000000e+00 1.332216e+05 0.000000e+00 0.000000e+00 1.410535e+05 0.000000e+00 0.000000e+00 1.487654e+05 0.000000e+00 0.000000e+00 1.563591e+05 0.000000e+00 0.000000e+00 1.638365e+05 0.000000e+00 0.000000e+00 1.711992e+05 0.000000e+00 0.000000e+00 1.784492e+05 0.000000e+00 0.000000e+00 1.855880e+05 0.000000e+00 0.000000e+00 1.926175e+05 0.000000e+00 0.000000e+00 1.995393e+05 0.000000e+00 0.000000e+00 2.063549e+05 0.000000e+00 0.000000e+00 2.130662e+05 0.000000e+00 0.000000e+00 2.196746e+05 0.000000e+00 0.000000e+00 2.261818e+05 0.000000e+00 0.000000e+00 2.325892e+05 0.000000e+00 0.000000e+00 2.388984e+05 0.000000e+00 0.000000e+00 2.451110e+05 0.000000e+00 0.000000e+00 2.512284e+05 0.000000e+00 0.000000e+00 2.572520e+05 0.000000e+00 0.000000e+00 2.631834e+05 0.000000e+00 0.000000e+00 2.690238e+05 0.000000e+00 0.000000e+00 2.747748e+05 0.000000e+00 0.000000e+00 2.804376e+05 0.000000e+00 0.000000e+00 2.860137e+05 0.000000e+00 0.000000e+00 2.915043e+05 0.000000e+00 0.000000e+00 2.969107e+05 0.000000e+00 0.000000e+00 3.022344e+05 0.000000e+00 0.000000e+00 3.074764e+05 0.000000e+00 0.000000e+00 3.126382e+05 0.000000e+00 0.000000e+00 3.177208e+05 0.000000e+00 0.000000e+00 3.227256e+05 0.000000e+00 0.000000e+00 3.276536e+05 0.000000e+00 0.000000e+00 3.325062e+05 0.000000e+00 0.000000e+00 3.372844e+05 0.000000e+00 0.000000e+00 3.419894e+05 0.000000e+00 0.000000e+00 3.466222e+05 0.000000e+00 0.000000e+00 3.511841e+05 0.000000e+00 0.000000e+00 3.556761e+05 0.000000e+00 0.000000e+00 3.600993e+05 0.000000e+00 0.000000e+00 3.644546e+05 0.000000e+00 0.000000e+00 3.687433e+05 0.000000e+00 0.000000e+00 3.729662e+05 0.000000e+00 0.000000e+00 3.771244e+05 0.000000e+00 0.000000e+00 3.812189e+05 0.000000e+00 0.000000e+00 3.852507e+05 0.000000e+00 0.000000e+00 3.892206e+05 0.000000e+00 0.000000e+00 3.931298e+05 0.000000e+00 0.000000e+00 3.969790e+05 0.000000e+00 0.000000e+00 4.007693e+05 0.000000e+00 0.000000e+00 4.045015e+05 0.000000e+00 0.000000e+00 4.081764e+05 0.000000e+00 0.000000e+00 4.117951e+05 0.000000e+00 0.000000e+00 4.153583e+05 0.000000e+00 0.000000e+00 4.188670e+05 0.000000e+00 0.000000e+00 4.223218e+05 0.000000e+00 0.000000e+00 4.257238e+05 0.000000e+00 0.000000e+00 4.290735e+05 0.000000e+00 0.000000e+00 4.323720e+05 0.000000e+00 0.000000e+00 4.356199e+05 0.000000e+00 0.000000e+00 4.388181e+05 0.000000e+00 0.000000e+00 4.419672e+05 0.000000e+00 0.000000e+00 4.450681e+05 0.000000e+00 0.000000e+00 4.481215e+05 0.000000e+00 0.000000e+00 4.511281e+05 0.000000e+00 0.000000e+00 4.540886e+05 0.000000e+00 0.000000e+00 4.570037e+05 0.000000e+00 0.000000e+00 4.598742e+05 0.000000e+00 0.000000e+00 4.627007e+05 0.000000e+00 0.000000e+00 4.654839e+05 0.000000e+00 0.000000e+00 4.682244e+05 0.000000e+00 0.000000e+00 4.709230e+05 0.000000e+00 0.000000e+00 4.735802e+05 0.000000e+00 0.000000e+00 4.761966e+05 0.000000e+00 0.000000e+00 4.787730e+05 0.000000e+00 0.000000e+00 4.813099e+05 0.000000e+00 0.000000e+00 4.838080e+05 0.000000e+00 0.000000e+00 4.862677e+05 0.000000e+00 0.000000e+00 4.886898e+05 0.000000e+00 0.000000e+00 4.910747e+05 0.000000e+00 0.000000e+00 4.934231e+05 0.000000e+00 0.000000e+00 4.957355e+05 0.000000e+00 0.000000e+00 4.980125e+05 0.000000e+00 0.000000e+00 5.002546e+05 0.000000e+00 0.000000e+00 5.024623e+05 0.000000e+00 0.000000e+00 5.046362e+05 0.000000e+00 0.000000e+00 5.067768e+05 0.000000e+00 0.000000e+00 5.088846e+05 0.000000e+00 0.000000e+00 5.109601e+05 0.000000e+00 0.000000e+00 5.130038e+05 0.000000e+00 0.000000e+00 5.150162e+05 0.000000e+00 0.000000e+00 5.169977e+05 0.000000e+00 0.000000e+00 5.189489e+05 0.000000e+00 0.000000e+00 5.208702e+05 0.000000e+00 0.000000e+00 5.227620e+05 0.000000e+00 0.000000e+00 5.246249e+05 0.000000e+00 0.000000e+00 5.264592e+05 0.000000e+00 0.000000e+00 5.282653e+05 0.000000e+00 0.000000e+00 5.300439e+05 0.000000e+00 0.000000e+00 5.317951e+05 0.000000e+00 0.000000e+00 5.335196e+05 0.000000e+00 0.000000e+00 5.352176e+05 0.000000e+00 0.000000e+00 5.368895e+05 0.000000e+00 0.000000e+00 5.385359e+05 0.000000e+00 0.000000e+00 5.401571e+05 0.000000e+00 0.000000e+00 5.417533e+05 0.000000e+00 0.000000e+00 5.433252e+05 0.000000e+00 0.000000e+00 5.448729e+05 0.000000e+00 0.000000e+00 5.463970e+05 0.000000e+00 0.000000e+00 5.478977e+05 0.000000e+00 0.000000e+00 5.493753e+05 0.000000e+00 0.000000e+00 5.508304e+05 0.000000e+00 0.000000e+00 5.522631e+05 0.000000e+00 0.000000e+00 5.536739e+05 0.000000e+00 0.000000e+00 5.550631e+05 0.000000e+00 0.000000e+00 5.564310e+05 0.000000e+00 0.000000e+00 5.577779e+05 0.000000e+00 0.000000e+00 5.591042e+05 0.000000e+00 0.000000e+00 5.604102e+05 0.000000e+00 0.000000e+00 5.616961e+05 0.000000e+00 0.000000e+00 5.629624e+05 0.000000e+00 0.000000e+00 5.642092e+05 0.000000e+00 0.000000e+00 5.654369e+05 0.000000e+00 0.000000e+00 5.666459e+05 0.000000e+00 0.000000e+00 5.678363e+05 0.000000e+00 0.000000e+00 5.690084e+05 0.000000e+00 0.000000e+00 5.701626e+05 0.000000e+00 0.000000e+00 5.712991e+05 0.000000e+00 0.000000e+00 5.724182e+05 0.000000e+00 0.000000e+00 5.735202e+05 0.000000e+00 0.000000e+00 5.746052e+05 0.000000e+00 0.000000e+00 5.756737e+05 0.000000e+00 0.000000e+00 5.767257e+05 0.000000e+00 0.000000e+00 5.777617e+05 0.000000e+00 0.000000e+00 5.787818e+05 0.000000e+00 0.000000e+00 5.797862e+05 0.000000e+00 0.000000e+00 5.807752e+05 0.000000e+00 0.000000e+00 5.817491e+05 0.000000e+00 0.000000e+00 5.827081e+05 0.000000e+00 0.000000e+00 5.836524e+05 0.000000e+00 0.000000e+00 5.845822e+05 0.000000e+00 0.000000e+00 5.854977e+05 0.000000e+00 0.000000e+00 5.863993e+05 0.000000e+00 0.000000e+00 5.872870e+05 0.000000e+00 0.000000e+00 5.881611e+05 0.000000e+00 0.000000e+00 5.890218e+05 0.000000e+00 0.000000e+00 5.898693e+05 0.000000e+00 0.000000e+00 5.907039e+05 0.000000e+00 0.000000e+00 5.915256e+05 0.000000e+00 0.000000e+00 5.923348e+05 0.000000e+00 0.000000e+00 5.931316e+05 0.000000e+00 0.000000e+00 5.939161e+05 0.000000e+00 0.000000e+00 5.946886e+05 0.000000e+00 0.000000e+00 5.954493e+05 0.000000e+00 0.000000e+00 5.961984e+05 0.000000e+00 0.000000e+00 5.969359e+05 0.000000e+00 0.000000e+00 5.976622e+05 0.000000e+00 0.000000e+00 5.983773e+05 0.000000e+00 0.000000e+00 5.990815e+05 0.000000e+00 0.000000e+00 5.997749e+05 0.000000e+00 0.000000e+00 6.004576e+05 0.000000e+00 0.000000e+00 6.011299e+05 0.000000e+00 0.000000e+00 6.017919e+05 0.000000e+00 0.000000e+00 6.024437e+05 0.000000e+00 0.000000e+00 6.030856e+05 0.000000e+00 0.000000e+00 6.037176e+05 0.000000e+00 0.000000e+00 6.043400e+05 0.000000e+00 0.000000e+00 6.049528e+05 0.000000e+00 0.000000e+00 6.055562e+05 0.000000e+00 0.000000e+00 6.061503e+05 0.000000e+00 0.000000e+00 6.067354e+05 0.000000e+00 0.000000e+00 6.073115e+05 0.000000e+00 0.000000e+00 6.078788e+05 0.000000e+00 0.000000e+00 6.084373e+05 0.000000e+00 0.000000e+00 6.089874e+05 0.000000e+00 0.000000e+00 6.095290e+05 0.000000e+00 0.000000e+00 6.100622e+05 0.000000e+00 0.000000e+00 6.105874e+05 0.000000e+00 0.000000e+00 6.111044e+05 0.000000e+00 0.000000e+00 6.116136e+05 0.000000e+00 0.000000e+00 6.126126e+05 0.000000e+00 0.000000e+00 6.131102e+05 0.000000e+00 0.000000e+00 6.136079e+05 0.000000e+00 0.000000e+00 6.141055e+05 0.000000e+00 0.000000e+00 6.146032e+05 0.000000e+00 0.000000e+00 6.151009e+05 0.000000e+00 0.000000e+00 6.155985e+05 0.000000e+00 0.000000e+00 6.160962e+05 0.000000e+00 0.000000e+00 6.165938e+05 0.000000e+00 0.000000e+00 6.170915e+05 0.000000e+00 0.000000e+00 6.175891e+05 0.000000e+00 0.000000e+00 6.180868e+05 0.000000e+00 0.000000e+00 6.185844e+05 0.000000e+00 0.000000e+00 6.190821e+05 0.000000e+00 0.000000e+00 6.195797e+05 0.000000e+00 0.000000e+00 6.200774e+05 0.000000e+00 0.000000e+00 6.205751e+05 0.000000e+00 0.000000e+00 6.210727e+05 0.000000e+00 0.000000e+00 6.215704e+05 0.000000e+00 0.000000e+00 6.220680e+05 0.000000e+00 0.000000e+00 6.225657e+05 0.000000e+00 0.000000e+00 6.230633e+05 0.000000e+00 0.000000e+00 6.235610e+05 0.000000e+00 0.000000e+00 6.240586e+05 0.000000e+00 0.000000e+00 6.245563e+05 0.000000e+00 0.000000e+00 6.250539e+05 0.000000e+00 0.000000e+00 6.255516e+05 0.000000e+00 0.000000e+00 6.260493e+05 0.000000e+00 0.000000e+00 6.265469e+05 0.000000e+00 0.000000e+00 6.270446e+05 0.000000e+00 0.000000e+00 6.275422e+05 0.000000e+00 0.000000e+00 6.280399e+05 0.000000e+00 0.000000e+00 6.285375e+05 0.000000e+00 0.000000e+00 6.290352e+05 0.000000e+00 0.000000e+00 6.295328e+05 0.000000e+00 0.000000e+00 6.300305e+05 0.000000e+00 0.000000e+00 6.305281e+05 0.000000e+00 0.000000e+00 6.310258e+05 0.000000e+00 0.000000e+00 6.315235e+05 0.000000e+00 0.000000e+00 6.320211e+05 0.000000e+00 0.000000e+00 6.325188e+05 0.000000e+00 0.000000e+00 6.330164e+05 0.000000e+00 0.000000e+00 6.335141e+05 0.000000e+00 0.000000e+00 6.340117e+05 0.000000e+00 0.000000e+00 6.345094e+05 0.000000e+00 0.000000e+00 6.350070e+05 0.000000e+00 0.000000e+00 6.355047e+05 0.000000e+00 0.000000e+00 6.360023e+05 0.000000e+00 0.000000e+00 6.365000e+05 0.000000e+00 0.000000e+00 6.369977e+05 0.000000e+00 0.000000e+00 6.374953e+05 0.000000e+00 0.000000e+00 6.379930e+05 0.000000e+00 0.000000e+00 6.384906e+05 0.000000e+00 0.000000e+00 6.389883e+05 0.000000e+00 0.000000e+00 6.394859e+05 0.000000e+00 0.000000e+00 6.399836e+05 0.000000e+00 0.000000e+00 6.404812e+05 0.000000e+00 0.000000e+00 6.409789e+05 0.000000e+00 0.000000e+00 6.414765e+05 0.000000e+00 0.000000e+00 6.419742e+05 0.000000e+00 0.000000e+00 6.424718e+05 0.000000e+00 0.000000e+00 6.429695e+05 0.000000e+00 0.000000e+00 6.434672e+05 0.000000e+00 0.000000e+00 6.439648e+05 0.000000e+00 0.000000e+00 6.444625e+05 0.000000e+00 0.000000e+00 6.449601e+05 0.000000e+00 0.000000e+00 6.454578e+05 0.000000e+00 0.000000e+00 6.459554e+05 0.000000e+00 0.000000e+00 6.464531e+05 0.000000e+00 0.000000e+00 6.469507e+05 0.000000e+00 0.000000e+00 6.474484e+05 0.000000e+00 0.000000e+00 6.479460e+05 0.000000e+00 0.000000e+00 6.484437e+05 0.000000e+00 0.000000e+00 6.489414e+05 0.000000e+00 0.000000e+00 6.494390e+05 0.000000e+00 0.000000e+00 6.499367e+05 0.000000e+00 0.000000e+00 6.504343e+05 0.000000e+00 0.000000e+00 6.509320e+05 0.000000e+00 0.000000e+00 6.514296e+05 0.000000e+00 0.000000e+00 6.519273e+05 0.000000e+00 0.000000e+00 6.524249e+05 0.000000e+00 0.000000e+00 6.534219e+05 0.000000e+00 0.000000e+00 6.539272e+05 0.000000e+00 0.000000e+00 6.544388e+05 0.000000e+00 0.000000e+00 6.549566e+05 0.000000e+00 0.000000e+00 6.554808e+05 0.000000e+00 0.000000e+00 6.560113e+05 0.000000e+00 0.000000e+00 6.565484e+05 0.000000e+00 0.000000e+00 6.570920e+05 0.000000e+00 0.000000e+00 6.576423e+05 0.000000e+00 0.000000e+00 6.581993e+05 0.000000e+00 0.000000e+00 6.587632e+05 0.000000e+00 0.000000e+00 6.593339e+05 0.000000e+00 0.000000e+00 6.599116e+05 0.000000e+00 0.000000e+00 6.604964e+05 0.000000e+00 0.000000e+00 6.610883e+05 0.000000e+00 0.000000e+00 6.616875e+05 0.000000e+00 0.000000e+00 6.622940e+05 0.000000e+00 0.000000e+00 6.629079e+05 0.000000e+00 0.000000e+00 6.635294e+05 0.000000e+00 0.000000e+00 6.641584e+05 0.000000e+00 0.000000e+00 6.647951e+05 0.000000e+00 0.000000e+00 6.654397e+05 0.000000e+00 0.000000e+00 6.660921e+05 0.000000e+00 0.000000e+00 6.667525e+05 0.000000e+00 0.000000e+00 6.674210e+05 0.000000e+00 0.000000e+00 6.680976e+05 0.000000e+00 0.000000e+00 6.687825e+05 0.000000e+00 0.000000e+00 6.694758e+05 0.000000e+00 0.000000e+00 6.701776e+05 0.000000e+00 0.000000e+00 6.708880e+05 0.000000e+00 0.000000e+00 6.716071e+05 0.000000e+00 0.000000e+00 6.723350e+05 0.000000e+00 0.000000e+00 6.730717e+05 0.000000e+00 0.000000e+00 6.738175e+05 0.000000e+00 0.000000e+00 6.745724e+05 0.000000e+00 0.000000e+00 6.753366e+05 0.000000e+00 0.000000e+00 6.761101e+05 0.000000e+00 0.000000e+00 6.768931e+05 0.000000e+00 0.000000e+00 6.776856e+05 0.000000e+00 0.000000e+00 6.784878e+05 0.000000e+00 0.000000e+00 6.792999e+05 0.000000e+00 0.000000e+00 6.801219e+05 0.000000e+00 0.000000e+00 6.809539e+05 0.000000e+00 0.000000e+00 6.817962e+05 0.000000e+00 0.000000e+00 6.826487e+05 0.000000e+00 0.000000e+00 6.835116e+05 0.000000e+00 0.000000e+00 6.843852e+05 0.000000e+00 0.000000e+00 6.852694e+05 0.000000e+00 0.000000e+00 6.861644e+05 0.000000e+00 0.000000e+00 6.870704e+05 0.000000e+00 0.000000e+00 6.879874e+05 0.000000e+00 0.000000e+00 6.889157e+05 0.000000e+00 0.000000e+00 6.898553e+05 0.000000e+00 0.000000e+00 6.908065e+05 0.000000e+00 0.000000e+00 6.917692e+05 0.000000e+00 0.000000e+00 6.927438e+05 0.000000e+00 0.000000e+00 6.947451e+05 0.000000e+00 0.000000e+00 6.958357e+05 0.000000e+00 0.000000e+00 6.970076e+05 0.000000e+00 0.000000e+00 6.982670e+05 0.000000e+00 0.000000e+00 6.996203e+05 0.000000e+00 0.000000e+00 7.010746e+05 0.000000e+00 0.000000e+00 7.026374e+05 0.000000e+00 0.000000e+00 7.043168e+05 0.000000e+00 0.000000e+00 7.061215e+05 0.000000e+00 0.000000e+00 7.080609e+05 0.000000e+00 0.000000e+00 7.101449e+05 0.000000e+00 0.000000e+00 7.123844e+05 0.000000e+00 0.000000e+00 7.147910e+05 0.000000e+00 0.000000e+00 7.173772e+05 0.000000e+00 0.000000e+00 7.201563e+05 0.000000e+00 0.000000e+00 7.231428e+05 0.000000e+00 0.000000e+00 7.263520e+05 0.000000e+00 0.000000e+00 7.298007e+05 0.000000e+00 0.000000e+00 7.335067e+05 0.000000e+00 0.000000e+00 7.374892e+05 0.000000e+00 0.000000e+00 7.417688e+05 0.000000e+00 0.000000e+00 7.463677e+05 0.000000e+00 0.000000e+00 7.513097e+05 0.000000e+00 0.000000e+00 7.566205e+05 0.000000e+00 0.000000e+00 7.623274e+05 0.000000e+00 0.000000e+00 7.684602e+05 0.000000e+00 0.000000e+00 7.750505e+05 0.000000e+00 0.000000e+00 7.821325e+05 0.000000e+00 0.000000e+00 7.897428e+05 0.000000e+00 0.000000e+00 7.979210e+05 0.000000e+00 0.000000e+00 8.067093e+05 0.000000e+00 0.000000e+00 9.873286e+03 1.000000e+03 0.000000e+00 1.959528e+04 1.000000e+03 0.000000e+00 2.916830e+04 1.000000e+03 0.000000e+00 3.859464e+04 1.000000e+03 0.000000e+00 4.787653e+04 1.000000e+03 0.000000e+00 5.701619e+04 1.000000e+03 0.000000e+00 6.601580e+04 1.000000e+03 0.000000e+00 7.487751e+04 1.000000e+03 0.000000e+00 8.360342e+04 1.000000e+03 0.000000e+00 9.219563e+04 1.000000e+03 0.000000e+00 1.006562e+05 1.000000e+03 0.000000e+00 1.089871e+05 1.000000e+03 0.000000e+00 1.171903e+05 1.000000e+03 0.000000e+00 1.252679e+05 1.000000e+03 0.000000e+00 1.332216e+05 1.000000e+03 0.000000e+00 1.410535e+05 1.000000e+03 0.000000e+00 1.487654e+05 1.000000e+03 0.000000e+00 1.563591e+05 1.000000e+03 0.000000e+00 1.638365e+05 1.000000e+03 0.000000e+00 1.711992e+05 1.000000e+03 0.000000e+00 1.784492e+05 1.000000e+03 0.000000e+00 1.855880e+05 1.000000e+03 0.000000e+00 1.926175e+05 1.000000e+03 0.000000e+00 1.995393e+05 1.000000e+03 0.000000e+00 2.063549e+05 1.000000e+03 0.000000e+00 2.130662e+05 1.000000e+03 0.000000e+00 2.196746e+05 1.000000e+03 0.000000e+00 2.261818e+05 1.000000e+03 0.000000e+00 2.325892e+05 1.000000e+03 0.000000e+00 2.388984e+05 1.000000e+03 0.000000e+00 2.451110e+05 1.000000e+03 0.000000e+00 2.512284e+05 1.000000e+03 0.000000e+00 2.572520e+05 1.000000e+03 0.000000e+00 2.631834e+05 1.000000e+03 0.000000e+00 2.690238e+05 1.000000e+03 0.000000e+00 2.747748e+05 1.000000e+03 0.000000e+00 2.804376e+05 1.000000e+03 0.000000e+00 2.860137e+05 1.000000e+03 0.000000e+00 2.915043e+05 1.000000e+03 0.000000e+00 2.969107e+05 1.000000e+03 0.000000e+00 3.022344e+05 1.000000e+03 0.000000e+00 3.074764e+05 1.000000e+03 0.000000e+00 3.126382e+05 1.000000e+03 0.000000e+00 3.177208e+05 1.000000e+03 0.000000e+00 3.227256e+05 1.000000e+03 0.000000e+00 3.276536e+05 1.000000e+03 0.000000e+00 3.325062e+05 1.000000e+03 0.000000e+00 3.372844e+05 1.000000e+03 0.000000e+00 3.419894e+05 1.000000e+03 0.000000e+00 3.466222e+05 1.000000e+03 0.000000e+00 3.511841e+05 1.000000e+03 0.000000e+00 3.556761e+05 1.000000e+03 0.000000e+00 3.600993e+05 1.000000e+03 0.000000e+00 3.644546e+05 1.000000e+03 0.000000e+00 3.687433e+05 1.000000e+03 0.000000e+00 3.729662e+05 1.000000e+03 0.000000e+00 3.771244e+05 1.000000e+03 0.000000e+00 3.812189e+05 1.000000e+03 0.000000e+00 3.852507e+05 1.000000e+03 0.000000e+00 3.892206e+05 1.000000e+03 0.000000e+00 3.931298e+05 1.000000e+03 0.000000e+00 3.969790e+05 1.000000e+03 0.000000e+00 4.007693e+05 1.000000e+03 0.000000e+00 4.045015e+05 1.000000e+03 0.000000e+00 4.081764e+05 1.000000e+03 0.000000e+00 4.117951e+05 1.000000e+03 0.000000e+00 4.153583e+05 1.000000e+03 0.000000e+00 4.188670e+05 1.000000e+03 0.000000e+00 4.223218e+05 1.000000e+03 0.000000e+00 4.257238e+05 1.000000e+03 0.000000e+00 4.290735e+05 1.000000e+03 0.000000e+00 4.323720e+05 1.000000e+03 0.000000e+00 4.356199e+05 1.000000e+03 0.000000e+00 4.388181e+05 1.000000e+03 0.000000e+00 4.419672e+05 1.000000e+03 0.000000e+00 4.450681e+05 1.000000e+03 0.000000e+00 4.481215e+05 1.000000e+03 0.000000e+00 4.511281e+05 1.000000e+03 0.000000e+00 4.540886e+05 1.000000e+03 0.000000e+00 4.570037e+05 1.000000e+03 0.000000e+00 4.598742e+05 1.000000e+03 0.000000e+00 4.627007e+05 1.000000e+03 0.000000e+00 4.654839e+05 1.000000e+03 0.000000e+00 4.682244e+05 1.000000e+03 0.000000e+00 4.709230e+05 1.000000e+03 0.000000e+00 4.735802e+05 1.000000e+03 0.000000e+00 4.761966e+05 1.000000e+03 0.000000e+00 4.787730e+05 1.000000e+03 0.000000e+00 4.813099e+05 1.000000e+03 0.000000e+00 4.838080e+05 1.000000e+03 0.000000e+00 4.862677e+05 1.000000e+03 0.000000e+00 4.886898e+05 1.000000e+03 0.000000e+00 4.910747e+05 1.000000e+03 0.000000e+00 4.934231e+05 1.000000e+03 0.000000e+00 4.957355e+05 1.000000e+03 0.000000e+00 4.980125e+05 1.000000e+03 0.000000e+00 5.002546e+05 1.000000e+03 0.000000e+00 5.024623e+05 1.000000e+03 0.000000e+00 5.046362e+05 1.000000e+03 0.000000e+00 5.067768e+05 1.000000e+03 0.000000e+00 5.088846e+05 1.000000e+03 0.000000e+00 5.109601e+05 1.000000e+03 0.000000e+00 5.130038e+05 1.000000e+03 0.000000e+00 5.150162e+05 1.000000e+03 0.000000e+00 5.169977e+05 1.000000e+03 0.000000e+00 5.189489e+05 1.000000e+03 0.000000e+00 5.208702e+05 1.000000e+03 0.000000e+00 5.227620e+05 1.000000e+03 0.000000e+00 5.246249e+05 1.000000e+03 0.000000e+00 5.264592e+05 1.000000e+03 0.000000e+00 5.282653e+05 1.000000e+03 0.000000e+00 5.300439e+05 1.000000e+03 0.000000e+00 5.317951e+05 1.000000e+03 0.000000e+00 5.335196e+05 1.000000e+03 0.000000e+00 5.352176e+05 1.000000e+03 0.000000e+00 5.368895e+05 1.000000e+03 0.000000e+00 5.385359e+05 1.000000e+03 0.000000e+00 5.401571e+05 1.000000e+03 0.000000e+00 5.417533e+05 1.000000e+03 0.000000e+00 5.433252e+05 1.000000e+03 0.000000e+00 5.448729e+05 1.000000e+03 0.000000e+00 5.463970e+05 1.000000e+03 0.000000e+00 5.478977e+05 1.000000e+03 0.000000e+00 5.493753e+05 1.000000e+03 0.000000e+00 5.508304e+05 1.000000e+03 0.000000e+00 5.522631e+05 1.000000e+03 0.000000e+00 5.536739e+05 1.000000e+03 0.000000e+00 5.550631e+05 1.000000e+03 0.000000e+00 5.564310e+05 1.000000e+03 0.000000e+00 5.577779e+05 1.000000e+03 0.000000e+00 5.591042e+05 1.000000e+03 0.000000e+00 5.604102e+05 1.000000e+03 0.000000e+00 5.616961e+05 1.000000e+03 0.000000e+00 5.629624e+05 1.000000e+03 0.000000e+00 5.642092e+05 1.000000e+03 0.000000e+00 5.654369e+05 1.000000e+03 0.000000e+00 5.666459e+05 1.000000e+03 0.000000e+00 5.678363e+05 1.000000e+03 0.000000e+00 5.690084e+05 1.000000e+03 0.000000e+00 5.701626e+05 1.000000e+03 0.000000e+00 5.712991e+05 1.000000e+03 0.000000e+00 5.724182e+05 1.000000e+03 0.000000e+00 5.735202e+05 1.000000e+03 0.000000e+00 5.746052e+05 1.000000e+03 0.000000e+00 5.756737e+05 1.000000e+03 0.000000e+00 5.767257e+05 1.000000e+03 0.000000e+00 5.777617e+05 1.000000e+03 0.000000e+00 5.787818e+05 1.000000e+03 0.000000e+00 5.797862e+05 1.000000e+03 0.000000e+00 5.807752e+05 1.000000e+03 0.000000e+00 5.817491e+05 1.000000e+03 0.000000e+00 5.827081e+05 1.000000e+03 0.000000e+00 5.836524e+05 1.000000e+03 0.000000e+00 5.845822e+05 1.000000e+03 0.000000e+00 5.854977e+05 1.000000e+03 0.000000e+00 5.863993e+05 1.000000e+03 0.000000e+00 5.872870e+05 1.000000e+03 0.000000e+00 5.881611e+05 1.000000e+03 0.000000e+00 5.890218e+05 1.000000e+03 0.000000e+00 5.898693e+05 1.000000e+03 0.000000e+00 5.907039e+05 1.000000e+03 0.000000e+00 5.915256e+05 1.000000e+03 0.000000e+00 5.923348e+05 1.000000e+03 0.000000e+00 5.931316e+05 1.000000e+03 0.000000e+00 5.939161e+05 1.000000e+03 0.000000e+00 5.946886e+05 1.000000e+03 0.000000e+00 5.954493e+05 1.000000e+03 0.000000e+00 5.961984e+05 1.000000e+03 0.000000e+00 5.969359e+05 1.000000e+03 0.000000e+00 5.976622e+05 1.000000e+03 0.000000e+00 5.983773e+05 1.000000e+03 0.000000e+00 5.990815e+05 1.000000e+03 0.000000e+00 5.997749e+05 1.000000e+03 0.000000e+00 6.004576e+05 1.000000e+03 0.000000e+00 6.011299e+05 1.000000e+03 0.000000e+00 6.017919e+05 1.000000e+03 0.000000e+00 6.024437e+05 1.000000e+03 0.000000e+00 6.030856e+05 1.000000e+03 0.000000e+00 6.037176e+05 1.000000e+03 0.000000e+00 6.043400e+05 1.000000e+03 0.000000e+00 6.049528e+05 1.000000e+03 0.000000e+00 6.055562e+05 1.000000e+03 0.000000e+00 6.061503e+05 1.000000e+03 0.000000e+00 6.067354e+05 1.000000e+03 0.000000e+00 6.073115e+05 1.000000e+03 0.000000e+00 6.078788e+05 1.000000e+03 0.000000e+00 6.084373e+05 1.000000e+03 0.000000e+00 6.089874e+05 1.000000e+03 0.000000e+00 6.095290e+05 1.000000e+03 0.000000e+00 6.100622e+05 1.000000e+03 0.000000e+00 6.105874e+05 1.000000e+03 0.000000e+00 6.111044e+05 1.000000e+03 0.000000e+00 6.116136e+05 1.000000e+03 0.000000e+00 6.126126e+05 1.000000e+03 0.000000e+00 6.131102e+05 1.000000e+03 0.000000e+00 6.136079e+05 1.000000e+03 0.000000e+00 6.141055e+05 1.000000e+03 0.000000e+00 6.146032e+05 1.000000e+03 0.000000e+00 6.151009e+05 1.000000e+03 0.000000e+00 6.155985e+05 1.000000e+03 0.000000e+00 6.160962e+05 1.000000e+03 0.000000e+00 6.165938e+05 1.000000e+03 0.000000e+00 6.170915e+05 1.000000e+03 0.000000e+00 6.175891e+05 1.000000e+03 0.000000e+00 6.180868e+05 1.000000e+03 0.000000e+00 6.185844e+05 1.000000e+03 0.000000e+00 6.190821e+05 1.000000e+03 0.000000e+00 6.195797e+05 1.000000e+03 0.000000e+00 6.200774e+05 1.000000e+03 0.000000e+00 6.205751e+05 1.000000e+03 0.000000e+00 6.210727e+05 1.000000e+03 0.000000e+00 6.215704e+05 1.000000e+03 0.000000e+00 6.220680e+05 1.000000e+03 0.000000e+00 6.225657e+05 1.000000e+03 0.000000e+00 6.230633e+05 1.000000e+03 0.000000e+00 6.235610e+05 1.000000e+03 0.000000e+00 6.240586e+05 1.000000e+03 0.000000e+00 6.245563e+05 1.000000e+03 0.000000e+00 6.250539e+05 1.000000e+03 0.000000e+00 6.255516e+05 1.000000e+03 0.000000e+00 6.260493e+05 1.000000e+03 0.000000e+00 6.265469e+05 1.000000e+03 0.000000e+00 6.270446e+05 1.000000e+03 0.000000e+00 6.275422e+05 1.000000e+03 0.000000e+00 6.280399e+05 1.000000e+03 0.000000e+00 6.285375e+05 1.000000e+03 0.000000e+00 6.290352e+05 1.000000e+03 0.000000e+00 6.295328e+05 1.000000e+03 0.000000e+00 6.300305e+05 1.000000e+03 0.000000e+00 6.305281e+05 1.000000e+03 0.000000e+00 6.310258e+05 1.000000e+03 0.000000e+00 6.315235e+05 1.000000e+03 0.000000e+00 6.320211e+05 1.000000e+03 0.000000e+00 6.325188e+05 1.000000e+03 0.000000e+00 6.330164e+05 1.000000e+03 0.000000e+00 6.335141e+05 1.000000e+03 0.000000e+00 6.340117e+05 1.000000e+03 0.000000e+00 6.345094e+05 1.000000e+03 0.000000e+00 6.350070e+05 1.000000e+03 0.000000e+00 6.355047e+05 1.000000e+03 0.000000e+00 6.360023e+05 1.000000e+03 0.000000e+00 6.365000e+05 1.000000e+03 0.000000e+00 6.369977e+05 1.000000e+03 0.000000e+00 6.374953e+05 1.000000e+03 0.000000e+00 6.379930e+05 1.000000e+03 0.000000e+00 6.384906e+05 1.000000e+03 0.000000e+00 6.389883e+05 1.000000e+03 0.000000e+00 6.394859e+05 1.000000e+03 0.000000e+00 6.399836e+05 1.000000e+03 0.000000e+00 6.404812e+05 1.000000e+03 0.000000e+00 6.409789e+05 1.000000e+03 0.000000e+00 6.414765e+05 1.000000e+03 0.000000e+00 6.419742e+05 1.000000e+03 0.000000e+00 6.424718e+05 1.000000e+03 0.000000e+00 6.429695e+05 1.000000e+03 0.000000e+00 6.434672e+05 1.000000e+03 0.000000e+00 6.439648e+05 1.000000e+03 0.000000e+00 6.444625e+05 1.000000e+03 0.000000e+00 6.449601e+05 1.000000e+03 0.000000e+00 6.454578e+05 1.000000e+03 0.000000e+00 6.459554e+05 1.000000e+03 0.000000e+00 6.464531e+05 1.000000e+03 0.000000e+00 6.469507e+05 1.000000e+03 0.000000e+00 6.474484e+05 1.000000e+03 0.000000e+00 6.479460e+05 1.000000e+03 0.000000e+00 6.484437e+05 1.000000e+03 0.000000e+00 6.489414e+05 1.000000e+03 0.000000e+00 6.494390e+05 1.000000e+03 0.000000e+00 6.499367e+05 1.000000e+03 0.000000e+00 6.504343e+05 1.000000e+03 0.000000e+00 6.509320e+05 1.000000e+03 0.000000e+00 6.514296e+05 1.000000e+03 0.000000e+00 6.519273e+05 1.000000e+03 0.000000e+00 6.524249e+05 1.000000e+03 0.000000e+00 6.534219e+05 1.000000e+03 0.000000e+00 6.539272e+05 1.000000e+03 0.000000e+00 6.544388e+05 1.000000e+03 0.000000e+00 6.549566e+05 1.000000e+03 0.000000e+00 6.554808e+05 1.000000e+03 0.000000e+00 6.560113e+05 1.000000e+03 0.000000e+00 6.565484e+05 1.000000e+03 0.000000e+00 6.570920e+05 1.000000e+03 0.000000e+00 6.576423e+05 1.000000e+03 0.000000e+00 6.581993e+05 1.000000e+03 0.000000e+00 6.587632e+05 1.000000e+03 0.000000e+00 6.593339e+05 1.000000e+03 0.000000e+00 6.599116e+05 1.000000e+03 0.000000e+00 6.604964e+05 1.000000e+03 0.000000e+00 6.610883e+05 1.000000e+03 0.000000e+00 6.616875e+05 1.000000e+03 0.000000e+00 6.622940e+05 1.000000e+03 0.000000e+00 6.629079e+05 1.000000e+03 0.000000e+00 6.635294e+05 1.000000e+03 0.000000e+00 6.641584e+05 1.000000e+03 0.000000e+00 6.647951e+05 1.000000e+03 0.000000e+00 6.654397e+05 1.000000e+03 0.000000e+00 6.660921e+05 1.000000e+03 0.000000e+00 6.667525e+05 1.000000e+03 0.000000e+00 6.674210e+05 1.000000e+03 0.000000e+00 6.680976e+05 1.000000e+03 0.000000e+00 6.687825e+05 1.000000e+03 0.000000e+00 6.694758e+05 1.000000e+03 0.000000e+00 6.701776e+05 1.000000e+03 0.000000e+00 6.708880e+05 1.000000e+03 0.000000e+00 6.716071e+05 1.000000e+03 0.000000e+00 6.723350e+05 1.000000e+03 0.000000e+00 6.730717e+05 1.000000e+03 0.000000e+00 6.738175e+05 1.000000e+03 0.000000e+00 6.745724e+05 1.000000e+03 0.000000e+00 6.753366e+05 1.000000e+03 0.000000e+00 6.761101e+05 1.000000e+03 0.000000e+00 6.768931e+05 1.000000e+03 0.000000e+00 6.776856e+05 1.000000e+03 0.000000e+00 6.784878e+05 1.000000e+03 0.000000e+00 6.792999e+05 1.000000e+03 0.000000e+00 6.801219e+05 1.000000e+03 0.000000e+00 6.809539e+05 1.000000e+03 0.000000e+00 6.817962e+05 1.000000e+03 0.000000e+00 6.826487e+05 1.000000e+03 0.000000e+00 6.835116e+05 1.000000e+03 0.000000e+00 6.843852e+05 1.000000e+03 0.000000e+00 6.852694e+05 1.000000e+03 0.000000e+00 6.861644e+05 1.000000e+03 0.000000e+00 6.870704e+05 1.000000e+03 0.000000e+00 6.879874e+05 1.000000e+03 0.000000e+00 6.889157e+05 1.000000e+03 0.000000e+00 6.898553e+05 1.000000e+03 0.000000e+00 6.908065e+05 1.000000e+03 0.000000e+00 6.917692e+05 1.000000e+03 0.000000e+00 6.927438e+05 1.000000e+03 0.000000e+00 6.947451e+05 1.000000e+03 0.000000e+00 6.958357e+05 1.000000e+03 0.000000e+00 6.970076e+05 1.000000e+03 0.000000e+00 6.982670e+05 1.000000e+03 0.000000e+00 6.996203e+05 1.000000e+03 0.000000e+00 7.010746e+05 1.000000e+03 0.000000e+00 7.026374e+05 1.000000e+03 0.000000e+00 7.043168e+05 1.000000e+03 0.000000e+00 7.061215e+05 1.000000e+03 0.000000e+00 7.080609e+05 1.000000e+03 0.000000e+00 7.101449e+05 1.000000e+03 0.000000e+00 7.123844e+05 1.000000e+03 0.000000e+00 7.147910e+05 1.000000e+03 0.000000e+00 7.173772e+05 1.000000e+03 0.000000e+00 7.201563e+05 1.000000e+03 0.000000e+00 7.231428e+05 1.000000e+03 0.000000e+00 7.263520e+05 1.000000e+03 0.000000e+00 7.298007e+05 1.000000e+03 0.000000e+00 7.335067e+05 1.000000e+03 0.000000e+00 7.374892e+05 1.000000e+03 0.000000e+00 7.417688e+05 1.000000e+03 0.000000e+00 7.463677e+05 1.000000e+03 0.000000e+00 7.513097e+05 1.000000e+03 0.000000e+00 7.566205e+05 1.000000e+03 0.000000e+00 7.623274e+05 1.000000e+03 0.000000e+00 7.684602e+05 1.000000e+03 0.000000e+00 7.750505e+05 1.000000e+03 0.000000e+00 7.821325e+05 1.000000e+03 0.000000e+00 7.897428e+05 1.000000e+03 0.000000e+00 7.979210e+05 1.000000e+03 0.000000e+00 8.067093e+05 1.000000e+03 0.000000e+00 
        </DataArray>
      </Points>
      <Cells>
        <DataArray type="Int32" Name="connectivity" NumberOfComponents="1" format="ascii">
0 10 371 5 10 11 372 371 11 12 373 372 12 13 374 373 13 14 375 374 14 15 376 375 15 16 377 376 16 17 378 377 17 18 379 378 18 19 380 379 19 20 381 380 20 21 382 381 21 22 383 382 22 23 384 383 23 24 385 384 24 25 386 385 25 26 387 386 26 27 388 387 27 28 389 388 28 29 390 389 29 30 391 390 30 31 392 391 31 32 393 392 32 33 394 393 33 34 395 394 34 35 396 395 35 36 397 396 36 37 398 397 37 38 399 398 38 39 400 399 39 40 401 400 40 41 402 401 41 42 403 402 42 43 404 403 43 44 405 404 44 45 406 405 45 46 407 406 46 47 408 407 47 48 409 408 48 49 410 409 49 50 411 410 50 51 412 411 51 52 413 412 52 53 414 413 53 54 415 414 54 55 416 415 55 56 417 416 56 57 418 417 57 58 419 418 58 59 420 419 59 60 421 420 60 61 422 421 61 62 423 422 62 63 424 423 63 64 425 424 64 65 426 425 65 66 427 426 66 67 428 427 67 68 429 428 68 69 430 429 69 70 431 430 70 71 432 431 71 72 433 432 72 73 434 433 73 74 435 434 74 75 436 435 75 76 437 436 76 77 438 437 77 78 439 438 78 79 440 439 79 80 441 440 80 81 442 441 81 82 443 442 82 83 444 443 83 84 445 444 84 85 446 445 85 86 447 446 86 87 448 447 87 88 449 448 88 89 450 449 89 90 451 450 90 91 452 451 91 92 453 452 92 93 454 453 93 94 455 454 94 95 456 455 95 96 457 456 96 97 458 457 97 98 459 458 98 99 460 459 99 100 461 460 100 101 462 461 101 102 463 462 102 103 464 463 103 104 465 464 104 105 466 465 105 106 467 466 106 107 468 467 107 108 469 468 108 109 470 469 109 110 471 470 110 111 472 471 111 112 473 472 112 113 474 473 113 114 475 474 114 115 476 475 115 116 477 476 116 117 478 477 117 118 479 478 118 119 480 479 119 120 481 480 120 121 482 481 121 122 483 482 122 123 484 483 123 124 485 484 124 125 486 485 125 126 487 486 126 127 488 487 127 128 489 488 128 129 490 489 129 130 491 490 130 131 492 491 131 132 493 492 132 133 494 493 133 134 495 494 134 135 496 495 135 136 497 496 136 137 498 497 137 138 499 498 138 139 500 499 139 140 501 500 140 141 502 501 141 142 503 502 142 143 504 503 143 144 505 504 144 145 506 505 145 146 507 506 146 147 508 507 147 148 509 508 148 149 510 509 149 150 511 510 150 151 512 511 151 152 513 512 152 153 514 513 153 154 515 514 154 155 516 515 155 156 517 516 156 157 518 517 157 158 519 518 158 159 520 519 159 160 521 520 160 161 522 521 161 162 523 522 162 163 524 523 163 164 525 524 164 165 526 525 165 166 527 526 166 167 528 527 167 168 529 528 168 169 530 529 169 170 531 530 170 171 532 531 171 172 533 532 172 173 534 533 173 174 535 534 174 175 536 535 175 176 537 536 176 177 538 537 177 178 539 538 178 179 540 539 179 180 541 540 180 181 542 541 181 182 543 542 182 183 544 543 183 184 545 544 184 185 546 545 185 186 547 546 186 187 548 547 187 188 549 548 188 189 550 549 189 190 551 550 190 191 552 551 191 192 553 552 192 193 554 553 193 194 555 554 194 195 556 555 195 196 557 556 196 197 558 557 197 198 559 558 198 199 560 559 199 200 561 560 200 201 562 561 201 202 563 562 202 1 6 563 1 203 564 6 203 204 565 564 204 205 566 565 205 206 567 566 206 207 568 567 207 208 569 568 208 209 570 569 209 210 571 570 210 211 572 571 211 212 573 572 212 213 574 573 213 214 575 574 214 215 576 575 215 216 577 576 216 217 578 577 217 218 579 578 218 219 580 579 219 220 581 580 220 221 582 581 221 222 583 582 222 223 584 583 223 224 585 584 224 225 586 585 225 226 587 586 226 227 588 587 227 228 589 588 228 229 590 589 229 230 591 590 230 231 592 591 231 232 593 592 232 233 594 593 233 234 595 594 234 235 596 595 235 236 597 596 236 237 598 597 237 238 599 598 238 239 600 599 239 240 601 600 240 241 602 601 241 242 603 602 242 243 604 603 243 244 605 604 244 245 606 605 245 246 607 606 246 247 608 607 247 248 609 608 248 249 610 609 249 250 611 610 250 251 612 611 251 252 613 612 252 253 614 613 253 254 615 614 254 255 616 615 255 256 617 616 256 257 618 617 257 258 619 618 258 259 620 619 259 260 621 620 260 261 622 621 261 262 623 622 262 263 624 623 263 264 625 624 264 265 626 625 265 266 627 626 266 267 628 627 267 268 629 628 268 269 630 629 269 270 631 630 270 271 632 631 271 272 633 632 272 273 634 633 273 274 635 634 274 275 636 635 275 276 637 636 276 277 638 637 277 278 639 638 278 279 640 639 279 280 641 640 280 281 642 641 281 282 643 642 282 283 644 643 283 2 7 644 2 284 645 7 284 285 646 645 285 286 647 646 286 287 648 647 287 288 649 648 288 289 650 649 289 290 651 650 290 291 652 651 291 292 653 652 292 293 654 653 293 294 655 654 294 295 656 655 295 296 657 656 296 297 658 657 297 298 659 658 298 299 660 659 299 300 661 660 300 301 662 661 301 302 663 662 302 303 664 663 303 304 665 664 304 305 666 665 305 306 667 666 306 307 668 667 307 308 669 668 308 309 670 669 309 310 671 670 310 311 672 671 311 312 673 672 312 313 674 673 313 314 675 674 314 315 676 675 315 316 677 676 316 317 678 677 317 318 679 678 318 319 680 679 319 320 681 680 320 321 682 681 321 322 683 682 322 323 684 683 323 324 685 684 324 325 686 685 325 326 687 686 326 327 688 687 327 328 689 688 328 329 690 689 329 330 691 690 330 331 692 691 331 332 693 692 332 333 694 693 333 334 695 694 334 335 696 695 335 336 697 696 336 337 698 697 337 338 699 698 338 339 700 699 339 3 8 700 3 340 701 8 340 341 702 701 341 342 703 702 342 343 704 703 343 344 705 704 344 345 706 705 345 346 707 706 346 347 708 707 347 348 709 708 348 349 710 709 349 350 711 710 350 351 712 711 351 352 713 712 352 353 714 713 353 354 715 714 354 355 716 715 355 356 717 716 356 357 718 717 357 358 719 718 358 359 720 719 359 360 721 720 360 361 722 721 361 362 723 722 362 363 724 723 363 364 725 724 364 365 726 725 365 366 727 726 366 367 728 727 367 368 729 728 368 369 730 729 369 370 731 730 370 4 9 731 0 10 10 11 11 12 12 13 13 14 14 15 15 16 16 17 17 18 18 19 19 20 20 21 21 22 22 23 23 24 24 25 25 26 26 27 27 28 28 29 29 30 30 31 31 32 32 33 33 34 34 35 35 36 36 37 37 38 38 39 39 40 40 41 41 42 42 43 43 44 44 45 45 46 46 47 47 48 48 49 49 50 50 51 51 52 52 53 53 54 54 55 55 56 56 57 57 58 58 59 59 60 60 61 61 62 62 63 63 64 64 65 65 66 66 67 67 68 68 69 69 70 70 71 71 72 72 73 73 74 74 75 75 76 76 77 77 78 78 79 79 80 80 81 81 82 82 83 83 84 84 85 85 86 86 87 87 88 88 89 89 90 90 91 91 92 92 93 93 94 94 95 95 96 96 97 97 98 98 99 99 100 100 101 101 102 102 103 103 104 104 105 105 106 106 107 107 108 108 109 109 110 110 111 111 112 112 113 113 114 114 115 115 116 116 117 117 118 118 119 119 120 120 121 121 122 122 123 123 124 124 125 125 126 126 127 127 128 128 129 129 130 130 131 131 132 132 133 133 134 134 135 135 136 136 137 137 138 138 139 139 140 140 141 141 142 142 143 143 144 144 145 145 146 146 147 147 148 148 149 149 150 150 151 151 152 152 153 153 154 154 155 155 156 156 157 157 158 158 159 159 160 160 161 161 162 162 163 163 164 164 165 165 166 166 167 167 168 168 169 169 170 170 171 171 172 172 173 173 174 174 175 175 176 176 177 177 178 178 179 179 180 180 181 181 182 182 183 183 184 184 185 185 186 186 187 187 188 188 189 189 190 190 191 191 192 192 193 193 194 194 195 195 196 196 197 197 198 198 199 199 200 200 201 201 202 202 1 1 203 203 204 204 205 205 206 206 207 207 208 208 209 209 210 210 211 211 212 212 213 213 214 214 215 215 216 216 217 217 218 218 219 219 220 220 221 221 222 222 223 223 224 224 225 225 226 226 227 227 228 228 229 229 230 230 231 231 232 232 233 233 234 234 235 235 236 236 237 237 238 238 239 239 240 240 241 241 242 242 243 243 244 244 245 245 246 246 247 247 248 248 249 249 250 250 251 251 252 252 253 253 254 254 255 255 256 256 257 257 258 258 259 259 260 260 261 261 262 262 263 263 264 264 265 265 266 266 267 267 268 268 269 269 270 270 271 271 272 272 273 273 274 274 275 275 276 276 277 277 278 278 279 279 280 280 281 281 282 282 283 283 2 2 284 284 285 285 286 286 287 287 288 288 289 289 290 290 291 291 292 292 293 293 294 294 295 295 296 296 297 297 298 298 299 299 300 300 301 301 302 302 303 303 304 304 305 305 306 306 307 307 308 308 309 309 310 310 311 311 312 312 313 313 314 314 315 315 316 316 317 317 318 318 319 319 320 320 321 321 322 322 323 323 324 324 325 325 326 326 327 327 328 328 329 329 330 330 331 331 332 332 333 333 334 334 335 335 336 336 337 337 338 338 339 339 3 3 340 340 341 341 342 342 343 343 344 344 345 345 346 346 347 347 348 348 349 349 350 350 351 351 352 352 353 353 354 354 355 355 356 356 357 357 358 358 359 359 360 360 361 361 362 362 363 363 364 364 365 365 366 366 367 367 368 368 369 369 370 370 4 5 371 371 372 372 373 373 374 374 375 375 376 376 377 377 378 378 379 379 380 380 381 381 382 382 383 383 384 384 385 385 386 386 387 387 388 388 389 389 390 390 391 391 392 392 393 393 394 394 395 395 396 396 397 397 398 398 399 399 400 400 401 401 402 402 403 403 404 404 405 405 406 406 407 407 408 408 409 409 410 410 411 411 412 412 413 413 414 414 415 415 416 416 417 417 418 418 419 419 420 420 421 421 422 422 423 423 424 424 425 425 426 426 427 427 428 428 429 429 430 430 431 431 432 432 433 433 434 434 435 435 436 436 437 437 438 438 439 439 440 440 441 441 442 442 443 443 444 444 445 445 446 446 447 447 448 448 449 449 450 450 451 451 452 452 453 453 454 454 455 455 456 456 457 457 458 458 459 459 460 460 461 461 462 462 463 463 464 464 465 465 466 466 467 467 468 468 469 469 470 470 471 471 472 472 473 473 474 474 475 475 476 476 477 477 478 478 479 479 480 480 481 481 482 482 483 483 484 484 485 485 486 486 487 487 488 488 489 489 490 490 491 491 492 492 493 493 494 494 495 495 496 496 497 497 498 498 499 499 500 500 501 501 502 502 503 503 504 504 505 505 506 506 507 507 508 508 509 509 510 510 511 511 512 512 513 513 514 514 515 515 516 516 517 517 518 518 519 519 520 520 521 521 522 522 523 523 524 524 525 525 526 526 527 527 528 528 529 529 530 530 531 531 532 532 533 533 534 534 535 535 536 536 537 537 538 538 539 539 540 540 541 541 542 542 543 543 544 544 545 545 546 546 547 547 548 548 549 549 550 550 551 551 552 552 553 553 554 554 555 555 556 556 557 557 558 558 559 559 560 560 561 561 562 562 563 563 6 0 5 6 564 564 565 565 566 566 567 567 568 568 569 569 570 570 571 571 572 572 573 573 574 574 575 575 576 576 577 577 578 578 579 579 580 580 581 581 582 582 583 583 584 584 585 585 586 586 587 587 588 588 589 589 590 590 591 591 592 592 593 593 594 594 595 595 596 596 597 597 598 598 599 599 600 600 601 601 602 602 603 603 604 604 605 605 606 606 607 607 608 608 609 609 610 610 611 611 612 612 613 613 614 614 615 615 616 616 617 617 618 618 619 619 620 620 621 621 622 622 623 623 624 624 625 625 626 626 627 627 628 628 629 629 630 630 631 631 632 632 633 633 634 634 635 635 636 636 637 637 638 638 639 639 640 640 641 641 642 642 643 643 644 644 7 7 645 645 646 646 647 647 648 648 649 649 650 650 651 651 652 652 653 653 654 654 655 655 656 656 657 657 658 658 659 659 660 660 661 661 662 662 663 663 664 664 665 665 666 666 667 667 668 668 669 669 670 670 671 671 672 672 673 673 674 674 675 675 676 676 677 677 678 678 679 679 680 680 681 681 682 682 683 683 684 684 685 685 686 686 687 687 688 688 689 689 690 690 691 691 692 692 693 693 694 694 695 695 696 696 697 697 698 698 699 699 700 700 8 8 701 701 702 702 703 703 704 704 705 705 706 706 707 707 708 708 709 709 710 710 711 711 712 712 713 713 714 714 715 715 716 716 717 717 718 718 719 719 720 720 721 721 722 722 723 723 724 724 725 725 726 726 727 727 728 728 729 729 730 730 731 731 9 4 9 
        </DataArray>
        <DataArray type="Int32" Name="offsets" NumberOfComponents="1" format="ascii">
4 8 12 16 20 24 28 32 36 40 44 48 52 56 60 64 68 72 76 80 84 88 92 96 100 104 108 112 116 120 124 128 132 136 140 144 148 152 156 160 164 168 172 176 180 184 188 192 196 200 204 208 212 216 220 224 228 232 236 240 244 248 252 256 260 264 268 272 276 280 284 288 292 296 300 304 308 312 316 320 324 328 332 336 340 344 348 352 356 360 364 368 372 376 380 384 388 392 396 400 404 408 412 416 420 424 428 432 436 440 444 448 452 456 460 464 468 472 476 480 484 488 492 496 500 504 508 512 516 520 524 528 532 536 540 544 548 552 556 560 564 568 572 576 580 584 588 592 596 600 604 608 612 616 620 624 628 632 636 640 644 648 652 656 660 664 668 672 676 680 684 688 692 696 700 704 708 712 716 720 724 728 732 736 740 744 748 752 756 760 764 768 772 776 780 784 788 792 796 800 804 808 812 816 820 824 828 832 836 840 844 848 852 856 860 864 868 872 876 880 884 888 892 896 900 904 908 912 916 920 924 928 932 936 940 944 948 952 956 960 964 968 972 976 980 984 988 992 996 1000 1004 1008 1012 1016 1020 1024 1028 1032 1036 1040 1044 1048 1052 1056 1060 1064 1068 1072 1076 1080 1084 1088 1092 1096 1100 1104 1108 1112 1116 1120 1124 1128 1132 1136 1140 1144 1148 1152 1156 1160 1164 1168 1172 1176 1180 1184 1188 1192 1196 1200 1204 1208 1212 1216 1220 1224 1228 1232 1236 1240 1244 1248 1252 1256 1260 1264 1268 1272 1276 1280 1284 1288 1292 1296 1300 1304 1308 1312 1316 1320 1324 1328 1332 1336 1340 1344 1348 1352 1356 1360 1364 1368 1372 1376 1380 1384 1388 1392 1396 1400 1404 1408 1412 1416 1420 1424 1428 1432 1436 1440 1444 1448 1452 1456 1460 1462 1464 1466 1468 1470 1472 1474 1476 1478 1480 1482 1484 1486 1488 1490 1492 1494 1496 1498 1500 1502 1504 1506 1508 1510 1512 1514 1516 1518 1520 1522 1524 1526 1528 1530 1532 1534 1536 1538 1540 1542 1544 1546 1548 1550 1552 1554 1556 1558 1560 1562 1564 1566 1568 1570 1572 1574 1576 1578 1580 1582 1584 1586 1588 1590 1592 1594 1596 1598 1600 1602 1604 1606 1608 1610 1612 1614 1616 1618 1620 1622 1624 1626 1628 1630 1632 1634 1636 1638 1640 1642 1644 1646 1648 1650 1652 1654 1656 1658 1660 1662 1664 1666 1668 1670 1672 1674 1676 1678 1680 1682 1684 1686 1688 1690 1692 1694 1696 1698 1700 1702 1704 1706 1708 1710 1712 1714 1716 1718 1720 1722 1724 1726 1728 1730 1732 1734 1736 1738 1740 1742 1744 1746 1748 1750 1752 1754 1756 1758 1760 1762 1764 1766 1768 1770 1772 1774 1776 1778 1780 1782 1784 1786 1788 1790 1792 1794 1796 1798 1800 1802 1804 1806 1808 1810 1812 1814 1816 1818 1820 1822 1824 1826 1828 1830 1832 1834 1836 1838 1840 1842 1844 1846 1848 1850 1852 1854 1856 1858 1860 1862 1864 1866 1868 1870 1872 1874 1876 1878 1880 1882 1884 1886 1888 1890 1892 1894 1896 1898 1900 1902 1904 1906 1908 1910 1912 1914 1916 1918 1920 1922 1924 1926 1928 1930 1932 1934 1936 1938 1940 1942 1944 1946 1948 1950 1952 1954 1956 1958 1960 1962 1964 1966 1968 1970 1972 1974 1976 1978 1980 1982 1984 1986 1988 1990 1992 1994 1996 1998 2000 2002 2004 2006 2008 2010 2012 2014 2016 2018 2020 2022 2024 2026 2028 2030 2032 2034 2036 2038 2040 2042 2044 2046 2048 2050 2052 2054 2056 2058 2060 2062 2064 2066 2068 2070 2072 2074 2076 2078 2080 2082 2084 2086 2088 2090 2092 2094 2096 2098 2100 2102 2104 2106 2108 2110 2112 2114 2116 2118 2120 2122 2124 2126 2128 2130 2132 2134 2136 2138 2140 2142 2144 2146 2148 2150 2152 2154 2156 2158 2160 2162 2164 2166 2168 2170 2172 2174 2176 2178 2180 2182 2184 2186 2188 2190 2192 2194 2196 2198 2200 2202 2204 2206 2208 2210 2212 2214 2216 2218 2220 2222 2224 2226 2228 2230 2232 2234 2236 2238 2240 2242 2244 2246 2248 2250 2252 2254 2256 2258 2260 2262 2264 2266 2268 2270 2272 2274 2276 2278 2280 2282 2284 2286 2288 2290 2292 2294 2296 2298 2300 2302 2304 2306 2308 2310 2312 2314 2316 2318 2320 2322 2324 2326 2328 2330 2332 2334 2336 2338 2340 2342 2344 2346 2348 2350 2352 2354 2356 2358 2360 2362 2364 2366 2368 2370 2372 2374 2376 2378 2380 2382 2384 2386 2388 2390 2392 2394 2396 2398 2400 2402 2404 2406 2408 2410 2412 2414 2416 2418 2420 2422 2424 2426 2428 2430 2432 2434 2436 2438 2440 2442 2444 2446 2448 2450 2452 2454 2456 2458 2460 2462 2464 2466 2468 2470 2472 2474 2476 2478 2480 2482 2484 2486 2488 2490 2492 2494 2496 2498 2500 2502 2504 2506 2508 2510 2512 2514 2516 2518 2520 2522 2524 2526 2528 2530 2532 2534 2536 2538 2540 2542 2544 2546 2548 2550 2552 2554 2556 2558 2560 2562 2564 2566 2568 2570 2572 2574 2576 2578 2580 2582 2584 2586 2588 2590 2592 2594 2596 2598 2600 2602 2604 2606 2608 2610 2612 2614 2616 2618 2620 2622 2624 2626 2628 2630 2632 2634 2636 2638 2640 2642 2644 2646 2648 2650 2652 2654 2656 2658 2660 2662 2664 2666 2668 2670 2672 2674 2676 2678 2680 2682 2684 2686 2688 2690 2692 2694 2696 2698 2700 2702 2704 2706 2708 2710 2712 2714 2716 2718 2720 2722 2724 2726 2728 2730 2732 2734 2736 2738 2740 2742 2744 2746 2748 2750 2752 2754 2756 2758 2760 2762 2764 2766 2768 2770 2772 2774 2776 2778 2780 2782 2784 2786 2788 2790 2792 2794 2796 2798 2800 2802 2804 2806 2808 2810 2812 2814 2816 2818 2820 2822 2824 2826 2828 2830 2832 2834 2836 2838 2840 2842 2844 2846 2848 2850 2852 2854 2856 2858 2860 2862 2864 2866 2868 2870 2872 2874 2876 2878 2880 2882 2884 2886 2888 2890 2892 2894 2896 2898 2900 2902 2904 2906 2908 2910 2912 2914 2916 2918 2920 2922 2924 
        </DataArray>
        <DataArray type="Int32" Name="types" NumberOfComponents="1" format="ascii">
9 9 9 9 9 9 9 9 9 9 9 9 9 9 9 9 9 9 9 9 9 9 9 9 9 9 9 9 9 9 9 9 9 9 9 9 9 9 9 9 9 9 9 9 9 9 9 9 9 9 9 9 9 9 9 9 9 9 9 9 9 9 9 9 9 9 9 9 9 9 9 9 9 9 9 9 9 9 9 9 9 9 9 9 9 9 9 9 9 9 9 9 9 9 9 9 9 9 9 9 9 9 9 9 9 9 9 9 9 9 9 9 9 9 9 9 9 9 9 9 9 9 9 9 9 9 9 9 9 9 9 9 9 9 9 9 9 9 9 9 9 9 9 9 9 9 9 9 9 9 9 9 9 9 9 9 9 9 9 9 9 9 9 9 9 9 9 9 9 9 9 9 9 9 9 9 9 9 9 9 9 9 9 9 9 9 9 9 9 9 9 9 9 9 9 9 9 9 9 9 9 9 9 9 9 9 9 9 9 9 9 9 9 9 9 9 9 9 9 9 9 9 9 9 9 9 9 9 9 9 9 9 9 9 9 9 9 9 9 9 9 9 9 9 9 9 9 9 9 9 9 9 9 9 9 9 9 9 9 9 9 9 9 9 9 9 9 9 9 9 9 9 9 9 9 9 9 9 9 9 9 9 9 9 9 9 9 9 9 9 9 9 9 9 9 9 9 9 9 9 9 9 9 9 9 9 9 9 9 9 9 9 9 9 9 9 9 9 9 9 9 9 9 9 9 9 9 9 9 9 9 9 9 9 9 9 9 9 9 9 9 9 9 9 9 9 9 9 9 9 9 9 9 9 9 9 9 9 9 9 9 9 9 9 9 3 3 3 3 3 3 3 3 3 3 3 3 3 3 3 3 3 3 3 3 3 3 3 3 3 3 3 3 3 3 3 3 3 3 3 3 3 3 3 3 3 3 3 3 3 3 3 3 3 3 3 3 3 3 3 3 3 3 3 3 3 3 3 3 3 3 3 3 3 3 3 3 3 3 3 3 3 3 3 3 3 3 3 3 3 3 3 3 3 3 3 3 3 3 3 3 3 3 3 3 3 3 3 3 3 3 3 3 3 3 3 3 3 3 3 3 3 3 3 3 3 3 3 3 3 3 3 3 3 3 3 3 3 3 3 3 3 3 3 3 3 3 3 3 3 3 3 3 3 3 3 3 3 3 3 3 3 3 3 3 3 3 3 3 3 3 3 3 3 3 3 3 3 3 3 3 3 3 3 3 3 3 3 3 3 3 3 3 3 3 3 3 3 3 3 3 3 3 3 3 3 3 3 3 3 3 3 3 3 3 3 3 3 3 3 3 3 3 3 3 3 3 3 3 3 3 3 3 3 3 3 3 3 3 3 3 3 3 3 3 3 3 3 3 3 3 3 3 3 3 3 3 3 3 3 3 3 3 3 3 3 3 3 3 3 3 3 3 3 3 3 3 3 3 3 3 3 3 3 3 3 3 3 3 3 3 3 3 3 3 3 3 3 3 3 3 3 3 3 3 3 3 3 3 3 3 3 3 3 3 3 3 3 3 3 3 3 3 3 3 3 3 3 3 3 3 3 3 3 3 3 3 3 3 3 3 3 3 3 3 3 3 3 3 3 3 3 3 3 3 3 3 3 3 3 3 3 3 3 3 3 3 3 3 3 3 3 3 3 3 3 3 3 3 3 3 3 3 3 3 3 3 3 3 3 3 3 3 3 3 3 3 3 3 3 3 3 3 3 3 3 3 3 3 3 3 3 3 3 3 3 3 3 3 3 3 3 3 3 3 3 3 3 3 3 3 3 3 3 3 3 3 3 3 3 3 3 3 3 3 3 3 3 3 3 3 3 3 3 3 3 3 3 3 3 3 3 3 3 3 3 3 3 3 3 3 3 3 3 3 3 3 3 3 3 3 3 3 3 3 3 3 3 3 3 3 3 3 3 3 3 3 3 3 3 3 3 3 3 3 3 3 3 3 3 3 3 3 3 3 3 3 3 3 3 3 3 3 3 3 3 3 3 3 3 3 3 3 3 3 3 3 3 3 3 3 3 3 3 3 3 3 3 3 3 3 3 3 3 3 3 3 3 3 3 3 3 3 3 3 3 3 3 3 3 3 3 3 3 3 3 3 3 3 3 3 3 3 3 3 3 3 3 3 3 3 3 3 3 3 3 3 3 3 3 3 3 3 3 3 3 3 3 3 3 3 3 3 3 3 3 3 3 3 3 3 3 3 3 3 3 3 3 3 3 3 3 3 3 3 3 3 3 3 3 3 3 3 3 3 3 3 3 3 3 3 3 3 3 3 3 3 3 3 3 3 3 3 3 3 3 3 3 3 3 3 3 3 3 3 3 3 3 3 3 3 3 3 3 3 3 3 3 3 3 3 3 3 3 3 3 3 3 3 3 3 3 3 3 3 3 3 3 3 3 3 3 3 3 3 3 3 3 3 3 3 3 3 3 3 3 3 3 3 3 3 3 3 3 3 3 3 
        </DataArray>
      </Cells>
    </Piece>
  </UnstructuredGrid>
</VTKFile>
