$MeshFormat
4.1 0 8
$EndMeshFormat
$Entities
10 13 4 0
1 0 0 0 0 
2 612114.9301699607 0 0 0 
3 652922.5921812914 0 0 0 
4 693730.2541926221 0 0 0 
5 816153.2402266143 0 0 0 
6 0 1000 0 0 
7 612114.9301699607 1000 0 0 
9 652922.5921812914 1000 0 0 
11 693730.2541926221 1000 0 0 
13 816153.2402266143 1000 0 0 
1 0 0 0 612114.9301699607 0 0 1 24 2 1 -2 
2 612114.9301699607 0 0 652922.5921812914 0 0 1 24 2 2 -3 
3 652922.5921812914 0 0 693730.2541926221 0 0 1 24 2 3 -4 
4 693730.2541926221 0 0 816153.2402266143 0 0 1 24 2 4 -5 
5 0 1000 0 612114.9301699607 1000 0 1 25 2 6 -7 
6 0 0 0 0 1000 0 1 22 2 1 -6 
7 612114.9301699607 0 0 612114.9301699607 1000 0 0 2 2 -7 
9 612114.9301699607 1000 0 652922.5921812914 1000 0 1 25 2 7 -9 
11 652922.5921812914 0 0 652922.5921812914 1000 0 0 2 3 -9 
13 652922.5921812914 1000 0 693730.2541926221 1000 0 1 25 2 9 -11 
15 693730.2541926221 0 0 693730.2541926221 1000 0 0 2 4 -11 
17 693730.2541926221 1000 0 816153.2402266143 1000 0 1 25 2 11 -13 
19 816153.2402266143 0 0 816153.2402266143 1000 0 1 23 2 5 -13 
8 0 0 0 612114.9301699607 1000 0 1 21 4 1 7 -5 -6 
12 612114.9301699607 0 0 652922.5921812914 1000 0 1 21 4 2 11 -9 -7 
16 652922.5921812914 0 0 693730.2541926221 1000 0 1 21 4 3 15 -13 -11 
20 693730.2541926221 0 0 816153.2402266143 1000 0 1 21 4 4 19 -17 -15 
$EndEntities
$Nodes
24 732 1 732
0 1 0 1
1
0 0 0
0 2 0 1
2
612114.9301699607 0 0
0 3 0 1
3
652922.5921812914 0 0
0 4 0 1
4
693730.2541926221 0 0
0 5 0 1
5
816153.2402266143 0 0
0 6 0 1
6
0 1000 0
0 7 0 1
7
612114.9301699607 1000 0
0 9 0 1
8
652922.5921812914 1000 0
0 11 0 1
9
693730.2541926221 1000 0
0 13 0 1
10
816153.2402266143 1000 0
1 1 0 193
11
12
13
14
15
16
17
18
19
20
21
22
23
24
25
26
27
28
29
30
31
32
33
34
35
36
37
38
39
40
41
42
43
44
45
46
47
48
49
50
51
52
53
54
55
56
57
58
59
60
61
62
63
64
65
66
67
68
69
70
71
72
73
74
75
76
77
78
79
80
81
82
83
84
85
86
87
88
89
90
91
92
93
94
95
96
97
98
99
100
101
102
103
104
105
106
107
108
109
110
111
112
113
114
115
116
117
118
119
120
121
122
123
124
125
126
127
128
129
130
131
132
133
134
135
136
137
138
139
140
141
142
143
144
145
146
147
148
149
150
151
152
153
154
155
156
157
158
159
160
161
162
163
164
165
166
167
168
169
170
171
172
173
174
175
176
177
178
179
180
181
182
183
184
185
186
187
188
189
190
191
192
193
194
195
196
197
198
199
200
201
202
203
9873.286286282448 0 0
19595.28148075868 0 0
29168.30362342054 0 0
38594.63535698095 0 0
47876.52800963977 0 0
57016.18953330039 0 0
66015.79962498651 0 0
74877.50769584095 0 0
83603.42420903519 0 0
92195.63093790147 0 0
100656.1768778845 0 0
108987.0783057476 0 0
117190.3236500633 0 0
125267.86803778 0 0
133221.6387977601 0 0
141053.5299109925 0 0
148765.4120242278 0 0
156359.1207530031 0 0
163836.4699236017 0 0
171199.2418100143 0 0
178449.1911252943 0 0
185588.0471934747 0 0
192617.5128261307 0 0
199539.2629276523 0 0
206354.9497348413 0 0
213066.1973457173 0 0
219674.6078585624 0 0
226181.754859769 0 0
232589.1894201661 0 0
238898.4421114348 0 0
245111.0156405768 0 0
251228.392857579 0 0
257252.0314653984 0 0
263183.367623993 0 0
269023.815801295 0 0
274774.769576341 0 0
280437.6005397481 0 0
286013.6567816886 0 0
291504.2700559455 0 0
296910.7484222261 0 0
302234.3830233777 0 0
307476.4421855828 0 0
312638.1741831708 0 0
317720.811693277 0 0
322725.5667036129 0 0
327653.6325605476 0 0
332506.1837156007 0 0
337284.3774133814 0 0
341989.3535656931 0 0
346622.2347514907 0 0
351184.1245201519 0 0
355676.1109614044 0 0
360099.2648946386 0 0
364454.6423277736 0 0
368743.2804112886 0 0
372966.2025803549 0 0
377124.4154105081 0 0
381218.9108052499 0 0
385250.6649192358 0 0
389220.6398237383 0 0
393129.7805638438 0 0
396979.0209238883 0 0
400769.2786532128 0 0
404501.4567876653 0 0
408176.4449114317 0 0
411795.1208389896 0 0
415358.3462387227 0 0
418866.9714940439 0 0
422321.8336879499 0 0
425723.7554299455 0 0
429073.547738168 0 0
432372.0114104077 0 0
435619.9309481791 0 0
438818.0812748911 0 0
441967.2261800064 0 0
445068.1154971046 0 0
448121.4886498663 0 0
451128.0751948225 0 0
454088.5894325355 0 0
457003.7393627684 0 0
459874.2200259826 0 0
462700.7146380058 0 0
465483.8984263796 0 0
468224.4343957786 0 0
470922.9769087199 0 0
473580.1688450437 0 0
476196.6435718477 0 0
478773.0249809665 0 0
481309.9275395302 0 0
483807.956354536 0 0
486267.7072524368 0 0
488689.7668747738 0 0
491074.7127909383 0 0
493423.1136291968 0 0
495735.5289818276 0 0
498012.5101864621 0 0
500254.6006287498 0 0
502462.334943916 0 0
504636.2390889822 0 0
506776.8323962355 0 0
508884.6242753211 0 0
510960.1180954205 0 0
513003.8081692393 0 0
515016.1825896149 0 0
516997.7204914874 0 0
518948.8946027029 0 0
520870.1704289521 0 0
522762.0060359413 0 0
524624.8523404545 0 0
526459.1537725066 0 0
528265.3476389077 0 0
530043.8645890899 0 0
531795.1288940598 0 0
533519.5579197352 0 0
535217.563034625 0 0
536889.5495177164 0 0
538535.9150637893 0 0
540157.0531085053 0 0
541753.3496174577 0 0
543325.18582698 0 0
544872.9363663184 0 0
546396.9705710232 0 0
547897.6509002657 0 0
549375.3360817658 0 0
550830.3783645441 0 0
552263.1248963164 0 0
553673.9162057189 0 0
555063.0902504339 0 0
556430.9773227939 0 0
557777.9036692533 0 0
559104.1907950569 0 0
560410.1549435719 0 0
561696.1074196782 0 0
562962.3544021773 0 0
564209.1984813377 0 0
565436.937095103 0 0
566645.8627526093 0 0
567836.2630826836 0 0
569008.4228678774 0 0
570162.621758613 0 0
571299.1342036582 0 0
572418.2313910198 0 0
573520.1803312474 0 0
574605.2438390895 0 0
575673.6803971358 0 0
576725.7452289858 0 0
577761.6888572718 0 0
578781.7582994661 0 0
579786.1969602851 0 0
580775.2443055279 0 0
581749.1362987447 0 0
582708.1048505101 0 0
583652.3789533767 0 0
584582.1836840505 0 0
585497.740683198 0 0
586399.2683299391 0 0
587286.9816162367 0 0
588161.092124922 0 0
589021.8084208553 0 0
589869.3357462311 0 0
590703.8760892642 0 0
591525.6285387167 0 0
592334.7890749648 0 0
593131.5504989824 0 0
593916.1029583841 0 0
594688.6335325165 0 0
595449.3263191081 0 0
596198.3629011692 0 0
596935.9216425887 0 0
597662.1784605172 0 0
598377.3068120958 0 0
599081.476863745 0 0
599774.8568815996 0 0
600457.6120108283 0 0
601129.9049895634 0 0
601791.8961516677 0 0
602443.7434323138 0 0
603085.6023765965 0 0
603717.6260306918 0 0
604339.9646323527 0 0
604952.767257142 0 0
605556.1796008447 0 0
606150.3456077302 0 0
606735.407341875 0 0
607311.503750182 0 0
607878.7725336096 0 0
608437.348784907 0 0
608987.3658653068 0 0
609528.9548584684 0 0
610062.2448979599 0 0
610587.3632402547 0 0
611104.4349360983 0 0
611613.5834340231 0 0
1 2 0 81
204
205
206
207
208
209
210
211
212
213
214
215
216
217
218
219
220
221
222
223
224
225
226
227
228
229
230
231
232
233
234
235
236
237
238
239
240
241
242
243
244
245
246
247
248
249
250
251
252
253
254
255
256
257
258
259
260
261
262
263
264
265
266
267
268
269
270
271
272
273
274
275
276
277
278
279
280
281
282
283
284
612612.5845847258 0 0
613110.2389994938 0 0
613607.893414256 0 0
614105.5478290267 0 0
614603.2022438046 0 0
615100.8566585742 0 0
615598.5110733376 0 0
616096.1654881043 0 0
616593.8199028706 0 0
617091.4743176346 0 0
617589.1287324036 0 0
618086.7831471815 0 0
618584.4375619821 0 0
619082.09197676 0 0
619579.7463915284 0 0
620077.400806293 0 0
620575.0552210587 0 0
621072.7096358259 0 0
621570.3640505889 0 0
622068.018465359 0 0
622565.6728801369 0 0
623063.327294907 0 0
623560.9817096698 0 0
624058.6361244372 0 0
624556.2905392029 0 0
625053.9449539675 0 0
625551.5993687359 0 0
626049.2537835138 0 0
626546.9081983144 0 0
627044.5626130922 0 0
627542.2170278613 0 0
628039.8714426252 0 0
628537.5258573914 0 0
629035.1802721582 0 0
629532.8346869217 0 0
630030.4891016913 0 0
630528.1435164692 0 0
631025.7979312697 0 0
631523.4523460476 0 0
632021.1067608155 0 0
632518.7611755806 0 0
633016.4155903457 0 0
633514.0700051136 0 0
634011.7244198915 0 0
634509.3788346921 0 0
635007.0332494699 0 0
635504.6876642396 0 0
636002.342079003 0 0
636499.9964937697 0 0
636997.6509085359 0 0
637495.3053233 0 0
637992.959738069 0 0
638490.6141528469 0 0
638988.2685676474 0 0
639485.9229824253 0 0
639983.5773971938 0 0
640481.2318119584 0 0
640978.886226724 0 0
641476.5406414913 0 0
641974.1950562543 0 0
642471.8494710244 0 0
642969.5038858022 0 0
643467.1583006028 0 0
643964.8127153807 0 0
644462.4671301481 0 0
644960.1215449137 0 0
645457.7759596782 0 0
645955.4303744467 0 0
646453.0847892246 0 0
646950.7392040251 0 0
647448.393618803 0 0
647946.048033572 0 0
648443.7024483361 0 0
648941.3568631023 0 0
649439.0112778691 0 0
649936.665692647 0 0
650434.3201074476 0 0
650931.9745222254 0 0
651429.6289369961 0 0
651927.2833517584 0 0
652424.9377665264 0 0
1 3 0 56
285
286
287
288
289
290
291
292
293
294
295
296
297
298
299
300
301
302
303
304
305
306
307
308
309
310
311
312
313
314
315
316
317
318
319
320
321
322
323
324
325
326
327
328
329
330
331
332
333
334
335
336
337
338
339
340
653421.8623934656 0 0
653927.2409935734 0 0
654438.8027494001 0 0
654956.6233088783 0 0
655480.7793971373 0 0
656011.3480762506 0 0
656548.4083198798 0 0
657092.0395145798 0 0
657642.3216085756 0 0
658199.3363464706 0 0
658763.1659127224 0 0
659333.8938978557 0 0
659911.6045049598 0 0
660496.3831486992 0 0
661088.3165562892 0 0
661687.4919727505 0 0
662293.9982346499 0 0
662907.9248416371 0 0
663529.3627416132 0 0
664158.4036652877 0 0
664795.1408207414 0 0
665439.6682542913 0 0
666092.0811690603 0 0
666752.4762934316 0 0
667420.951206198 0 0
668097.6046236792 0 0
668782.5366940823 0 0
669475.848917643 0 0
670177.6432964315 0 0
670888.0242204127 0 0
671607.0963826508 0 0
672334.9661443945 0 0
673071.7411786171 0 0
673817.5304185794 0 0
674572.4440948218 0 0
675336.5941344508 0 0
676110.093288544 0 0
676893.0557547038 0 0
677685.5979133369 0 0
678487.8362741758 0 0
679299.890068522 0 0
680121.8788508585 0 0
680953.9246775985 0 0
681796.1501387279 0 0
682648.6801441194 0 0
683511.6405542786 0 0
684385.1588829958 0 0
685269.364738381 0 0
686164.3885107607 0 0
687070.3626115036 0 0
687987.4210402385 0 0
688915.6993856925 0 0
689855.3349064849 0 0
690806.4668076651 0 0
691769.2353451406 0 0
692743.7830771424 0 0
1 4 0 31
341
342
343
344
345
346
347
348
349
350
351
352
353
354
355
356
357
358
359
360
361
362
363
364
365
366
367
368
369
370
371
694745.111320384 0 0
695835.6846182279 0 0
697007.6231859509 0 0
698266.9977121414 0 0
699620.331358703 0 0
701074.6340333872 0 0
702637.4392165055 0 0
704316.8420597005 0 0
706121.541457816 0 0
708060.8853535 0 0
710144.9196884572 0 0
712384.4393125365 0 0
714791.0445472675 0 0
717377.2018503803 0 0
720156.3061166574 0 0
723142.7531475981 0 0
726352.0126731925 0 0
729800.7085055769 0 0
733506.7037237975 0 0
737489.1950180341 0 0
741768.81177803 0 0
746367.7211208444 0 0
751309.7449724551 0 0
756620.4834371766 0 0
762327.4434833043 0 0
768460.1882745631 0 0
775050.4830009858 0 0
782132.4656961079 0 0
789742.8197865598 0 0
797920.9648685441 0 0
806709.2646281398 0 0
1 5 0 193
372
373
374
375
376
377
378
379
380
381
382
383
384
385
386
387
388
389
390
391
392
393
394
395
396
397
398
399
400
401
402
403
404
405
406
407
408
409
410
411
412
413
414
415
416
417
418
419
420
421
422
423
424
425
426
427
428
429
430
431
432
433
434
435
436
437
438
439
440
441
442
443
444
445
446
447
448
449
450
451
452
453
454
455
456
457
458
459
460
461
462
463
464
465
466
467
468
469
470
471
472
473
474
475
476
477
478
479
480
481
482
483
484
485
486
487
488
489
490
491
492
493
494
495
496
497
498
499
500
501
502
503
504
505
506
507
508
509
510
511
512
513
514
515
516
517
518
519
520
521
522
523
524
525
526
527
528
529
530
531
532
533
534
535
536
537
538
539
540
541
542
543
544
545
546
547
548
549
550
551
552
553
554
555
556
557
558
559
560
561
562
563
564
9873.286286282448 1000 0
19595.28148075868 1000 0
29168.30362342054 1000 0
38594.63535698095 1000 0
47876.52800963977 1000 0
57016.18953330039 1000 0
66015.79962498651 1000 0
74877.50769584095 1000 0
83603.42420903519 1000 0
92195.63093790147 1000 0
100656.1768778845 1000 0
108987.0783057476 1000 0
117190.3236500633 1000 0
125267.86803778 1000 0
133221.6387977601 1000 0
141053.5299109925 1000 0
148765.4120242278 1000 0
156359.1207530031 1000 0
163836.4699236017 1000 0
171199.2418100143 1000 0
178449.1911252943 1000 0
185588.0471934747 1000 0
192617.5128261307 1000 0
199539.2629276523 1000 0
206354.9497348413 1000 0
213066.1973457173 1000 0
219674.6078585624 1000 0
226181.754859769 1000 0
232589.1894201661 1000 0
238898.4421114348 1000 0
245111.0156405768 1000 0
251228.392857579 1000 0
257252.0314653984 1000 0
263183.367623993 1000 0
269023.815801295 1000 0
274774.769576341 1000 0
280437.6005397481 1000 0
286013.6567816886 1000 0
291504.2700559455 1000 0
296910.7484222261 1000 0
302234.3830233777 1000 0
307476.4421855828 1000 0
312638.1741831708 1000 0
317720.811693277 1000 0
322725.5667036129 1000 0
327653.6325605476 1000 0
332506.1837156007 1000 0
337284.3774133814 1000 0
341989.3535656931 1000 0
346622.2347514907 1000 0
351184.1245201519 1000 0
355676.1109614044 1000 0
360099.2648946386 1000 0
364454.6423277736 1000 0
368743.2804112886 1000 0
372966.2025803549 1000 0
377124.4154105081 1000 0
381218.9108052499 1000 0
385250.6649192358 1000 0
389220.6398237383 1000 0
393129.7805638438 1000 0
396979.0209238883 1000 0
400769.2786532128 1000 0
404501.4567876653 1000 0
408176.4449114317 1000 0
411795.1208389896 1000 0
415358.3462387227 1000 0
418866.9714940439 1000 0
422321.8336879499 1000 0
425723.7554299455 1000 0
429073.547738168 1000 0
432372.0114104077 1000 0
435619.9309481791 1000 0
438818.0812748911 1000 0
441967.2261800064 1000 0
445068.1154971046 1000 0
448121.4886498663 1000 0
451128.0751948225 1000 0
454088.5894325355 1000 0
457003.7393627684 1000 0
459874.2200259826 1000 0
462700.7146380058 1000 0
465483.8984263796 1000 0
468224.4343957786 1000 0
470922.9769087199 1000 0
473580.1688450437 1000 0
476196.6435718477 1000 0
478773.0249809665 1000 0
481309.9275395302 1000 0
483807.956354536 1000 0
486267.7072524368 1000 0
488689.7668747738 1000 0
491074.7127909383 1000 0
493423.1136291968 1000 0
495735.5289818276 1000 0
498012.5101864621 1000 0
500254.6006287498 1000 0
502462.334943916 1000 0
504636.2390889822 1000 0
506776.8323962355 1000 0
508884.6242753211 1000 0
510960.1180954205 1000 0
513003.8081692393 1000 0
515016.1825896149 1000 0
516997.7204914874 1000 0
518948.8946027029 1000 0
520870.1704289521 1000 0
522762.0060359413 1000 0
524624.8523404545 1000 0
526459.1537725066 1000 0
528265.3476389077 1000 0
530043.8645890899 1000 0
531795.1288940598 1000 0
533519.5579197352 1000 0
535217.563034625 1000 0
536889.5495177164 1000 0
538535.9150637893 1000 0
540157.0531085053 1000 0
541753.3496174577 1000 0
543325.18582698 1000 0
544872.9363663184 1000 0
546396.9705710232 1000 0
547897.6509002657 1000 0
549375.3360817658 1000 0
550830.3783645441 1000 0
552263.1248963164 1000 0
553673.9162057189 1000 0
555063.0902504339 1000 0
556430.9773227939 1000 0
557777.9036692533 1000 0
559104.1907950569 1000 0
560410.1549435719 1000 0
561696.1074196782 1000 0
562962.3544021773 1000 0
564209.1984813377 1000 0
565436.937095103 1000 0
566645.8627526093 1000 0
567836.2630826836 1000 0
569008.4228678774 1000 0
570162.621758613 1000 0
571299.1342036582 1000 0
572418.2313910198 1000 0
573520.1803312474 1000 0
574605.2438390895 1000 0
575673.6803971358 1000 0
576725.7452289858 1000 0
577761.6888572718 1000 0
578781.7582994661 1000 0
579786.1969602851 1000 0
580775.2443055279 1000 0
581749.1362987447 1000 0
582708.1048505101 1000 0
583652.3789533767 1000 0
584582.1836840505 1000 0
585497.740683198 1000 0
586399.2683299391 1000 0
587286.9816162367 1000 0
588161.092124922 1000 0
589021.8084208553 1000 0
589869.3357462311 1000 0
590703.8760892642 1000 0
591525.6285387167 1000 0
592334.7890749648 1000 0
593131.5504989824 1000 0
593916.1029583841 1000 0
594688.6335325165 1000 0
595449.3263191081 1000 0
596198.3629011692 1000 0
596935.9216425887 1000 0
597662.1784605172 1000 0
598377.3068120958 1000 0
599081.476863745 1000 0
599774.8568815996 1000 0
600457.6120108283 1000 0
601129.9049895634 1000 0
601791.8961516677 1000 0
602443.7434323138 1000 0
603085.6023765965 1000 0
603717.6260306918 1000 0
604339.9646323527 1000 0
604952.767257142 1000 0
605556.1796008447 1000 0
606150.3456077302 1000 0
606735.407341875 1000 0
607311.503750182 1000 0
607878.7725336096 1000 0
608437.348784907 1000 0
608987.3658653068 1000 0
609528.9548584684 1000 0
610062.2448979599 1000 0
610587.3632402547 1000 0
611104.4349360983 1000 0
611613.5834340231 1000 0
1 6 0 0
1 9 0 81
565
566
567
568
569
570
571
572
573
574
575
576
577
578
579
580
581
582
583
584
585
586
587
588
589
590
591
592
593
594
595
596
597
598
599
600
601
602
603
604
605
606
607
608
609
610
611
612
613
614
615
616
617
618
619
620
621
622
623
624
625
626
627
628
629
630
631
632
633
634
635
636
637
638
639
640
641
642
643
644
645
612612.5845847258 1000 0
613110.2389994938 1000 0
613607.893414256 1000 0
614105.5478290267 1000 0
614603.2022438046 1000 0
615100.8566585742 1000 0
615598.5110733376 1000 0
616096.1654881043 1000 0
616593.8199028706 1000 0
617091.4743176346 1000 0
617589.1287324036 1000 0
618086.7831471815 1000 0
618584.4375619821 1000 0
619082.09197676 1000 0
619579.7463915284 1000 0
620077.400806293 1000 0
620575.0552210587 1000 0
621072.7096358259 1000 0
621570.3640505889 1000 0
622068.018465359 1000 0
622565.6728801369 1000 0
623063.327294907 1000 0
623560.9817096698 1000 0
624058.6361244372 1000 0
624556.2905392029 1000 0
625053.9449539675 1000 0
625551.5993687359 1000 0
626049.2537835138 1000 0
626546.9081983144 1000 0
627044.5626130922 1000 0
627542.2170278613 1000 0
628039.8714426252 1000 0
628537.5258573914 1000 0
629035.1802721582 1000 0
629532.8346869217 1000 0
630030.4891016913 1000 0
630528.1435164692 1000 0
631025.7979312697 1000 0
631523.4523460476 1000 0
632021.1067608155 1000 0
632518.7611755806 1000 0
633016.4155903457 1000 0
633514.0700051136 1000 0
634011.7244198915 1000 0
634509.3788346921 1000 0
635007.0332494699 1000 0
635504.6876642396 1000 0
636002.342079003 1000 0
636499.9964937697 1000 0
636997.6509085359 1000 0
637495.3053233 1000 0
637992.959738069 1000 0
638490.6141528469 1000 0
638988.2685676474 1000 0
639485.9229824253 1000 0
639983.5773971938 1000 0
640481.2318119584 1000 0
640978.886226724 1000 0
641476.5406414913 1000 0
641974.1950562543 1000 0
642471.8494710244 1000 0
642969.5038858022 1000 0
643467.1583006028 1000 0
643964.8127153807 1000 0
644462.4671301481 1000 0
644960.1215449137 1000 0
645457.7759596782 1000 0
645955.4303744467 1000 0
646453.0847892246 1000 0
646950.7392040251 1000 0
647448.393618803 1000 0
647946.048033572 1000 0
648443.7024483361 1000 0
648941.3568631023 1000 0
649439.0112778691 1000 0
649936.665692647 1000 0
650434.3201074476 1000 0
650931.9745222254 1000 0
651429.6289369961 1000 0
651927.2833517584 1000 0
652424.9377665264 1000 0
1 13 0 56
646
647
648
649
650
651
652
653
654
655
656
657
658
659
660
661
662
663
664
665
666
667
668
669
670
671
672
673
674
675
676
677
678
679
680
681
682
683
684
685
686
687
688
689
690
691
692
693
694
695
696
697
698
699
700
701
653421.8623934656 1000 0
653927.2409935734 1000 0
654438.8027494001 1000 0
654956.6233088783 1000 0
655480.7793971373 1000 0
656011.3480762506 1000 0
656548.4083198798 1000 0
657092.0395145798 1000 0
657642.3216085756 1000 0
658199.3363464706 1000 0
658763.1659127224 1000 0
659333.8938978557 1000 0
659911.6045049598 1000 0
660496.3831486992 1000 0
661088.3165562892 1000 0
661687.4919727505 1000 0
662293.9982346499 1000 0
662907.9248416371 1000 0
663529.3627416132 1000 0
664158.4036652877 1000 0
664795.1408207414 1000 0
665439.6682542913 1000 0
666092.0811690603 1000 0
666752.4762934316 1000 0
667420.951206198 1000 0
668097.6046236792 1000 0
668782.5366940823 1000 0
669475.848917643 1000 0
670177.6432964315 1000 0
670888.0242204127 1000 0
671607.0963826508 1000 0
672334.9661443945 1000 0
673071.7411786171 1000 0
673817.5304185794 1000 0
674572.4440948218 1000 0
675336.5941344508 1000 0
676110.093288544 1000 0
676893.0557547038 1000 0
677685.5979133369 1000 0
678487.8362741758 1000 0
679299.890068522 1000 0
680121.8788508585 1000 0
680953.9246775985 1000 0
681796.1501387279 1000 0
682648.6801441194 1000 0
683511.6405542786 1000 0
684385.1588829958 1000 0
685269.364738381 1000 0
686164.3885107607 1000 0
687070.3626115036 1000 0
687987.4210402385 1000 0
688915.6993856925 1000 0
689855.3349064849 1000 0
690806.4668076651 1000 0
691769.2353451406 1000 0
692743.7830771424 1000 0
1 17 0 31
702
703
704
705
706
707
708
709
710
711
712
713
714
715
716
717
718
719
720
721
722
723
724
725
726
727
728
729
730
731
732
694745.111320384 1000 0
695835.6846182279 1000 0
697007.6231859509 1000 0
698266.9977121414 1000 0
699620.331358703 1000 0
701074.6340333872 1000 0
702637.4392165055 1000 0
704316.8420597005 1000 0
706121.541457816 1000 0
708060.8853535 1000 0
710144.9196884572 1000 0
712384.4393125365 1000 0
714791.0445472675 1000 0
717377.2018503803 1000 0
720156.3061166574 1000 0
723142.7531475981 1000 0
726352.0126731925 1000 0
729800.7085055769 1000 0
733506.7037237975 1000 0
737489.1950180341 1000 0
741768.81177803 1000 0
746367.7211208444 1000 0
751309.7449724551 1000 0
756620.4834371766 1000 0
762327.4434833043 1000 0
768460.1882745631 1000 0
775050.4830009858 1000 0
782132.4656961079 1000 0
789742.8197865598 1000 0
797920.9648685441 1000 0
806709.2646281398 1000 0
1 19 0 0
2 8 0 0
2 12 0 0
2 16 0 0
2 20 0 0
$EndNodes
$Elements
14 1097 1 1097
1 1 1 194
1 1 11 
2 11 12 
3 12 13 
4 13 14 
5 14 15 
6 15 16 
7 16 17 
8 17 18 
9 18 19 
10 19 20 
11 20 21 
12 21 22 
13 22 23 
14 23 24 
15 24 25 
16 25 26 
17 26 27 
18 27 28 
19 28 29 
20 29 30 
21 30 31 
22 31 32 
23 32 33 
24 33 34 
25 34 35 
26 35 36 
27 36 37 
28 37 38 
29 38 39 
30 39 40 
31 40 41 
32 41 42 
33 42 43 
34 43 44 
35 44 45 
36 45 46 
37 46 47 
38 47 48 
39 48 49 
40 49 50 
41 50 51 
42 51 52 
43 52 53 
44 53 54 
45 54 55 
46 55 56 
47 56 57 
48 57 58 
49 58 59 
50 59 60 
51 60 61 
52 61 62 
53 62 63 
54 63 64 
55 64 65 
56 65 66 
57 66 67 
58 67 68 
59 68 69 
60 69 70 
61 70 71 
62 71 72 
63 72 73 
64 73 74 
65 74 75 
66 75 76 
67 76 77 
68 77 78 
69 78 79 
70 79 80 
71 80 81 
72 81 82 
73 82 83 
74 83 84 
75 84 85 
76 85 86 
77 86 87 
78 87 88 
79 88 89 
80 89 90 
81 90 91 
82 91 92 
83 92 93 
84 93 94 
85 94 95 
86 95 96 
87 96 97 
88 97 98 
89 98 99 
90 99 100 
91 100 101 
92 101 102 
93 102 103 
94 103 104 
95 104 105 
96 105 106 
97 106 107 
98 107 108 
99 108 109 
100 109 110 
101 110 111 
102 111 112 
103 112 113 
104 113 114 
105 114 115 
106 115 116 
107 116 117 
108 117 118 
109 118 119 
110 119 120 
111 120 121 
112 121 122 
113 122 123 
114 123 124 
115 124 125 
116 125 126 
117 126 127 
118 127 128 
119 128 129 
120 129 130 
121 130 131 
122 131 132 
123 132 133 
124 133 134 
125 134 135 
126 135 136 
127 136 137 
128 137 138 
129 138 139 
130 139 140 
131 140 141 
132 141 142 
133 142 143 
134 143 144 
135 144 145 
136 145 146 
137 146 147 
138 147 148 
139 148 149 
140 149 150 
141 150 151 
142 151 152 
143 152 153 
144 153 154 
145 154 155 
146 155 156 
147 156 157 
148 157 158 
149 158 159 
150 159 160 
151 160 161 
152 161 162 
153 162 163 
154 163 164 
155 164 165 
156 165 166 
157 166 167 
158 167 168 
159 168 169 
160 169 170 
161 170 171 
162 171 172 
163 172 173 
164 173 174 
165 174 175 
166 175 176 
167 176 177 
168 177 178 
169 178 179 
170 179 180 
171 180 181 
172 181 182 
173 182 183 
174 183 184 
175 184 185 
176 185 186 
177 186 187 
178 187 188 
179 188 189 
180 189 190 
181 190 191 
182 191 192 
183 192 193 
184 193 194 
185 194 195 
186 195 196 
187 196 197 
188 197 198 
189 198 199 
190 199 200 
191 200 201 
192 201 202 
193 202 203 
194 203 2 
1 2 1 82
195 2 204 
196 204 205 
197 205 206 
198 206 207 
199 207 208 
200 208 209 
201 209 210 
202 210 211 
203 211 212 
204 212 213 
205 213 214 
206 214 215 
207 215 216 
208 216 217 
209 217 218 
210 218 219 
211 219 220 
212 220 221 
213 221 222 
214 222 223 
215 223 224 
216 224 225 
217 225 226 
218 226 227 
219 227 228 
220 228 229 
221 229 230 
222 230 231 
223 231 232 
224 232 233 
225 233 234 
226 234 235 
227 235 236 
228 236 237 
229 237 238 
230 238 239 
231 239 240 
232 240 241 
233 241 242 
234 242 243 
235 243 244 
236 244 245 
237 245 246 
238 246 247 
239 247 248 
240 248 249 
241 249 250 
242 250 251 
243 251 252 
244 252 253 
245 253 254 
246 254 255 
247 255 256 
248 256 257 
249 257 258 
250 258 259 
251 259 260 
252 260 261 
253 261 262 
254 262 263 
255 263 264 
256 264 265 
257 265 266 
258 266 267 
259 267 268 
260 268 269 
261 269 270 
262 270 271 
263 271 272 
264 272 273 
265 273 274 
266 274 275 
267 275 276 
268 276 277 
269 277 278 
270 278 279 
271 279 280 
272 280 281 
273 281 282 
274 282 283 
275 283 284 
276 284 3 
1 3 1 57
277 3 285 
278 285 286 
279 286 287 
280 287 288 
281 288 289 
282 289 290 
283 290 291 
284 291 292 
285 292 293 
286 293 294 
287 294 295 
288 295 296 
289 296 297 
290 297 298 
291 298 299 
292 299 300 
293 300 301 
294 301 302 
295 302 303 
296 303 304 
297 304 305 
298 305 306 
299 306 307 
300 307 308 
301 308 309 
302 309 310 
303 310 311 
304 311 312 
305 312 313 
306 313 314 
307 314 315 
308 315 316 
309 316 317 
310 317 318 
311 318 319 
312 319 320 
313 320 321 
314 321 322 
315 322 323 
316 323 324 
317 324 325 
318 325 326 
319 326 327 
320 327 328 
321 328 329 
322 329 330 
323 330 331 
324 331 332 
325 332 333 
326 333 334 
327 334 335 
328 335 336 
329 336 337 
330 337 338 
331 338 339 
332 339 340 
333 340 4 
1 4 1 32
334 4 341 
335 341 342 
336 342 343 
337 343 344 
338 344 345 
339 345 346 
340 346 347 
341 347 348 
342 348 349 
343 349 350 
344 350 351 
345 351 352 
346 352 353 
347 353 354 
348 354 355 
349 355 356 
350 356 357 
351 357 358 
352 358 359 
353 359 360 
354 360 361 
355 361 362 
356 362 363 
357 363 364 
358 364 365 
359 365 366 
360 366 367 
361 367 368 
362 368 369 
363 369 370 
364 370 371 
365 371 5 
1 5 1 194
366 6 372 
367 372 373 
368 373 374 
369 374 375 
370 375 376 
371 376 377 
372 377 378 
373 378 379 
374 379 380 
375 380 381 
376 381 382 
377 382 383 
378 383 384 
379 384 385 
380 385 386 
381 386 387 
382 387 388 
383 388 389 
384 389 390 
385 390 391 
386 391 392 
387 392 393 
388 393 394 
389 394 395 
390 395 396 
391 396 397 
392 397 398 
393 398 399 
394 399 400 
395 400 401 
396 401 402 
397 402 403 
398 403 404 
399 404 405 
400 405 406 
401 406 407 
402 407 408 
403 408 409 
404 409 410 
405 410 411 
406 411 412 
407 412 413 
408 413 414 
409 414 415 
410 415 416 
411 416 417 
412 417 418 
413 418 419 
414 419 420 
415 420 421 
416 421 422 
417 422 423 
418 423 424 
419 424 425 
420 425 426 
421 426 427 
422 427 428 
423 428 429 
424 429 430 
425 430 431 
426 431 432 
427 432 433 
428 433 434 
429 434 435 
430 435 436 
431 436 437 
432 437 438 
433 438 439 
434 439 440 
435 440 441 
436 441 442 
437 442 443 
438 443 444 
439 444 445 
440 445 446 
441 446 447 
442 447 448 
443 448 449 
444 449 450 
445 450 451 
446 451 452 
447 452 453 
448 453 454 
449 454 455 
450 455 456 
451 456 457 
452 457 458 
453 458 459 
454 459 460 
455 460 461 
456 461 462 
457 462 463 
458 463 464 
459 464 465 
460 465 466 
461 466 467 
462 467 468 
463 468 469 
464 469 470 
465 470 471 
466 471 472 
467 472 473 
468 473 474 
469 474 475 
470 475 476 
471 476 477 
472 477 478 
473 478 479 
474 479 480 
475 480 481 
476 481 482 
477 482 483 
478 483 484 
479 484 485 
480 485 486 
481 486 487 
482 487 488 
483 488 489 
484 489 490 
485 490 491 
486 491 492 
487 492 493 
488 493 494 
489 494 495 
490 495 496 
491 496 497 
492 497 498 
493 498 499 
494 499 500 
495 500 501 
496 501 502 
497 502 503 
498 503 504 
499 504 505 
500 505 506 
501 506 507 
502 507 508 
503 508 509 
504 509 510 
505 510 511 
506 511 512 
507 512 513 
508 513 514 
509 514 515 
510 515 516 
511 516 517 
512 517 518 
513 518 519 
514 519 520 
515 520 521 
516 521 522 
517 522 523 
518 523 524 
519 524 525 
520 525 526 
521 526 527 
522 527 528 
523 528 529 
524 529 530 
525 530 531 
526 531 532 
527 532 533 
528 533 534 
529 534 535 
530 535 536 
531 536 537 
532 537 538 
533 538 539 
534 539 540 
535 540 541 
536 541 542 
537 542 543 
538 543 544 
539 544 545 
540 545 546 
541 546 547 
542 547 548 
543 548 549 
544 549 550 
545 550 551 
546 551 552 
547 552 553 
548 553 554 
549 554 555 
550 555 556 
551 556 557 
552 557 558 
553 558 559 
554 559 560 
555 560 561 
556 561 562 
557 562 563 
558 563 564 
559 564 7 
1 6 1 1
560 1 6 
1 9 1 82
561 7 565 
562 565 566 
563 566 567 
564 567 568 
565 568 569 
566 569 570 
567 570 571 
568 571 572 
569 572 573 
570 573 574 
571 574 575 
572 575 576 
573 576 577 
574 577 578 
575 578 579 
576 579 580 
577 580 581 
578 581 582 
579 582 583 
580 583 584 
581 584 585 
582 585 586 
583 586 587 
584 587 588 
585 588 589 
586 589 590 
587 590 591 
588 591 592 
589 592 593 
590 593 594 
591 594 595 
592 595 596 
593 596 597 
594 597 598 
595 598 599 
596 599 600 
597 600 601 
598 601 602 
599 602 603 
600 603 604 
601 604 605 
602 605 606 
603 606 607 
604 607 608 
605 608 609 
606 609 610 
607 610 611 
608 611 612 
609 612 613 
610 613 614 
611 614 615 
612 615 616 
613 616 617 
614 617 618 
615 618 619 
616 619 620 
617 620 621 
618 621 622 
619 622 623 
620 623 624 
621 624 625 
622 625 626 
623 626 627 
624 627 628 
625 628 629 
626 629 630 
627 630 631 
628 631 632 
629 632 633 
630 633 634 
631 634 635 
632 635 636 
633 636 637 
634 637 638 
635 638 639 
636 639 640 
637 640 641 
638 641 642 
639 642 643 
640 643 644 
641 644 645 
642 645 8 
1 13 1 57
643 8 646 
644 646 647 
645 647 648 
646 648 649 
647 649 650 
648 650 651 
649 651 652 
650 652 653 
651 653 654 
652 654 655 
653 655 656 
654 656 657 
655 657 658 
656 658 659 
657 659 660 
658 660 661 
659 661 662 
660 662 663 
661 663 664 
662 664 665 
663 665 666 
664 666 667 
665 667 668 
666 668 669 
667 669 670 
668 670 671 
669 671 672 
670 672 673 
671 673 674 
672 674 675 
673 675 676 
674 676 677 
675 677 678 
676 678 679 
677 679 680 
678 680 681 
679 681 682 
680 682 683 
681 683 684 
682 684 685 
683 685 686 
684 686 687 
685 687 688 
686 688 689 
687 689 690 
688 690 691 
689 691 692 
690 692 693 
691 693 694 
692 694 695 
693 695 696 
694 696 697 
695 697 698 
696 698 699 
697 699 700 
698 700 701 
699 701 9 
1 17 1 32
700 9 702 
701 702 703 
702 703 704 
703 704 705 
704 705 706 
705 706 707 
706 707 708 
707 708 709 
708 709 710 
709 710 711 
710 711 712 
711 712 713 
712 713 714 
713 714 715 
714 715 716 
715 716 717 
716 717 718 
717 718 719 
718 719 720 
719 720 721 
720 721 722 
721 722 723 
722 723 724 
723 724 725 
724 725 726 
725 726 727 
726 727 728 
727 728 729 
728 729 730 
729 730 731 
730 731 732 
731 732 10 
1 19 1 1
732 5 10 
2 8 3 194
733 1 11 372 6 
734 11 12 373 372 
735 12 13 374 373 
736 13 14 375 374 
737 14 15 376 375 
738 15 16 377 376 
739 16 17 378 377 
740 17 18 379 378 
741 18 19 380 379 
742 19 20 381 380 
743 20 21 382 381 
744 21 22 383 382 
745 22 23 384 383 
746 23 24 385 384 
747 24 25 386 385 
748 25 26 387 386 
749 26 27 388 387 
750 27 28 389 388 
751 28 29 390 389 
752 29 30 391 390 
753 30 31 392 391 
754 31 32 393 392 
755 32 33 394 393 
756 33 34 395 394 
757 34 35 396 395 
758 35 36 397 396 
759 36 37 398 397 
760 37 38 399 398 
761 38 39 400 399 
762 39 40 401 400 
763 40 41 402 401 
764 41 42 403 402 
765 42 43 404 403 
766 43 44 405 404 
767 44 45 406 405 
768 45 46 407 406 
769 46 47 408 407 
770 47 48 409 408 
771 48 49 410 409 
772 49 50 411 410 
773 50 51 412 411 
774 51 52 413 412 
775 52 53 414 413 
776 53 54 415 414 
777 54 55 416 415 
778 55 56 417 416 
779 56 57 418 417 
780 57 58 419 418 
781 58 59 420 419 
782 59 60 421 420 
783 60 61 422 421 
784 61 62 423 422 
785 62 63 424 423 
786 63 64 425 424 
787 64 65 426 425 
788 65 66 427 426 
789 66 67 428 427 
790 67 68 429 428 
791 68 69 430 429 
792 69 70 431 430 
793 70 71 432 431 
794 71 72 433 432 
795 72 73 434 433 
796 73 74 435 434 
797 74 75 436 435 
798 75 76 437 436 
799 76 77 438 437 
800 77 78 439 438 
801 78 79 440 439 
802 79 80 441 440 
803 80 81 442 441 
804 81 82 443 442 
805 82 83 444 443 
806 83 84 445 444 
807 84 85 446 445 
808 85 86 447 446 
809 86 87 448 447 
810 87 88 449 448 
811 88 89 450 449 
812 89 90 451 450 
813 90 91 452 451 
814 91 92 453 452 
815 92 93 454 453 
816 93 94 455 454 
817 94 95 456 455 
818 95 96 457 456 
819 96 97 458 457 
820 97 98 459 458 
821 98 99 460 459 
822 99 100 461 460 
823 100 101 462 461 
824 101 102 463 462 
825 102 103 464 463 
826 103 104 465 464 
827 104 105 466 465 
828 105 106 467 466 
829 106 107 468 467 
830 107 108 469 468 
831 108 109 470 469 
832 109 110 471 470 
833 110 111 472 471 
834 111 112 473 472 
835 112 113 474 473 
836 113 114 475 474 
837 114 115 476 475 
838 115 116 477 476 
839 116 117 478 477 
840 117 118 479 478 
841 118 119 480 479 
842 119 120 481 480 
843 120 121 482 481 
844 121 122 483 482 
845 122 123 484 483 
846 123 124 485 484 
847 124 125 486 485 
848 125 126 487 486 
849 126 127 488 487 
850 127 128 489 488 
851 128 129 490 489 
852 129 130 491 490 
853 130 131 492 491 
854 131 132 493 492 
855 132 133 494 493 
856 133 134 495 494 
857 134 135 496 495 
858 135 136 497 496 
859 136 137 498 497 
860 137 138 499 498 
861 138 139 500 499 
862 139 140 501 500 
863 140 141 502 501 
864 141 142 503 502 
865 142 143 504 503 
866 143 144 505 504 
867 144 145 506 505 
868 145 146 507 506 
869 146 147 508 507 
870 147 148 509 508 
871 148 149 510 509 
872 149 150 511 510 
873 150 151 512 511 
874 151 152 513 512 
875 152 153 514 513 
876 153 154 515 514 
877 154 155 516 515 
878 155 156 517 516 
879 156 157 518 517 
880 157 158 519 518 
881 158 159 520 519 
882 159 160 521 520 
883 160 161 522 521 
884 161 162 523 522 
885 162 163 524 523 
886 163 164 525 524 
887 164 165 526 525 
888 165 166 527 526 
889 166 167 528 527 
890 167 168 529 528 
891 168 169 530 529 
892 169 170 531 530 
893 170 171 532 531 
894 171 172 533 532 
895 172 173 534 533 
896 173 174 535 534 
897 174 175 536 535 
898 175 176 537 536 
899 176 177 538 537 
900 177 178 539 538 
901 178 179 540 539 
902 179 180 541 540 
903 180 181 542 541 
904 181 182 543 542 
905 182 183 544 543 
906 183 184 545 544 
907 184 185 546 545 
908 185 186 547 546 
909 186 187 548 547 
910 187 188 549 548 
911 188 189 550 549 
912 189 190 551 550 
913 190 191 552 551 
914 191 192 553 552 
915 192 193 554 553 
916 193 194 555 554 
917 194 195 556 555 
918 195 196 557 556 
919 196 197 558 557 
920 197 198 559 558 
921 198 199 560 559 
922 199 200 561 560 
923 200 201 562 561 
924 201 202 563 562 
925 202 203 564 563 
926 203 2 7 564 
2 12 3 82
927 2 204 565 7 
928 204 205 566 565 
929 205 206 567 566 
930 206 207 568 567 
931 207 208 569 568 
932 208 209 570 569 
933 209 210 571 570 
934 210 211 572 571 
935 211 212 573 572 
936 212 213 574 573 
937 213 214 575 574 
938 214 215 576 575 
939 215 216 577 576 
940 216 217 578 577 
941 217 218 579 578 
942 218 219 580 579 
943 219 220 581 580 
944 220 221 582 581 
945 221 222 583 582 
946 222 223 584 583 
947 223 224 585 584 
948 224 225 586 585 
949 225 226 587 586 
950 226 227 588 587 
951 227 228 589 588 
952 228 229 590 589 
953 229 230 591 590 
954 230 231 592 591 
955 231 232 593 592 
956 232 233 594 593 
957 233 234 595 594 
958 234 235 596 595 
959 235 236 597 596 
960 236 237 598 597 
961 237 238 599 598 
962 238 239 600 599 
963 239 240 601 600 
964 240 241 602 601 
965 241 242 603 602 
966 242 243 604 603 
967 243 244 605 604 
968 244 245 606 605 
969 245 246 607 606 
970 246 247 608 607 
971 247 248 609 608 
972 248 249 610 609 
973 249 250 611 610 
974 250 251 612 611 
975 251 252 613 612 
976 252 253 614 613 
977 253 254 615 614 
978 254 255 616 615 
979 255 256 617 616 
980 256 257 618 617 
981 257 258 619 618 
982 258 259 620 619 
983 259 260 621 620 
984 260 261 622 621 
985 261 262 623 622 
986 262 263 624 623 
987 263 264 625 624 
988 264 265 626 625 
989 265 266 627 626 
990 266 267 628 627 
991 267 268 629 628 
992 268 269 630 629 
993 269 270 631 630 
994 270 271 632 631 
995 271 272 633 632 
996 272 273 634 633 
997 273 274 635 634 
998 274 275 636 635 
999 275 276 637 636 
1000 276 277 638 637 
1001 277 278 639 638 
1002 278 279 640 639 
1003 279 280 641 640 
1004 280 281 642 641 
1005 281 282 643 642 
1006 282 283 644 643 
1007 283 284 645 644 
1008 284 3 8 645 
2 16 3 57
1009 3 285 646 8 
1010 285 286 647 646 
1011 286 287 648 647 
1012 287 288 649 648 
1013 288 289 650 649 
1014 289 290 651 650 
1015 290 291 652 651 
1016 291 292 653 652 
1017 292 293 654 653 
1018 293 294 655 654 
1019 294 295 656 655 
1020 295 296 657 656 
1021 296 297 658 657 
1022 297 298 659 658 
1023 298 299 660 659 
1024 299 300 661 660 
1025 300 301 662 661 
1026 301 302 663 662 
1027 302 303 664 663 
1028 303 304 665 664 
1029 304 305 666 665 
1030 305 306 667 666 
1031 306 307 668 667 
1032 307 308 669 668 
1033 308 309 670 669 
1034 309 310 671 670 
1035 310 311 672 671 
1036 311 312 673 672 
1037 312 313 674 673 
1038 313 314 675 674 
1039 314 315 676 675 
1040 315 316 677 676 
1041 316 317 678 677 
1042 317 318 679 678 
1043 318 319 680 679 
1044 319 320 681 680 
1045 320 321 682 681 
1046 321 322 683 682 
1047 322 323 684 683 
1048 323 324 685 684 
1049 324 325 686 685 
1050 325 326 687 686 
1051 326 327 688 687 
1052 327 328 689 688 
1053 328 329 690 689 
1054 329 330 691 690 
1055 330 331 692 691 
1056 331 332 693 692 
1057 332 333 694 693 
1058 333 334 695 694 
1059 334 335 696 695 
1060 335 336 697 696 
1061 336 337 698 697 
1062 337 338 699 698 
1063 338 339 700 699 
1064 339 340 701 700 
1065 340 4 9 701 
2 20 3 32
1066 4 341 702 9 
1067 341 342 703 702 
1068 342 343 704 703 
1069 343 344 705 704 
1070 344 345 706 705 
1071 345 346 707 706 
1072 346 347 708 707 
1073 347 348 709 708 
1074 348 349 710 709 
1075 349 350 711 710 
1076 350 351 712 711 
1077 351 352 713 712 
1078 352 353 714 713 
1079 353 354 715 714 
1080 354 355 716 715 
1081 355 356 717 716 
1082 356 357 718 717 
1083 357 358 719 718 
1084 358 359 720 719 
1085 359 360 721 720 
1086 360 361 722 721 
1087 361 362 723 722 
1088 362 363 724 723 
1089 363 364 725 724 
1090 364 365 726 725 
1091 365 366 727 726 
1092 366 367 728 727 
1093 367 368 729 728 
1094 368 369 730 729 
1095 369 370 731 730 
1096 370 371 732 731 
1097 371 5 10 732 
$EndElements
