<?xml version="1.0"?>
<VTKFile type="UnstructuredGrid" version="0.1" byte_order="BigEndian">
  <UnstructuredGrid>
    <Piece NumberOfPoints="987"  NumberOfCells="1316">
      <PointData>
        <DataArray type="Int32" Name="NodeNumber" NumberOfComponents="1" format="ascii">
1 2 3 4 5 6 7 8 9 10 11 12 13 14 15 16 17 18 19 20 21 22 23 24 25 26 27 28 29 30 31 32 33 34 35 36 37 38 39 40 41 42 43 44 45 46 47 48 49 50 51 52 53 54 55 56 57 58 59 60 61 62 63 64 65 66 67 68 69 70 71 72 73 74 75 76 77 78 79 80 81 82 83 84 85 86 87 88 89 90 91 92 93 94 95 96 97 98 99 100 101 102 103 104 105 106 107 108 109 110 111 112 113 114 115 116 117 118 119 120 121 122 123 124 125 126 127 128 129 130 131 132 133 134 135 136 137 138 139 140 141 142 143 144 145 146 147 148 149 150 151 152 153 154 155 156 157 158 159 160 161 162 163 164 165 166 167 168 169 170 171 172 173 174 175 176 177 178 179 180 181 182 183 184 185 186 187 188 189 190 191 192 193 194 195 196 197 198 199 200 201 202 203 204 205 206 207 208 209 210 211 212 213 214 215 216 217 218 219 220 221 222 223 224 225 226 227 228 229 230 231 232 233 234 235 236 237 238 239 240 241 242 243 244 245 246 247 248 249 250 251 252 253 254 255 256 257 258 259 260 261 262 263 264 265 266 267 268 269 270 271 272 273 274 275 276 277 278 279 280 281 282 283 284 285 286 287 288 289 290 291 292 293 294 295 296 297 298 299 300 301 302 303 304 305 306 307 308 309 310 311 312 313 314 315 316 317 318 319 320 321 322 323 324 325 326 327 328 329 330 331 332 333 334 335 336 337 338 339 340 341 342 343 344 345 346 347 348 349 350 351 352 353 354 355 356 357 358 359 360 361 362 363 364 365 366 367 368 369 370 371 372 373 374 375 376 377 378 379 380 381 382 383 384 385 386 387 388 389 390 391 392 393 394 395 396 397 398 399 400 401 402 403 404 405 406 407 408 409 410 411 412 413 414 415 416 417 418 419 420 421 422 423 424 425 426 427 428 429 430 431 432 433 434 435 436 437 438 439 440 441 442 443 444 445 446 447 448 449 450 451 452 453 454 455 456 457 458 459 460 461 462 463 464 465 466 467 468 469 470 471 472 473 474 475 476 477 478 479 480 481 482 483 484 485 486 487 488 489 490 491 492 493 494 495 496 497 498 499 500 501 502 503 504 505 506 507 508 509 510 511 512 513 514 515 516 517 518 519 520 521 522 523 524 525 526 527 528 529 530 531 532 533 534 535 536 537 538 539 540 541 542 543 544 545 546 547 548 549 550 551 552 553 554 555 556 557 558 559 560 561 562 563 564 565 566 567 568 569 570 571 572 573 574 575 576 577 578 579 580 581 582 583 584 585 586 587 588 589 590 591 592 593 594 595 596 597 598 599 600 601 602 603 604 605 606 607 608 609 610 611 612 613 614 615 616 617 618 619 620 621 622 623 624 625 626 627 628 629 630 631 632 633 634 635 636 637 638 639 640 641 642 643 644 645 646 647 648 649 650 651 652 653 654 655 656 657 658 659 660 661 662 663 664 665 666 667 668 669 670 671 672 673 674 675 676 677 678 679 680 681 682 683 684 685 686 687 688 689 690 691 692 693 694 695 696 697 698 699 700 701 702 703 704 705 706 707 708 709 710 711 712 713 714 715 716 717 718 719 720 721 722 723 724 725 726 727 728 729 730 731 732 733 734 735 736 737 738 739 740 741 742 743 744 745 746 747 748 749 750 751 752 753 754 755 756 757 758 759 760 761 762 763 764 765 766 767 768 769 770 771 772 773 774 775 776 777 778 779 780 781 782 783 784 785 786 787 788 789 790 791 792 793 794 795 796 797 798 799 800 801 802 803 804 805 806 807 808 809 810 811 812 813 814 815 816 817 818 819 820 821 822 823 824 825 826 827 828 829 830 831 832 833 834 835 836 837 838 839 840 841 842 843 844 845 846 847 848 849 850 851 852 853 854 855 856 857 858 859 860 861 862 863 864 865 866 867 868 869 870 871 872 873 874 875 876 877 878 879 880 881 882 883 884 885 886 887 888 889 890 891 892 893 894 895 896 897 898 899 900 901 902 903 904 905 906 907 908 909 910 911 912 913 914 915 916 917 918 919 920 921 922 923 924 925 926 927 928 929 930 931 932 933 934 935 936 937 938 939 940 941 942 943 944 945 946 947 948 949 950 951 952 953 954 955 956 957 958 959 960 961 962 963 964 965 966 967 968 969 970 971 972 973 974 975 976 977 978 979 980 981 982 983 984 985 986 987 
        </DataArray>
      </PointData>
      <CellData>
        <DataArray type="Int32" Name="ElementNumber" NumberOfComponents="1" format="ascii">
1 2 3 4 5 6 7 8 9 10 11 12 13 14 15 16 17 18 19 20 21 22 23 24 25 26 27 28 29 30 31 32 33 34 35 36 37 38 39 40 41 42 43 44 45 46 47 48 49 50 51 52 53 54 55 56 57 58 59 60 61 62 63 64 65 66 67 68 69 70 71 72 73 74 75 76 77 78 79 80 81 82 83 84 85 86 87 88 89 90 91 92 93 94 95 96 97 98 99 100 101 102 103 104 105 106 107 108 109 110 111 112 113 114 115 116 117 118 119 120 121 122 123 124 125 126 127 128 129 130 131 132 133 134 135 136 137 138 139 140 141 142 143 144 145 146 147 148 149 150 151 152 153 154 155 156 157 158 159 160 161 162 163 164 165 166 167 168 169 170 171 172 173 174 175 176 177 178 179 180 181 182 183 184 185 186 187 188 189 190 191 192 193 194 195 196 197 198 199 200 201 202 203 204 205 206 207 208 209 210 211 212 213 214 215 216 217 218 219 220 221 222 223 224 225 226 227 228 229 230 231 232 233 234 235 236 237 238 239 240 241 242 243 244 245 246 247 248 249 250 251 252 253 254 255 256 257 258 259 260 261 262 263 264 265 266 267 268 269 270 271 272 273 274 275 276 277 278 279 280 281 282 283 284 285 286 287 288 289 290 291 292 293 294 295 296 297 298 299 300 301 302 303 304 305 306 307 308 309 310 311 312 313 314 315 316 317 318 319 320 321 322 323 324 325 326 327 328 329 330 331 332 333 334 335 336 337 338 339 340 341 342 343 344 345 346 347 348 349 350 351 352 353 354 355 356 357 358 359 360 361 362 363 364 365 366 367 368 369 370 371 372 373 374 375 376 377 378 379 380 381 382 383 384 385 386 387 388 389 390 391 392 393 394 395 396 397 398 399 400 401 402 403 404 405 406 407 408 409 410 411 412 413 414 415 416 417 418 419 420 421 422 423 424 425 426 427 428 429 430 431 432 433 434 435 436 437 438 439 440 441 442 443 444 445 446 447 448 449 450 451 452 453 454 455 456 457 458 459 460 461 462 463 464 465 466 467 468 469 470 471 472 473 474 475 476 477 478 479 480 481 482 483 484 485 486 487 488 489 490 491 492 493 494 495 496 497 498 499 500 501 502 503 504 505 506 507 508 509 510 511 512 513 514 515 516 517 518 519 520 521 522 523 524 525 526 527 528 529 530 531 532 533 534 535 536 537 538 539 540 541 542 543 544 545 546 547 548 549 550 551 552 553 554 555 556 557 558 559 560 561 562 563 564 565 566 567 568 569 570 571 572 573 574 575 576 577 578 579 580 581 582 583 584 585 586 587 588 589 590 591 592 593 594 595 596 597 598 599 600 601 602 603 604 605 606 607 608 609 610 611 612 613 614 615 616 617 618 619 620 621 622 623 624 625 626 627 628 629 630 631 632 633 634 635 636 637 638 639 640 641 642 643 644 645 646 647 648 649 650 651 652 653 654 655 656 657 658 659 660 661 662 663 664 665 666 667 668 669 670 671 672 673 674 675 676 677 678 679 680 681 682 683 684 685 686 687 688 689 690 691 692 693 694 695 696 697 698 699 700 701 702 703 704 705 706 707 708 709 710 711 712 713 714 715 716 717 718 719 720 721 722 723 724 725 726 727 728 729 730 731 732 733 734 735 736 737 738 739 740 741 742 743 744 745 746 747 748 749 750 751 752 753 754 755 756 757 758 759 760 761 762 763 764 765 766 767 768 769 770 771 772 773 774 775 776 777 778 779 780 781 782 783 784 785 786 787 788 789 790 791 792 793 794 795 796 797 798 799 800 801 802 803 804 805 806 807 808 809 810 811 812 813 814 815 816 817 818 819 820 821 822 823 824 825 826 827 828 829 830 831 832 833 834 835 836 837 838 839 840 841 842 843 844 845 846 847 848 849 850 851 852 853 854 855 856 857 858 859 860 861 862 863 864 865 866 867 868 869 870 871 872 873 874 875 876 877 878 879 880 881 882 883 884 885 886 887 888 889 890 891 892 893 894 895 896 897 898 899 900 901 902 903 904 905 906 907 908 909 910 911 912 913 914 915 916 917 918 919 920 921 922 923 924 925 926 927 928 929 930 931 932 933 934 935 936 937 938 939 940 941 942 943 944 945 946 947 948 949 950 951 952 953 954 955 956 957 958 959 960 961 962 963 964 965 966 967 968 969 970 971 972 973 974 975 976 977 978 979 980 981 982 983 984 985 986 987 988 989 990 991 992 993 994 995 996 997 998 999 1000 1001 1002 1003 1004 1005 1006 1007 1008 1009 1010 1011 1012 1013 1014 1015 1016 1017 1018 1019 1020 1021 1022 1023 1024 1025 1026 1027 1028 1029 1030 1031 1032 1033 1034 1035 1036 1037 1038 1039 1040 1041 1042 1043 1044 1045 1046 1047 1048 1049 1050 1051 1052 1053 1054 1055 1056 1057 1058 1059 1060 1061 1062 1063 1064 1065 1066 1067 1068 1069 1070 1071 1072 1073 1074 1075 1076 1077 1078 1079 1080 1081 1082 1083 1084 1085 1086 1087 1088 1089 1090 1091 1092 1093 1094 1095 1096 1097 1098 1099 1100 1101 1102 1103 1104 1105 1106 1107 1108 1109 1110 1111 1112 1113 1114 1115 1116 1117 1118 1119 1120 1121 1122 1123 1124 1125 1126 1127 1128 1129 1130 1131 1132 1133 1134 1135 1136 1137 1138 1139 1140 1141 1142 1143 1144 1145 1146 1147 1148 1149 1150 1151 1152 1153 1154 1155 1156 1157 1158 1159 1160 1161 1162 1163 1164 1165 1166 1167 1168 1169 1170 1171 1172 1173 1174 1175 1176 1177 1178 1179 1180 1181 1182 1183 1184 1185 1186 1187 1188 1189 1190 1191 1192 1193 1194 1195 1196 1197 1198 1199 1200 1201 1202 1203 1204 1205 1206 1207 1208 1209 1210 1211 1212 1213 1214 1215 1216 1217 1218 1219 1220 1221 1222 1223 1224 1225 1226 1227 1228 1229 1230 1231 1232 1233 1234 1235 1236 1237 1238 1239 1240 1241 1242 1243 1244 1245 1246 1247 1248 1249 1250 1251 1252 1253 1254 1255 1256 1257 1258 1259 1260 1261 1262 1263 1264 1265 1266 1267 1268 1269 1270 1271 1272 1273 1274 1275 1276 1277 1278 1279 1280 1281 1282 1283 1284 1285 1286 1287 1288 1289 1290 1291 1292 1293 1294 1295 1296 1297 1298 1299 1300 1301 1302 1303 1304 1305 1306 1307 1308 1309 1310 1311 1312 1313 1314 1315 1316 
        </DataArray>
        <DataArray type="Int32" Name="GeometryIds" NumberOfComponents="1" format="ascii">
1 1 1 1 1 1 1 1 1 1 1 1 1 1 1 1 1 1 1 1 1 1 1 1 1 1 1 1 1 1 1 1 1 1 1 1 1 1 1 1 1 1 1 1 1 1 1 1 1 1 1 1 1 1 1 1 1 1 1 1 1 1 1 1 1 1 1 1 1 1 1 1 1 1 1 1 1 1 1 1 1 1 1 1 1 1 1 1 1 1 1 1 1 1 1 1 1 1 1 1 1 1 1 1 1 1 1 1 1 1 1 1 1 1 1 1 1 1 1 1 1 1 1 1 1 1 1 1 1 1 1 1 1 1 1 1 1 1 1 1 1 1 1 1 1 1 1 1 1 1 1 1 1 1 1 1 1 1 1 1 1 1 1 1 1 1 1 1 1 1 1 1 1 1 1 1 1 1 1 1 1 1 1 1 1 1 1 1 1 1 1 1 1 1 1 1 1 1 1 1 1 1 1 1 1 1 1 1 1 1 1 1 1 1 1 1 1 1 1 1 1 1 1 1 1 1 1 1 1 1 1 1 1 1 1 1 1 1 1 1 1 1 1 1 1 1 1 1 1 1 1 1 1 1 1 1 1 1 1 1 1 1 1 1 1 1 1 1 1 1 1 1 1 1 1 1 1 1 1 1 1 1 1 1 1 1 1 1 1 1 1 1 1 1 1 1 1 1 1 1 1 1 1 1 1 1 1 1 1 1 1 1 1 1 1 1 1 1 1 1 1 1 1 1 1 1 1 1 1 1 1 1 1 1 1 1 1 1 1 1 1 1 1 1 1 1 1 1 1 1 1 1 1 1 1 1 1 1 1 1 1 1 1 1 1 1 1 1 1 1 1 1 1 1 1 1 1 1 1 1 1 1 1 1 1 1 1 1 1 1 1 1 1 1 1 1 1 1 1 1 1 1 1 1 1 1 1 1 1 1 1 1 1 1 1 1 1 1 1 1 1 1 1 1 1 1 1 1 1 1 1 1 1 1 1 1 1 1 1 1 1 1 1 1 1 1 1 1 1 1 1 1 1 1 1 1 1 1 1 1 1 1 1 1 1 1 1 1 1 1 1 1 1 1 1 1 1 1 1 1 1 1 1 1 1 1 1 1 1 1 1 1 1 1 1 1 1 1 1 1 1 1 1 1 1 1 1 1 1 1 1 1 1 1 1 1 1 1 1 1 1 1 1 1 1 1 1 1 1 1 1 1 1 1 1 1 1 1 1 1 1 1 1 1 1 1 1 1 1 1 1 1 1 1 1 1 1 1 1 1 1 1 1 1 1 1 1 1 1 1 1 1 1 1 1 1 1 1 1 1 1 1 1 1 1 1 1 1 1 1 1 1 1 1 1 1 1 1 1 1 1 1 1 1 1 1 1 1 1 1 1 1 1 1 1 1 1 1 1 1 1 1 1 1 1 1 1 1 1 1 1 1 1 1 1 1 1 1 1 1 1 1 1 1 1 1 1 1 1 1 1 1 1 1 1 1 103 103 103 103 103 103 103 103 103 103 103 103 103 103 103 103 103 103 103 103 103 103 103 103 103 103 103 103 103 103 103 103 103 103 103 103 103 103 103 103 103 103 103 103 103 103 103 103 103 103 103 103 103 103 103 103 103 103 103 103 103 103 103 103 103 103 103 103 103 103 103 103 103 103 103 103 103 103 103 103 103 103 103 103 103 103 103 103 103 103 103 103 103 103 103 103 103 103 103 103 103 103 103 103 103 103 103 103 103 103 103 103 103 103 103 103 103 103 103 103 103 103 103 103 103 103 103 103 103 103 103 103 103 103 103 103 103 103 103 103 103 103 103 103 103 103 103 103 103 103 103 103 103 103 103 103 103 103 103 103 103 103 103 103 103 103 103 103 103 103 103 103 103 103 103 103 103 103 103 103 103 103 103 103 103 103 103 103 103 103 103 103 103 103 103 103 103 103 103 103 103 103 103 103 103 103 103 103 103 103 103 103 103 103 103 103 103 103 103 103 103 103 103 103 103 103 103 103 103 103 103 103 103 103 103 103 103 103 103 103 103 103 103 103 103 103 103 103 103 103 103 103 103 103 103 103 103 103 103 103 103 103 103 103 103 103 103 103 103 103 103 103 103 103 103 103 103 103 103 103 103 103 103 103 103 103 103 103 103 103 103 103 103 103 103 103 103 103 103 103 103 103 103 103 103 103 103 103 103 103 103 103 103 103 103 103 103 103 103 103 103 103 103 103 103 103 103 103 104 104 104 104 104 104 104 104 104 104 104 104 104 104 104 104 104 104 104 104 104 104 104 104 104 104 104 104 104 104 104 104 104 104 104 104 104 104 104 104 104 104 104 104 104 104 104 104 104 104 104 104 104 104 104 104 104 104 104 104 104 104 104 104 104 104 104 104 104 104 104 104 104 104 104 104 104 104 104 104 104 104 104 104 104 104 104 104 104 104 104 104 104 104 104 104 104 104 104 104 104 104 104 104 104 104 104 104 104 104 104 104 104 104 104 104 104 104 104 104 104 104 104 104 104 104 104 104 104 104 104 104 104 104 104 104 104 104 104 104 104 104 104 104 104 104 104 101 101 104 104 104 104 104 104 104 104 104 104 104 104 104 104 104 104 104 104 104 104 104 104 104 104 104 104 104 104 104 104 104 104 104 104 104 104 104 104 104 104 104 104 104 104 104 104 104 104 104 104 104 104 104 104 104 104 104 104 104 104 104 104 104 104 104 104 104 104 104 104 104 104 104 104 104 104 104 104 104 104 104 104 104 104 104 104 104 104 104 104 104 104 104 104 104 104 104 104 104 104 104 104 104 104 104 104 104 104 104 104 104 104 104 104 104 104 104 104 104 104 104 104 104 104 104 104 104 104 104 104 104 104 104 104 104 104 104 104 104 104 104 104 104 104 104 104 104 104 104 104 104 104 104 104 104 104 104 104 104 104 104 104 104 104 104 104 104 104 104 104 104 104 104 104 104 104 104 104 104 104 104 102 102 
        </DataArray>
        <DataArray type="Int32" Name="Partition" NumberOfComponents="1" format="ascii">
24 24 24 24 24 23 23 23 23 23 23 23 23 23 24 24 24 24 23 24 21 23 21 21 21 21 22 22 22 22 22 21 22 21 22 22 22 22 19 22 19 19 19 22 20 19 19 19 19 19 20 20 19 20 20 20 19 20 19 20 17 20 20 17 17 17 17 17 17 18 18 18 18 31 31 17 18 17 18 18 18 18 32 18 32 18 32 31 32 31 31 31 31 31 31 31 30 32 30 32 32 30 30 30 30 30 32 32 32 32 30 30 30 30 29 29 29 29 29 29 27 27 29 27 29 27 27 27 28 27 27 27 28 27 28 27 28 28 25 28 25 25 25 25 28 25 28 25 25 28 26 25 26 26 25 26 26 26 26 26 26 26 1 1 1 26 26 26 1 1 1 1 1 1 4 4 4 4 2 2 2 2 2 2 4 4 2 4 2 4 4 4 4 2 4 3 3 3 3 3 3 3 3 3 8 3 8 8 7 8 7 7 7 7 8 8 8 8 8 8 7 8 7 7 7 5 7 5 5 5 5 5 5 5 6 5 6 5 6 6 6 6 6 6 6 13 13 13 6 13 13 13 13 13 13 14 14 14 14 14 14 14 14 14 16 16 16 16 14 16 16 16 16 14 16 14 15 15 15 15 15 15 15 15 15 15 15 16 9 9 9 9 9 9 9 9 9 9 10 10 10 10 10 10 10 10 10 11 11 11 11 11 11 11 12 11 11 11 12 12 11 12 12 12 12 12 37 37 37 37 12 12 12 37 38 37 37 37 37 38 38 38 38 37 38 38 38 38 40 40 40 40 40 38 40 40 40 40 39 39 39 39 40 39 39 40 39 39 36 39 36 39 36 36 36 36 36 36 35 36 36 36 35 35 35 34 34 35 34 35 35 35 35 35 33 35 33 35 33 33 33 33 33 34 33 34 34 33 34 34 44 34 44 44 44 44 44 43 43 43 43 43 44 44 44 44 44 43 43 43 42 43 42 43 42 42 41 41 41 41 41 42 42 42 42 41 41 41 42 41 41 41 41 47 47 47 47 47 47 47 48 48 48 48 45 47 45 47 45 45 45 45 48 45 45 45 48 48 48 48 48 48 46 48 46 46 46 46 46 46 46 46 57 46 57 57 57 57 57 57 58 58 57 58 57 57 58 58 58 58 58 58 58 58 60 60 60 60 60 59 59 59 59 59 59 60 60 60 59 60 63 59 63 63 59 63 63 63 63 63 63 63 64 63 64 64 64 64 61 64 61 64 61 61 61 61 64 61 64 61 64 61 61 61 61 62 62 62 62 62 62 53 62 53 53 53 53 53 53 62 53 62 53 53 54 53 54 56 54 54 54 54 54 54 54 54 56 56 56 56 56 56 56 56 51 56 51 51 55 55 55 55 55 51 55 55 51 55 51 51 55 51 55 51 51 52 52 52 50 52 50 52 50 52 52 52 52 52 50 52 50 52 50 50 50 50 50 50 49 49 49 49 49 49 49 49 24 24 24 23 23 23 23 24 24 23 21 21 21 22 22 22 22 22 22 19 19 19 20 19 19 20 19 20 19 19 17 20 17 17 17 18 18 31 18 18 18 32 32 32 32 31 31 31 30 30 32 30 30 32 32 30 30 29 29 29 27 29 29 27 28 27 28 28 28 25 25 25 28 28 25 26 26 25 26 26 26 1 1 26 1 1 1 4 4 2 2 2 4 2 2 4 4 4 3 3 3 3 8 8 7 7 7 8 8 8 7 7 7 7 5 5 5 6 6 6 6 6 6 13 6 13 13 13 14 14 14 14 16 16 14 16 16 16 15 15 15 15 15 15 9 9 9 9 9 10 10 10 10 10 11 11 11 12 11 12 11 12 12 37 37 12 12 38 37 37 38 38 38 38 40 40 40 40 40 39 39 40 39 39 36 36 36 36 36 35 36 35 35 34 34 35 35 33 33 33 33 33 33 34 34 44 44 44 44 43 43 44 44 44 43 42 42 42 41 41 41 42 42 41 42 41 41 47 47 47 48 48 45 45 45 45 48 45 48 48 48 46 46 46 46 46 57 57 57 57 58 57 57 58 58 58 58 60 60 60 59 59 59 60 59 63 63 59 63 63 63 64 64 64 61 61 61 61 64 64 64 61 61 62 62 62 62 53 53 53 53 53 54 54 54 54 54 54 56 56 56 56 51 51 55 55 55 55 51 51 55 55 51 52 50 50 50 52 52 50 50 50 50 50 49 49 49 49 24 24 23 23 23 23 23 24 24 24 23 21 21 22 22 21 21 22 22 22 19 22 19 19 19 20 20 20 20 20 20 17 17 17 18 18 31 17 17 18 18 18 18 31 31 31 31 31 32 32 30 30 30 32 32 30 30 29 29 29 27 27 27 27 27 27 27 27 28 28 25 25 25 25 28 25 26 26 26 26 26 1 26 26 1 1 1 4 4 2 2 2 4 4 4 4 2 3 3 3 3 3 3 8 8 7 7 8 8 8 8 7 5 5 5 5 5 5 5 6 6 6 13 13 13 13 13 14 14 14 14 14 16 16 16 16 14 14 15 15 15 15 15 16 9 9 9 24 24 9 9 10 10 10 10 11 11 11 11 11 11 12 12 12 12 37 37 12 37 37 37 38 38 37 38 38 40 40 38 40 40 39 39 39 40 39 39 39 36 36 36 36 36 35 34 35 35 35 35 35 35 33 33 34 34 33 34 34 44 44 43 43 43 44 44 43 43 43 43 42 41 41 42 42 41 41 41 41 47 47 47 47 48 48 47 47 45 45 45 45 48 48 48 48 46 46 46 46 46 57 57 57 58 58 57 58 58 58 58 60 60 59 59 59 60 60 60 59 63 63 63 63 63 63 64 64 64 64 61 61 61 61 61 61 62 62 62 53 53 53 53 62 62 53 53 56 54 54 54 54 56 56 56 56 56 51 55 55 51 55 55 51 51 51 52 52 52 52 52 52 52 52 52 50 50 50 49 49 49 49 49 49 
        </DataArray>
      </CellData>
      <Points>
        <DataArray type="Float64" Name="ElementNumber" NumberOfComponents="3" format="ascii">
0.000000e+00 0.000000e+00 0.000000e+00 5.718740e+05 0.000000e+00 0.000000e+00 6.862488e+05 0.000000e+00 0.000000e+00 7.291394e+05 0.000000e+00 0.000000e+00 8.161532e+05 0.000000e+00 0.000000e+00 0.000000e+00 1.000000e+03 0.000000e+00 5.718740e+05 1.000000e+03 0.000000e+00 6.862488e+05 1.000000e+03 0.000000e+00 7.291394e+05 1.000000e+03 0.000000e+00 8.161532e+05 1.000000e+03 0.000000e+00 9.875502e+03 0.000000e+00 0.000000e+00 1.959752e+04 0.000000e+00 0.000000e+00 2.916845e+04 0.000000e+00 0.000000e+00 3.859062e+04 0.000000e+00 0.000000e+00 4.786636e+04 0.000000e+00 0.000000e+00 5.699793e+04 0.000000e+00 0.000000e+00 6.598759e+04 0.000000e+00 0.000000e+00 7.483753e+04 0.000000e+00 0.000000e+00 8.354992e+04 0.000000e+00 0.000000e+00 9.212691e+04 0.000000e+00 0.000000e+00 1.005706e+05 0.000000e+00 0.000000e+00 1.088831e+05 0.000000e+00 0.000000e+00 1.170663e+05 0.000000e+00 0.000000e+00 1.251224e+05 0.000000e+00 0.000000e+00 1.330533e+05 0.000000e+00 0.000000e+00 1.408609e+05 0.000000e+00 0.000000e+00 1.485472e+05 0.000000e+00 0.000000e+00 1.561140e+05 0.000000e+00 0.000000e+00 1.635632e+05 0.000000e+00 0.000000e+00 1.708966e+05 0.000000e+00 0.000000e+00 1.781161e+05 0.000000e+00 0.000000e+00 1.852234e+05 0.000000e+00 0.000000e+00 1.922202e+05 0.000000e+00 0.000000e+00 1.991082e+05 0.000000e+00 0.000000e+00 2.058892e+05 0.000000e+00 0.000000e+00 2.125648e+05 0.000000e+00 0.000000e+00 2.191367e+05 0.000000e+00 0.000000e+00 2.256064e+05 0.000000e+00 0.000000e+00 2.319756e+05 0.000000e+00 0.000000e+00 2.382458e+05 0.000000e+00 0.000000e+00 2.444185e+05 0.000000e+00 0.000000e+00 2.504953e+05 0.000000e+00 0.000000e+00 2.564777e+05 0.000000e+00 0.000000e+00 2.623670e+05 0.000000e+00 0.000000e+00 2.681649e+05 0.000000e+00 0.000000e+00 2.738726e+05 0.000000e+00 0.000000e+00 2.794917e+05 0.000000e+00 0.000000e+00 2.850234e+05 0.000000e+00 0.000000e+00 2.904691e+05 0.000000e+00 0.000000e+00 2.958302e+05 0.000000e+00 0.000000e+00 3.011080e+05 0.000000e+00 0.000000e+00 3.063037e+05 0.000000e+00 0.000000e+00 3.114187e+05 0.000000e+00 0.000000e+00 3.164542e+05 0.000000e+00 0.000000e+00 3.214114e+05 0.000000e+00 0.000000e+00 3.262916e+05 0.000000e+00 0.000000e+00 3.310960e+05 0.000000e+00 0.000000e+00 3.358256e+05 0.000000e+00 0.000000e+00 3.404818e+05 0.000000e+00 0.000000e+00 3.450656e+05 0.000000e+00 0.000000e+00 3.495782e+05 0.000000e+00 0.000000e+00 3.540206e+05 0.000000e+00 0.000000e+00 3.583940e+05 0.000000e+00 0.000000e+00 3.626994e+05 0.000000e+00 0.000000e+00 3.669379e+05 0.000000e+00 0.000000e+00 3.711105e+05 0.000000e+00 0.000000e+00 3.752183e+05 0.000000e+00 0.000000e+00 3.792622e+05 0.000000e+00 0.000000e+00 3.832433e+05 0.000000e+00 0.000000e+00 3.871625e+05 0.000000e+00 0.000000e+00 3.910208e+05 0.000000e+00 0.000000e+00 3.948192e+05 0.000000e+00 0.000000e+00 3.985585e+05 0.000000e+00 0.000000e+00 4.022397e+05 0.000000e+00 0.000000e+00 4.058636e+05 0.000000e+00 0.000000e+00 4.094313e+05 0.000000e+00 0.000000e+00 4.129435e+05 0.000000e+00 0.000000e+00 4.164011e+05 0.000000e+00 0.000000e+00 4.198050e+05 0.000000e+00 0.000000e+00 4.231560e+05 0.000000e+00 0.000000e+00 4.264549e+05 0.000000e+00 0.000000e+00 4.297025e+05 0.000000e+00 0.000000e+00 4.328997e+05 0.000000e+00 0.000000e+00 4.360471e+05 0.000000e+00 0.000000e+00 4.391457e+05 0.000000e+00 0.000000e+00 4.421960e+05 0.000000e+00 0.000000e+00 4.451990e+05 0.000000e+00 0.000000e+00 4.481553e+05 0.000000e+00 0.000000e+00 4.510657e+05 0.000000e+00 0.000000e+00 4.539308e+05 0.000000e+00 0.000000e+00 4.567514e+05 0.000000e+00 0.000000e+00 4.595282e+05 0.000000e+00 0.000000e+00 4.622618e+05 0.000000e+00 0.000000e+00 4.649529e+05 0.000000e+00 0.000000e+00 4.676022e+05 0.000000e+00 0.000000e+00 4.702103e+05 0.000000e+00 0.000000e+00 4.727779e+05 0.000000e+00 0.000000e+00 4.753056e+05 0.000000e+00 0.000000e+00 4.777940e+05 0.000000e+00 0.000000e+00 4.802437e+05 0.000000e+00 0.000000e+00 4.826554e+05 0.000000e+00 0.000000e+00 4.850296e+05 0.000000e+00 0.000000e+00 4.873668e+05 0.000000e+00 0.000000e+00 4.896678e+05 0.000000e+00 0.000000e+00 4.919330e+05 0.000000e+00 0.000000e+00 4.941629e+05 0.000000e+00 0.000000e+00 4.963583e+05 0.000000e+00 0.000000e+00 4.985195e+05 0.000000e+00 0.000000e+00 5.006471e+05 0.000000e+00 0.000000e+00 5.027416e+05 0.000000e+00 0.000000e+00 5.048036e+05 0.000000e+00 0.000000e+00 5.068336e+05 0.000000e+00 0.000000e+00 5.088320e+05 0.000000e+00 0.000000e+00 5.107993e+05 0.000000e+00 0.000000e+00 5.127361e+05 0.000000e+00 0.000000e+00 5.146427e+05 0.000000e+00 0.000000e+00 5.165197e+05 0.000000e+00 0.000000e+00 5.183676e+05 0.000000e+00 0.000000e+00 5.201867e+05 0.000000e+00 0.000000e+00 5.219776e+05 0.000000e+00 0.000000e+00 5.237406e+05 0.000000e+00 0.000000e+00 5.254763e+05 0.000000e+00 0.000000e+00 5.271849e+05 0.000000e+00 0.000000e+00 5.288670e+05 0.000000e+00 0.000000e+00 5.305230e+05 0.000000e+00 0.000000e+00 5.321532e+05 0.000000e+00 0.000000e+00 5.337581e+05 0.000000e+00 0.000000e+00 5.353380e+05 0.000000e+00 0.000000e+00 5.368934e+05 0.000000e+00 0.000000e+00 5.384246e+05 0.000000e+00 0.000000e+00 5.399320e+05 0.000000e+00 0.000000e+00 5.414160e+05 0.000000e+00 0.000000e+00 5.428769e+05 0.000000e+00 0.000000e+00 5.443152e+05 0.000000e+00 0.000000e+00 5.457310e+05 0.000000e+00 0.000000e+00 5.471249e+05 0.000000e+00 0.000000e+00 5.484971e+05 0.000000e+00 0.000000e+00 5.498480e+05 0.000000e+00 0.000000e+00 5.511778e+05 0.000000e+00 0.000000e+00 5.524870e+05 0.000000e+00 0.000000e+00 5.537759e+05 0.000000e+00 0.000000e+00 5.550447e+05 0.000000e+00 0.000000e+00 5.562938e+05 0.000000e+00 0.000000e+00 5.575235e+05 0.000000e+00 0.000000e+00 5.587341e+05 0.000000e+00 0.000000e+00 5.599259e+05 0.000000e+00 0.000000e+00 5.610991e+05 0.000000e+00 0.000000e+00 5.622541e+05 0.000000e+00 0.000000e+00 5.633912e+05 0.000000e+00 0.000000e+00 5.645106e+05 0.000000e+00 0.000000e+00 5.656126e+05 0.000000e+00 0.000000e+00 5.666974e+05 0.000000e+00 0.000000e+00 5.677655e+05 0.000000e+00 0.000000e+00 5.688169e+05 0.000000e+00 0.000000e+00 5.698519e+05 0.000000e+00 0.000000e+00 5.708709e+05 0.000000e+00 0.000000e+00 5.728686e+05 0.000000e+00 0.000000e+00 5.738632e+05 0.000000e+00 0.000000e+00 5.748577e+05 0.000000e+00 0.000000e+00 5.758523e+05 0.000000e+00 0.000000e+00 5.768469e+05 0.000000e+00 0.000000e+00 5.778414e+05 0.000000e+00 0.000000e+00 5.788360e+05 0.000000e+00 0.000000e+00 5.798305e+05 0.000000e+00 0.000000e+00 5.808251e+05 0.000000e+00 0.000000e+00 5.818197e+05 0.000000e+00 0.000000e+00 5.828142e+05 0.000000e+00 0.000000e+00 5.838088e+05 0.000000e+00 0.000000e+00 5.848034e+05 0.000000e+00 0.000000e+00 5.857979e+05 0.000000e+00 0.000000e+00 5.867925e+05 0.000000e+00 0.000000e+00 5.877871e+05 0.000000e+00 0.000000e+00 5.887816e+05 0.000000e+00 0.000000e+00 5.897762e+05 0.000000e+00 0.000000e+00 5.907707e+05 0.000000e+00 0.000000e+00 5.917653e+05 0.000000e+00 0.000000e+00 5.927599e+05 0.000000e+00 0.000000e+00 5.937544e+05 0.000000e+00 0.000000e+00 5.947490e+05 0.000000e+00 0.000000e+00 5.957436e+05 0.000000e+00 0.000000e+00 5.967381e+05 0.000000e+00 0.000000e+00 5.977327e+05 0.000000e+00 0.000000e+00 5.987273e+05 0.000000e+00 0.000000e+00 5.997218e+05 0.000000e+00 0.000000e+00 6.007164e+05 0.000000e+00 0.000000e+00 6.017109e+05 0.000000e+00 0.000000e+00 6.027055e+05 0.000000e+00 0.000000e+00 6.037001e+05 0.000000e+00 0.000000e+00 6.046946e+05 0.000000e+00 0.000000e+00 6.056892e+05 0.000000e+00 0.000000e+00 6.066838e+05 0.000000e+00 0.000000e+00 6.076783e+05 0.000000e+00 0.000000e+00 6.086729e+05 0.000000e+00 0.000000e+00 6.096675e+05 0.000000e+00 0.000000e+00 6.106620e+05 0.000000e+00 0.000000e+00 6.116566e+05 0.000000e+00 0.000000e+00 6.126511e+05 0.000000e+00 0.000000e+00 6.136457e+05 0.000000e+00 0.000000e+00 6.146403e+05 0.000000e+00 0.000000e+00 6.156348e+05 0.000000e+00 0.000000e+00 6.166294e+05 0.000000e+00 0.000000e+00 6.176240e+05 0.000000e+00 0.000000e+00 6.186185e+05 0.000000e+00 0.000000e+00 6.196131e+05 0.000000e+00 0.000000e+00 6.206077e+05 0.000000e+00 0.000000e+00 6.216022e+05 0.000000e+00 0.000000e+00 6.225968e+05 0.000000e+00 0.000000e+00 6.235913e+05 0.000000e+00 0.000000e+00 6.245859e+05 0.000000e+00 0.000000e+00 6.255805e+05 0.000000e+00 0.000000e+00 6.265750e+05 0.000000e+00 0.000000e+00 6.275696e+05 0.000000e+00 0.000000e+00 6.285642e+05 0.000000e+00 0.000000e+00 6.295587e+05 0.000000e+00 0.000000e+00 6.305533e+05 0.000000e+00 0.000000e+00 6.315479e+05 0.000000e+00 0.000000e+00 6.325424e+05 0.000000e+00 0.000000e+00 6.335370e+05 0.000000e+00 0.000000e+00 6.345315e+05 0.000000e+00 0.000000e+00 6.355261e+05 0.000000e+00 0.000000e+00 6.365207e+05 0.000000e+00 0.000000e+00 6.375152e+05 0.000000e+00 0.000000e+00 6.385098e+05 0.000000e+00 0.000000e+00 6.395044e+05 0.000000e+00 0.000000e+00 6.404989e+05 0.000000e+00 0.000000e+00 6.414935e+05 0.000000e+00 0.000000e+00 6.424881e+05 0.000000e+00 0.000000e+00 6.434826e+05 0.000000e+00 0.000000e+00 6.444772e+05 0.000000e+00 0.000000e+00 6.454717e+05 0.000000e+00 0.000000e+00 6.464663e+05 0.000000e+00 0.000000e+00 6.474609e+05 0.000000e+00 0.000000e+00 6.484554e+05 0.000000e+00 0.000000e+00 6.494500e+05 0.000000e+00 0.000000e+00 6.504446e+05 0.000000e+00 0.000000e+00 6.514391e+05 0.000000e+00 0.000000e+00 6.524337e+05 0.000000e+00 0.000000e+00 6.534283e+05 0.000000e+00 0.000000e+00 6.544228e+05 0.000000e+00 0.000000e+00 6.554174e+05 0.000000e+00 0.000000e+00 6.564119e+05 0.000000e+00 0.000000e+00 6.574065e+05 0.000000e+00 0.000000e+00 6.584011e+05 0.000000e+00 0.000000e+00 6.593956e+05 0.000000e+00 0.000000e+00 6.603902e+05 0.000000e+00 0.000000e+00 6.613848e+05 0.000000e+00 0.000000e+00 6.623793e+05 0.000000e+00 0.000000e+00 6.633739e+05 0.000000e+00 0.000000e+00 6.643685e+05 0.000000e+00 0.000000e+00 6.653630e+05 0.000000e+00 0.000000e+00 6.663576e+05 0.000000e+00 0.000000e+00 6.673521e+05 0.000000e+00 0.000000e+00 6.683467e+05 0.000000e+00 0.000000e+00 6.693413e+05 0.000000e+00 0.000000e+00 6.703358e+05 0.000000e+00 0.000000e+00 6.713304e+05 0.000000e+00 0.000000e+00 6.723250e+05 0.000000e+00 0.000000e+00 6.733195e+05 0.000000e+00 0.000000e+00 6.743141e+05 0.000000e+00 0.000000e+00 6.753087e+05 0.000000e+00 0.000000e+00 6.763032e+05 0.000000e+00 0.000000e+00 6.772978e+05 0.000000e+00 0.000000e+00 6.782923e+05 0.000000e+00 0.000000e+00 6.792869e+05 0.000000e+00 0.000000e+00 6.802815e+05 0.000000e+00 0.000000e+00 6.812760e+05 0.000000e+00 0.000000e+00 6.822706e+05 0.000000e+00 0.000000e+00 6.832652e+05 0.000000e+00 0.000000e+00 6.842597e+05 0.000000e+00 0.000000e+00 6.852543e+05 0.000000e+00 0.000000e+00 6.872463e+05 0.000000e+00 0.000000e+00 6.882438e+05 0.000000e+00 0.000000e+00 6.892412e+05 0.000000e+00 0.000000e+00 6.902387e+05 0.000000e+00 0.000000e+00 6.912361e+05 0.000000e+00 0.000000e+00 6.922336e+05 0.000000e+00 0.000000e+00 6.932310e+05 0.000000e+00 0.000000e+00 6.942285e+05 0.000000e+00 0.000000e+00 6.952259e+05 0.000000e+00 0.000000e+00 6.962234e+05 0.000000e+00 0.000000e+00 6.972209e+05 0.000000e+00 0.000000e+00 6.982183e+05 0.000000e+00 0.000000e+00 6.992158e+05 0.000000e+00 0.000000e+00 7.002132e+05 0.000000e+00 0.000000e+00 7.012107e+05 0.000000e+00 0.000000e+00 7.022081e+05 0.000000e+00 0.000000e+00 7.032056e+05 0.000000e+00 0.000000e+00 7.042030e+05 0.000000e+00 0.000000e+00 7.052005e+05 0.000000e+00 0.000000e+00 7.061979e+05 0.000000e+00 0.000000e+00 7.071954e+05 0.000000e+00 0.000000e+00 7.081929e+05 0.000000e+00 0.000000e+00 7.091903e+05 0.000000e+00 0.000000e+00 7.101878e+05 0.000000e+00 0.000000e+00 7.111852e+05 0.000000e+00 0.000000e+00 7.121827e+05 0.000000e+00 0.000000e+00 7.131801e+05 0.000000e+00 0.000000e+00 7.141776e+05 0.000000e+00 0.000000e+00 7.151750e+05 0.000000e+00 0.000000e+00 7.161725e+05 0.000000e+00 0.000000e+00 7.171699e+05 0.000000e+00 0.000000e+00 7.181674e+05 0.000000e+00 0.000000e+00 7.191649e+05 0.000000e+00 0.000000e+00 7.201623e+05 0.000000e+00 0.000000e+00 7.211598e+05 0.000000e+00 0.000000e+00 7.221572e+05 0.000000e+00 0.000000e+00 7.231547e+05 0.000000e+00 0.000000e+00 7.241521e+05 0.000000e+00 0.000000e+00 7.251496e+05 0.000000e+00 0.000000e+00 7.261470e+05 0.000000e+00 0.000000e+00 7.271445e+05 0.000000e+00 0.000000e+00 7.281419e+05 0.000000e+00 0.000000e+00 7.301574e+05 0.000000e+00 0.000000e+00 7.312826e+05 0.000000e+00 0.000000e+00 7.325263e+05 0.000000e+00 0.000000e+00 7.339010e+05 0.000000e+00 0.000000e+00 7.354203e+05 0.000000e+00 0.000000e+00 7.370997e+05 0.000000e+00 0.000000e+00 7.389559e+05 0.000000e+00 0.000000e+00 7.410075e+05 0.000000e+00 0.000000e+00 7.432752e+05 0.000000e+00 0.000000e+00 7.457817e+05 0.000000e+00 0.000000e+00 7.485520e+05 0.000000e+00 0.000000e+00 7.516141e+05 0.000000e+00 0.000000e+00 7.549986e+05 0.000000e+00 0.000000e+00 7.587394e+05 0.000000e+00 0.000000e+00 7.628742e+05 0.000000e+00 0.000000e+00 7.674443e+05 0.000000e+00 0.000000e+00 7.724957e+05 0.000000e+00 0.000000e+00 7.780789e+05 0.000000e+00 0.000000e+00 7.842500e+05 0.000000e+00 0.000000e+00 7.910709e+05 0.000000e+00 0.000000e+00 7.986100e+05 0.000000e+00 0.000000e+00 8.069429e+05 0.000000e+00 0.000000e+00 9.875502e+03 1.000000e+03 0.000000e+00 1.959752e+04 1.000000e+03 0.000000e+00 2.916845e+04 1.000000e+03 0.000000e+00 3.859062e+04 1.000000e+03 0.000000e+00 4.786636e+04 1.000000e+03 0.000000e+00 5.699793e+04 1.000000e+03 0.000000e+00 6.598759e+04 1.000000e+03 0.000000e+00 7.483753e+04 1.000000e+03 0.000000e+00 8.354992e+04 1.000000e+03 0.000000e+00 9.212691e+04 1.000000e+03 0.000000e+00 1.005706e+05 1.000000e+03 0.000000e+00 1.088831e+05 1.000000e+03 0.000000e+00 1.170663e+05 1.000000e+03 0.000000e+00 1.251224e+05 1.000000e+03 0.000000e+00 1.330533e+05 1.000000e+03 0.000000e+00 1.408609e+05 1.000000e+03 0.000000e+00 1.485472e+05 1.000000e+03 0.000000e+00 1.561140e+05 1.000000e+03 0.000000e+00 1.635632e+05 1.000000e+03 0.000000e+00 1.708966e+05 1.000000e+03 0.000000e+00 1.781161e+05 1.000000e+03 0.000000e+00 1.852234e+05 1.000000e+03 0.000000e+00 1.922202e+05 1.000000e+03 0.000000e+00 1.991082e+05 1.000000e+03 0.000000e+00 2.058892e+05 1.000000e+03 0.000000e+00 2.125648e+05 1.000000e+03 0.000000e+00 2.191367e+05 1.000000e+03 0.000000e+00 2.256064e+05 1.000000e+03 0.000000e+00 2.319756e+05 1.000000e+03 0.000000e+00 2.382458e+05 1.000000e+03 0.000000e+00 2.444185e+05 1.000000e+03 0.000000e+00 2.504953e+05 1.000000e+03 0.000000e+00 2.564777e+05 1.000000e+03 0.000000e+00 2.623670e+05 1.000000e+03 0.000000e+00 2.681649e+05 1.000000e+03 0.000000e+00 2.738726e+05 1.000000e+03 0.000000e+00 2.794917e+05 1.000000e+03 0.000000e+00 2.850234e+05 1.000000e+03 0.000000e+00 2.904691e+05 1.000000e+03 0.000000e+00 2.958302e+05 1.000000e+03 0.000000e+00 3.011080e+05 1.000000e+03 0.000000e+00 3.063037e+05 1.000000e+03 0.000000e+00 3.114187e+05 1.000000e+03 0.000000e+00 3.164542e+05 1.000000e+03 0.000000e+00 3.214114e+05 1.000000e+03 0.000000e+00 3.262916e+05 1.000000e+03 0.000000e+00 3.310960e+05 1.000000e+03 0.000000e+00 3.358256e+05 1.000000e+03 0.000000e+00 3.404818e+05 1.000000e+03 0.000000e+00 3.450656e+05 1.000000e+03 0.000000e+00 3.495782e+05 1.000000e+03 0.000000e+00 3.540206e+05 1.000000e+03 0.000000e+00 3.583940e+05 1.000000e+03 0.000000e+00 3.626994e+05 1.000000e+03 0.000000e+00 3.669379e+05 1.000000e+03 0.000000e+00 3.711105e+05 1.000000e+03 0.000000e+00 3.752183e+05 1.000000e+03 0.000000e+00 3.792622e+05 1.000000e+03 0.000000e+00 3.832433e+05 1.000000e+03 0.000000e+00 3.871625e+05 1.000000e+03 0.000000e+00 3.910208e+05 1.000000e+03 0.000000e+00 3.948192e+05 1.000000e+03 0.000000e+00 3.985585e+05 1.000000e+03 0.000000e+00 4.022397e+05 1.000000e+03 0.000000e+00 4.058636e+05 1.000000e+03 0.000000e+00 4.094313e+05 1.000000e+03 0.000000e+00 4.129435e+05 1.000000e+03 0.000000e+00 4.164011e+05 1.000000e+03 0.000000e+00 4.198050e+05 1.000000e+03 0.000000e+00 4.231560e+05 1.000000e+03 0.000000e+00 4.264549e+05 1.000000e+03 0.000000e+00 4.297025e+05 1.000000e+03 0.000000e+00 4.328997e+05 1.000000e+03 0.000000e+00 4.360471e+05 1.000000e+03 0.000000e+00 4.391457e+05 1.000000e+03 0.000000e+00 4.421960e+05 1.000000e+03 0.000000e+00 4.451990e+05 1.000000e+03 0.000000e+00 4.481553e+05 1.000000e+03 0.000000e+00 4.510657e+05 1.000000e+03 0.000000e+00 4.539308e+05 1.000000e+03 0.000000e+00 4.567514e+05 1.000000e+03 0.000000e+00 4.595282e+05 1.000000e+03 0.000000e+00 4.622618e+05 1.000000e+03 0.000000e+00 4.649529e+05 1.000000e+03 0.000000e+00 4.676022e+05 1.000000e+03 0.000000e+00 4.702103e+05 1.000000e+03 0.000000e+00 4.727779e+05 1.000000e+03 0.000000e+00 4.753056e+05 1.000000e+03 0.000000e+00 4.777940e+05 1.000000e+03 0.000000e+00 4.802437e+05 1.000000e+03 0.000000e+00 4.826554e+05 1.000000e+03 0.000000e+00 4.850296e+05 1.000000e+03 0.000000e+00 4.873668e+05 1.000000e+03 0.000000e+00 4.896678e+05 1.000000e+03 0.000000e+00 4.919330e+05 1.000000e+03 0.000000e+00 4.941629e+05 1.000000e+03 0.000000e+00 4.963583e+05 1.000000e+03 0.000000e+00 4.985195e+05 1.000000e+03 0.000000e+00 5.006471e+05 1.000000e+03 0.000000e+00 5.027416e+05 1.000000e+03 0.000000e+00 5.048036e+05 1.000000e+03 0.000000e+00 5.068336e+05 1.000000e+03 0.000000e+00 5.088320e+05 1.000000e+03 0.000000e+00 5.107993e+05 1.000000e+03 0.000000e+00 5.127361e+05 1.000000e+03 0.000000e+00 5.146427e+05 1.000000e+03 0.000000e+00 5.165197e+05 1.000000e+03 0.000000e+00 5.183676e+05 1.000000e+03 0.000000e+00 5.201867e+05 1.000000e+03 0.000000e+00 5.219776e+05 1.000000e+03 0.000000e+00 5.237406e+05 1.000000e+03 0.000000e+00 5.254763e+05 1.000000e+03 0.000000e+00 5.271849e+05 1.000000e+03 0.000000e+00 5.288670e+05 1.000000e+03 0.000000e+00 5.305230e+05 1.000000e+03 0.000000e+00 5.321532e+05 1.000000e+03 0.000000e+00 5.337581e+05 1.000000e+03 0.000000e+00 5.353380e+05 1.000000e+03 0.000000e+00 5.368934e+05 1.000000e+03 0.000000e+00 5.384246e+05 1.000000e+03 0.000000e+00 5.399320e+05 1.000000e+03 0.000000e+00 5.414160e+05 1.000000e+03 0.000000e+00 5.428769e+05 1.000000e+03 0.000000e+00 5.443152e+05 1.000000e+03 0.000000e+00 5.457310e+05 1.000000e+03 0.000000e+00 5.471249e+05 1.000000e+03 0.000000e+00 5.484971e+05 1.000000e+03 0.000000e+00 5.498480e+05 1.000000e+03 0.000000e+00 5.511778e+05 1.000000e+03 0.000000e+00 5.524870e+05 1.000000e+03 0.000000e+00 5.537759e+05 1.000000e+03 0.000000e+00 5.550447e+05 1.000000e+03 0.000000e+00 5.562938e+05 1.000000e+03 0.000000e+00 5.575235e+05 1.000000e+03 0.000000e+00 5.587341e+05 1.000000e+03 0.000000e+00 5.599259e+05 1.000000e+03 0.000000e+00 5.610991e+05 1.000000e+03 0.000000e+00 5.622541e+05 1.000000e+03 0.000000e+00 5.633912e+05 1.000000e+03 0.000000e+00 5.645106e+05 1.000000e+03 0.000000e+00 5.656126e+05 1.000000e+03 0.000000e+00 5.666974e+05 1.000000e+03 0.000000e+00 5.677655e+05 1.000000e+03 0.000000e+00 5.688169e+05 1.000000e+03 0.000000e+00 5.698519e+05 1.000000e+03 0.000000e+00 5.708709e+05 1.000000e+03 0.000000e+00 0.000000e+00 5.000000e+02 0.000000e+00 5.718740e+05 5.000000e+02 0.000000e+00 5.728686e+05 1.000000e+03 0.000000e+00 5.738632e+05 1.000000e+03 0.000000e+00 5.748577e+05 1.000000e+03 0.000000e+00 5.758523e+05 1.000000e+03 0.000000e+00 5.768469e+05 1.000000e+03 0.000000e+00 5.778414e+05 1.000000e+03 0.000000e+00 5.788360e+05 1.000000e+03 0.000000e+00 5.798305e+05 1.000000e+03 0.000000e+00 5.808251e+05 1.000000e+03 0.000000e+00 5.818197e+05 1.000000e+03 0.000000e+00 5.828142e+05 1.000000e+03 0.000000e+00 5.838088e+05 1.000000e+03 0.000000e+00 5.848034e+05 1.000000e+03 0.000000e+00 5.857979e+05 1.000000e+03 0.000000e+00 5.867925e+05 1.000000e+03 0.000000e+00 5.877871e+05 1.000000e+03 0.000000e+00 5.887816e+05 1.000000e+03 0.000000e+00 5.897762e+05 1.000000e+03 0.000000e+00 5.907707e+05 1.000000e+03 0.000000e+00 5.917653e+05 1.000000e+03 0.000000e+00 5.927599e+05 1.000000e+03 0.000000e+00 5.937544e+05 1.000000e+03 0.000000e+00 5.947490e+05 1.000000e+03 0.000000e+00 5.957436e+05 1.000000e+03 0.000000e+00 5.967381e+05 1.000000e+03 0.000000e+00 5.977327e+05 1.000000e+03 0.000000e+00 5.987273e+05 1.000000e+03 0.000000e+00 5.997218e+05 1.000000e+03 0.000000e+00 6.007164e+05 1.000000e+03 0.000000e+00 6.017109e+05 1.000000e+03 0.000000e+00 6.027055e+05 1.000000e+03 0.000000e+00 6.037001e+05 1.000000e+03 0.000000e+00 6.046946e+05 1.000000e+03 0.000000e+00 6.056892e+05 1.000000e+03 0.000000e+00 6.066838e+05 1.000000e+03 0.000000e+00 6.076783e+05 1.000000e+03 0.000000e+00 6.086729e+05 1.000000e+03 0.000000e+00 6.096675e+05 1.000000e+03 0.000000e+00 6.106620e+05 1.000000e+03 0.000000e+00 6.116566e+05 1.000000e+03 0.000000e+00 6.126511e+05 1.000000e+03 0.000000e+00 6.136457e+05 1.000000e+03 0.000000e+00 6.146403e+05 1.000000e+03 0.000000e+00 6.156348e+05 1.000000e+03 0.000000e+00 6.166294e+05 1.000000e+03 0.000000e+00 6.176240e+05 1.000000e+03 0.000000e+00 6.186185e+05 1.000000e+03 0.000000e+00 6.196131e+05 1.000000e+03 0.000000e+00 6.206077e+05 1.000000e+03 0.000000e+00 6.216022e+05 1.000000e+03 0.000000e+00 6.225968e+05 1.000000e+03 0.000000e+00 6.235913e+05 1.000000e+03 0.000000e+00 6.245859e+05 1.000000e+03 0.000000e+00 6.255805e+05 1.000000e+03 0.000000e+00 6.265750e+05 1.000000e+03 0.000000e+00 6.275696e+05 1.000000e+03 0.000000e+00 6.285642e+05 1.000000e+03 0.000000e+00 6.295587e+05 1.000000e+03 0.000000e+00 6.305533e+05 1.000000e+03 0.000000e+00 6.315479e+05 1.000000e+03 0.000000e+00 6.325424e+05 1.000000e+03 0.000000e+00 6.335370e+05 1.000000e+03 0.000000e+00 6.345315e+05 1.000000e+03 0.000000e+00 6.355261e+05 1.000000e+03 0.000000e+00 6.365207e+05 1.000000e+03 0.000000e+00 6.375152e+05 1.000000e+03 0.000000e+00 6.385098e+05 1.000000e+03 0.000000e+00 6.395044e+05 1.000000e+03 0.000000e+00 6.404989e+05 1.000000e+03 0.000000e+00 6.414935e+05 1.000000e+03 0.000000e+00 6.424881e+05 1.000000e+03 0.000000e+00 6.434826e+05 1.000000e+03 0.000000e+00 6.444772e+05 1.000000e+03 0.000000e+00 6.454717e+05 1.000000e+03 0.000000e+00 6.464663e+05 1.000000e+03 0.000000e+00 6.474609e+05 1.000000e+03 0.000000e+00 6.484554e+05 1.000000e+03 0.000000e+00 6.494500e+05 1.000000e+03 0.000000e+00 6.504446e+05 1.000000e+03 0.000000e+00 6.514391e+05 1.000000e+03 0.000000e+00 6.524337e+05 1.000000e+03 0.000000e+00 6.534283e+05 1.000000e+03 0.000000e+00 6.544228e+05 1.000000e+03 0.000000e+00 6.554174e+05 1.000000e+03 0.000000e+00 6.564119e+05 1.000000e+03 0.000000e+00 6.574065e+05 1.000000e+03 0.000000e+00 6.584011e+05 1.000000e+03 0.000000e+00 6.593956e+05 1.000000e+03 0.000000e+00 6.603902e+05 1.000000e+03 0.000000e+00 6.613848e+05 1.000000e+03 0.000000e+00 6.623793e+05 1.000000e+03 0.000000e+00 6.633739e+05 1.000000e+03 0.000000e+00 6.643685e+05 1.000000e+03 0.000000e+00 6.653630e+05 1.000000e+03 0.000000e+00 6.663576e+05 1.000000e+03 0.000000e+00 6.673521e+05 1.000000e+03 0.000000e+00 6.683467e+05 1.000000e+03 0.000000e+00 6.693413e+05 1.000000e+03 0.000000e+00 6.703358e+05 1.000000e+03 0.000000e+00 6.713304e+05 1.000000e+03 0.000000e+00 6.723250e+05 1.000000e+03 0.000000e+00 6.733195e+05 1.000000e+03 0.000000e+00 6.743141e+05 1.000000e+03 0.000000e+00 6.753087e+05 1.000000e+03 0.000000e+00 6.763032e+05 1.000000e+03 0.000000e+00 6.772978e+05 1.000000e+03 0.000000e+00 6.782923e+05 1.000000e+03 0.000000e+00 6.792869e+05 1.000000e+03 0.000000e+00 6.802815e+05 1.000000e+03 0.000000e+00 6.812760e+05 1.000000e+03 0.000000e+00 6.822706e+05 1.000000e+03 0.000000e+00 6.832652e+05 1.000000e+03 0.000000e+00 6.842597e+05 1.000000e+03 0.000000e+00 6.852543e+05 1.000000e+03 0.000000e+00 6.862488e+05 5.000000e+02 0.000000e+00 6.872463e+05 1.000000e+03 0.000000e+00 6.882438e+05 1.000000e+03 0.000000e+00 6.892412e+05 1.000000e+03 0.000000e+00 6.902387e+05 1.000000e+03 0.000000e+00 6.912361e+05 1.000000e+03 0.000000e+00 6.922336e+05 1.000000e+03 0.000000e+00 6.932310e+05 1.000000e+03 0.000000e+00 6.942285e+05 1.000000e+03 0.000000e+00 6.952259e+05 1.000000e+03 0.000000e+00 6.962234e+05 1.000000e+03 0.000000e+00 6.972209e+05 1.000000e+03 0.000000e+00 6.982183e+05 1.000000e+03 0.000000e+00 6.992158e+05 1.000000e+03 0.000000e+00 7.002132e+05 1.000000e+03 0.000000e+00 7.012107e+05 1.000000e+03 0.000000e+00 7.022081e+05 1.000000e+03 0.000000e+00 7.032056e+05 1.000000e+03 0.000000e+00 7.042030e+05 1.000000e+03 0.000000e+00 7.052005e+05 1.000000e+03 0.000000e+00 7.061979e+05 1.000000e+03 0.000000e+00 7.071954e+05 1.000000e+03 0.000000e+00 7.081929e+05 1.000000e+03 0.000000e+00 7.091903e+05 1.000000e+03 0.000000e+00 7.101878e+05 1.000000e+03 0.000000e+00 7.111852e+05 1.000000e+03 0.000000e+00 7.121827e+05 1.000000e+03 0.000000e+00 7.131801e+05 1.000000e+03 0.000000e+00 7.141776e+05 1.000000e+03 0.000000e+00 7.151750e+05 1.000000e+03 0.000000e+00 7.161725e+05 1.000000e+03 0.000000e+00 7.171699e+05 1.000000e+03 0.000000e+00 7.181674e+05 1.000000e+03 0.000000e+00 7.191649e+05 1.000000e+03 0.000000e+00 7.201623e+05 1.000000e+03 0.000000e+00 7.211598e+05 1.000000e+03 0.000000e+00 7.221572e+05 1.000000e+03 0.000000e+00 7.231547e+05 1.000000e+03 0.000000e+00 7.241521e+05 1.000000e+03 0.000000e+00 7.251496e+05 1.000000e+03 0.000000e+00 7.261470e+05 1.000000e+03 0.000000e+00 7.271445e+05 1.000000e+03 0.000000e+00 7.281419e+05 1.000000e+03 0.000000e+00 7.291394e+05 5.000000e+02 0.000000e+00 7.301574e+05 1.000000e+03 0.000000e+00 7.312826e+05 1.000000e+03 0.000000e+00 7.325263e+05 1.000000e+03 0.000000e+00 7.339010e+05 1.000000e+03 0.000000e+00 7.354203e+05 1.000000e+03 0.000000e+00 7.370997e+05 1.000000e+03 0.000000e+00 7.389559e+05 1.000000e+03 0.000000e+00 7.410075e+05 1.000000e+03 0.000000e+00 7.432752e+05 1.000000e+03 0.000000e+00 7.457817e+05 1.000000e+03 0.000000e+00 7.485520e+05 1.000000e+03 0.000000e+00 7.516141e+05 1.000000e+03 0.000000e+00 7.549986e+05 1.000000e+03 0.000000e+00 7.587394e+05 1.000000e+03 0.000000e+00 7.628742e+05 1.000000e+03 0.000000e+00 7.674443e+05 1.000000e+03 0.000000e+00 7.724957e+05 1.000000e+03 0.000000e+00 7.780789e+05 1.000000e+03 0.000000e+00 7.842500e+05 1.000000e+03 0.000000e+00 7.910709e+05 1.000000e+03 0.000000e+00 7.986100e+05 1.000000e+03 0.000000e+00 8.069429e+05 1.000000e+03 0.000000e+00 8.161532e+05 5.000000e+02 0.000000e+00 9.875502e+03 5.000000e+02 0.000000e+00 1.959752e+04 5.000000e+02 0.000000e+00 2.916845e+04 5.000000e+02 0.000000e+00 3.859062e+04 5.000000e+02 0.000000e+00 4.786636e+04 5.000000e+02 0.000000e+00 5.699793e+04 5.000000e+02 0.000000e+00 6.598759e+04 5.000000e+02 0.000000e+00 7.483753e+04 5.000000e+02 0.000000e+00 8.354992e+04 5.000000e+02 0.000000e+00 9.212691e+04 5.000000e+02 0.000000e+00 1.005706e+05 5.000000e+02 0.000000e+00 1.088831e+05 5.000000e+02 0.000000e+00 1.170663e+05 5.000000e+02 0.000000e+00 1.251224e+05 5.000000e+02 0.000000e+00 1.330533e+05 5.000000e+02 0.000000e+00 1.408609e+05 5.000000e+02 0.000000e+00 1.485472e+05 5.000000e+02 0.000000e+00 1.561140e+05 5.000000e+02 0.000000e+00 1.635632e+05 5.000000e+02 0.000000e+00 1.708966e+05 5.000000e+02 0.000000e+00 1.781161e+05 5.000000e+02 0.000000e+00 1.852234e+05 5.000000e+02 0.000000e+00 1.922202e+05 5.000000e+02 0.000000e+00 1.991082e+05 5.000000e+02 0.000000e+00 2.058892e+05 5.000000e+02 0.000000e+00 2.125648e+05 5.000000e+02 0.000000e+00 2.191367e+05 5.000000e+02 0.000000e+00 2.256064e+05 5.000000e+02 0.000000e+00 2.319756e+05 5.000000e+02 0.000000e+00 2.382458e+05 5.000000e+02 0.000000e+00 2.444185e+05 5.000000e+02 0.000000e+00 2.504953e+05 5.000000e+02 0.000000e+00 2.564777e+05 5.000000e+02 0.000000e+00 2.623670e+05 5.000000e+02 0.000000e+00 2.681649e+05 5.000000e+02 0.000000e+00 2.738726e+05 5.000000e+02 0.000000e+00 2.794917e+05 5.000000e+02 0.000000e+00 2.850234e+05 5.000000e+02 0.000000e+00 2.904691e+05 5.000000e+02 0.000000e+00 2.958302e+05 5.000000e+02 0.000000e+00 3.011080e+05 5.000000e+02 0.000000e+00 3.063037e+05 5.000000e+02 0.000000e+00 3.114187e+05 5.000000e+02 0.000000e+00 3.164542e+05 5.000000e+02 0.000000e+00 3.214114e+05 5.000000e+02 0.000000e+00 3.262916e+05 5.000000e+02 0.000000e+00 3.310960e+05 5.000000e+02 0.000000e+00 3.358256e+05 5.000000e+02 0.000000e+00 3.404818e+05 5.000000e+02 0.000000e+00 3.450656e+05 5.000000e+02 0.000000e+00 3.495782e+05 5.000000e+02 0.000000e+00 3.540206e+05 5.000000e+02 0.000000e+00 3.583940e+05 5.000000e+02 0.000000e+00 3.626994e+05 5.000000e+02 0.000000e+00 3.669379e+05 5.000000e+02 0.000000e+00 3.711105e+05 5.000000e+02 0.000000e+00 3.752183e+05 5.000000e+02 0.000000e+00 3.792622e+05 5.000000e+02 0.000000e+00 3.832433e+05 5.000000e+02 0.000000e+00 3.871625e+05 5.000000e+02 0.000000e+00 3.910208e+05 5.000000e+02 0.000000e+00 3.948192e+05 5.000000e+02 0.000000e+00 3.985585e+05 5.000000e+02 0.000000e+00 4.022397e+05 5.000000e+02 0.000000e+00 4.058636e+05 5.000000e+02 0.000000e+00 4.094313e+05 5.000000e+02 0.000000e+00 4.129435e+05 5.000000e+02 0.000000e+00 4.164011e+05 5.000000e+02 0.000000e+00 4.198050e+05 5.000000e+02 0.000000e+00 4.231560e+05 5.000000e+02 0.000000e+00 4.264549e+05 5.000000e+02 0.000000e+00 4.297025e+05 5.000000e+02 0.000000e+00 4.328997e+05 5.000000e+02 0.000000e+00 4.360471e+05 5.000000e+02 0.000000e+00 4.391457e+05 5.000000e+02 0.000000e+00 4.421960e+05 5.000000e+02 0.000000e+00 4.451990e+05 5.000000e+02 0.000000e+00 4.481553e+05 5.000000e+02 0.000000e+00 4.510657e+05 5.000000e+02 0.000000e+00 4.539308e+05 5.000000e+02 0.000000e+00 4.567514e+05 5.000000e+02 0.000000e+00 4.595282e+05 5.000000e+02 0.000000e+00 4.622618e+05 5.000000e+02 0.000000e+00 4.649529e+05 5.000000e+02 0.000000e+00 4.676022e+05 5.000000e+02 0.000000e+00 4.702103e+05 5.000000e+02 0.000000e+00 4.727779e+05 5.000000e+02 0.000000e+00 4.753056e+05 5.000000e+02 0.000000e+00 4.777940e+05 5.000000e+02 0.000000e+00 4.802437e+05 5.000000e+02 0.000000e+00 4.826554e+05 5.000000e+02 0.000000e+00 4.850296e+05 5.000000e+02 0.000000e+00 4.873668e+05 5.000000e+02 0.000000e+00 4.896678e+05 5.000000e+02 0.000000e+00 4.919330e+05 5.000000e+02 0.000000e+00 4.941629e+05 5.000000e+02 0.000000e+00 4.963583e+05 5.000000e+02 0.000000e+00 4.985195e+05 5.000000e+02 0.000000e+00 5.006471e+05 5.000000e+02 0.000000e+00 5.027416e+05 5.000000e+02 0.000000e+00 5.048036e+05 5.000000e+02 0.000000e+00 5.068336e+05 5.000000e+02 0.000000e+00 5.088320e+05 5.000000e+02 0.000000e+00 5.107993e+05 5.000000e+02 0.000000e+00 5.127361e+05 5.000000e+02 0.000000e+00 5.146427e+05 5.000000e+02 0.000000e+00 5.165197e+05 5.000000e+02 0.000000e+00 5.183676e+05 5.000000e+02 0.000000e+00 5.201867e+05 5.000000e+02 0.000000e+00 5.219776e+05 5.000000e+02 0.000000e+00 5.237406e+05 5.000000e+02 0.000000e+00 5.254763e+05 5.000000e+02 0.000000e+00 5.271849e+05 5.000000e+02 0.000000e+00 5.288670e+05 5.000000e+02 0.000000e+00 5.305230e+05 5.000000e+02 0.000000e+00 5.321532e+05 5.000000e+02 0.000000e+00 5.337581e+05 5.000000e+02 0.000000e+00 5.353380e+05 5.000000e+02 0.000000e+00 5.368934e+05 5.000000e+02 0.000000e+00 5.384246e+05 5.000000e+02 0.000000e+00 5.399320e+05 5.000000e+02 0.000000e+00 5.414160e+05 5.000000e+02 0.000000e+00 5.428769e+05 5.000000e+02 0.000000e+00 5.443152e+05 5.000000e+02 0.000000e+00 5.457310e+05 5.000000e+02 0.000000e+00 5.471249e+05 5.000000e+02 0.000000e+00 5.484971e+05 5.000000e+02 0.000000e+00 5.498480e+05 5.000000e+02 0.000000e+00 5.511778e+05 5.000000e+02 0.000000e+00 5.524870e+05 5.000000e+02 0.000000e+00 5.537759e+05 5.000000e+02 0.000000e+00 5.550447e+05 5.000000e+02 0.000000e+00 5.562938e+05 5.000000e+02 0.000000e+00 5.575235e+05 5.000000e+02 0.000000e+00 5.587341e+05 5.000000e+02 0.000000e+00 5.599259e+05 5.000000e+02 0.000000e+00 5.610991e+05 5.000000e+02 0.000000e+00 5.622541e+05 5.000000e+02 0.000000e+00 5.633912e+05 5.000000e+02 0.000000e+00 5.645106e+05 5.000000e+02 0.000000e+00 5.656126e+05 5.000000e+02 0.000000e+00 5.666974e+05 5.000000e+02 0.000000e+00 5.677655e+05 5.000000e+02 0.000000e+00 5.688169e+05 5.000000e+02 0.000000e+00 5.698519e+05 5.000000e+02 0.000000e+00 5.708709e+05 5.000000e+02 0.000000e+00 5.728686e+05 5.000000e+02 0.000000e+00 5.738632e+05 5.000000e+02 0.000000e+00 5.748577e+05 5.000000e+02 0.000000e+00 5.758523e+05 5.000000e+02 0.000000e+00 5.768469e+05 5.000000e+02 0.000000e+00 5.778414e+05 5.000000e+02 0.000000e+00 5.788360e+05 5.000000e+02 0.000000e+00 5.798305e+05 5.000000e+02 0.000000e+00 5.808251e+05 5.000000e+02 0.000000e+00 5.818197e+05 5.000000e+02 0.000000e+00 5.828142e+05 5.000000e+02 0.000000e+00 5.838088e+05 5.000000e+02 0.000000e+00 5.848034e+05 5.000000e+02 0.000000e+00 5.857979e+05 5.000000e+02 0.000000e+00 5.867925e+05 5.000000e+02 0.000000e+00 5.877871e+05 5.000000e+02 0.000000e+00 5.887816e+05 5.000000e+02 0.000000e+00 5.897762e+05 5.000000e+02 0.000000e+00 5.907707e+05 5.000000e+02 0.000000e+00 5.917653e+05 5.000000e+02 0.000000e+00 5.927599e+05 5.000000e+02 0.000000e+00 5.937544e+05 5.000000e+02 0.000000e+00 5.947490e+05 5.000000e+02 0.000000e+00 5.957436e+05 5.000000e+02 0.000000e+00 5.967381e+05 5.000000e+02 0.000000e+00 5.977327e+05 5.000000e+02 0.000000e+00 5.987273e+05 5.000000e+02 0.000000e+00 5.997218e+05 5.000000e+02 0.000000e+00 6.007164e+05 5.000000e+02 0.000000e+00 6.017109e+05 5.000000e+02 0.000000e+00 6.027055e+05 5.000000e+02 0.000000e+00 6.037001e+05 5.000000e+02 0.000000e+00 6.046946e+05 5.000000e+02 0.000000e+00 6.056892e+05 5.000000e+02 0.000000e+00 6.066838e+05 5.000000e+02 0.000000e+00 6.076783e+05 5.000000e+02 0.000000e+00 6.086729e+05 5.000000e+02 0.000000e+00 6.096675e+05 5.000000e+02 0.000000e+00 6.106620e+05 5.000000e+02 0.000000e+00 6.116566e+05 5.000000e+02 0.000000e+00 6.126511e+05 5.000000e+02 0.000000e+00 6.136457e+05 5.000000e+02 0.000000e+00 6.146403e+05 5.000000e+02 0.000000e+00 6.156348e+05 5.000000e+02 0.000000e+00 6.166294e+05 5.000000e+02 0.000000e+00 6.176240e+05 5.000000e+02 0.000000e+00 6.186185e+05 5.000000e+02 0.000000e+00 6.196131e+05 5.000000e+02 0.000000e+00 6.206077e+05 5.000000e+02 0.000000e+00 6.216022e+05 5.000000e+02 0.000000e+00 6.225968e+05 5.000000e+02 0.000000e+00 6.235913e+05 5.000000e+02 0.000000e+00 6.245859e+05 5.000000e+02 0.000000e+00 6.255805e+05 5.000000e+02 0.000000e+00 6.265750e+05 5.000000e+02 0.000000e+00 6.275696e+05 5.000000e+02 0.000000e+00 6.285642e+05 5.000000e+02 0.000000e+00 6.295587e+05 5.000000e+02 0.000000e+00 6.305533e+05 5.000000e+02 0.000000e+00 6.315479e+05 5.000000e+02 0.000000e+00 6.325424e+05 5.000000e+02 0.000000e+00 6.335370e+05 5.000000e+02 0.000000e+00 6.345315e+05 5.000000e+02 0.000000e+00 6.355261e+05 5.000000e+02 0.000000e+00 6.365207e+05 5.000000e+02 0.000000e+00 6.375152e+05 5.000000e+02 0.000000e+00 6.385098e+05 5.000000e+02 0.000000e+00 6.395044e+05 5.000000e+02 0.000000e+00 6.404989e+05 5.000000e+02 0.000000e+00 6.414935e+05 5.000000e+02 0.000000e+00 6.424881e+05 5.000000e+02 0.000000e+00 6.434826e+05 5.000000e+02 0.000000e+00 6.444772e+05 5.000000e+02 0.000000e+00 6.454717e+05 5.000000e+02 0.000000e+00 6.464663e+05 5.000000e+02 0.000000e+00 6.474609e+05 5.000000e+02 0.000000e+00 6.484554e+05 5.000000e+02 0.000000e+00 6.494500e+05 5.000000e+02 0.000000e+00 6.504446e+05 5.000000e+02 0.000000e+00 6.514391e+05 5.000000e+02 0.000000e+00 6.524337e+05 5.000000e+02 0.000000e+00 6.534283e+05 5.000000e+02 0.000000e+00 6.544228e+05 5.000000e+02 0.000000e+00 6.554174e+05 5.000000e+02 0.000000e+00 6.564119e+05 5.000000e+02 0.000000e+00 6.574065e+05 5.000000e+02 0.000000e+00 6.584011e+05 5.000000e+02 0.000000e+00 6.593956e+05 5.000000e+02 0.000000e+00 6.603902e+05 5.000000e+02 0.000000e+00 6.613848e+05 5.000000e+02 0.000000e+00 6.623793e+05 5.000000e+02 0.000000e+00 6.633739e+05 5.000000e+02 0.000000e+00 6.643685e+05 5.000000e+02 0.000000e+00 6.653630e+05 5.000000e+02 0.000000e+00 6.663576e+05 5.000000e+02 0.000000e+00 6.673521e+05 5.000000e+02 0.000000e+00 6.683467e+05 5.000000e+02 0.000000e+00 6.693413e+05 5.000000e+02 0.000000e+00 6.703358e+05 5.000000e+02 0.000000e+00 6.713304e+05 5.000000e+02 0.000000e+00 6.723250e+05 5.000000e+02 0.000000e+00 6.733195e+05 5.000000e+02 0.000000e+00 6.743141e+05 5.000000e+02 0.000000e+00 6.753087e+05 5.000000e+02 0.000000e+00 6.763032e+05 5.000000e+02 0.000000e+00 6.772978e+05 5.000000e+02 0.000000e+00 6.782923e+05 5.000000e+02 0.000000e+00 6.792869e+05 5.000000e+02 0.000000e+00 6.802815e+05 5.000000e+02 0.000000e+00 6.812760e+05 5.000000e+02 0.000000e+00 6.822706e+05 5.000000e+02 0.000000e+00 6.832652e+05 5.000000e+02 0.000000e+00 6.842597e+05 5.000000e+02 0.000000e+00 6.852543e+05 5.000000e+02 0.000000e+00 6.872463e+05 5.000000e+02 0.000000e+00 6.882438e+05 5.000000e+02 0.000000e+00 6.892412e+05 5.000000e+02 0.000000e+00 6.902387e+05 5.000000e+02 0.000000e+00 6.912361e+05 5.000000e+02 0.000000e+00 6.922336e+05 5.000000e+02 0.000000e+00 6.932310e+05 5.000000e+02 0.000000e+00 6.942285e+05 5.000000e+02 0.000000e+00 6.952259e+05 5.000000e+02 0.000000e+00 6.962234e+05 5.000000e+02 0.000000e+00 6.972209e+05 5.000000e+02 0.000000e+00 6.982183e+05 5.000000e+02 0.000000e+00 6.992158e+05 5.000000e+02 0.000000e+00 7.002132e+05 5.000000e+02 0.000000e+00 7.012107e+05 5.000000e+02 0.000000e+00 7.022081e+05 5.000000e+02 0.000000e+00 7.032056e+05 5.000000e+02 0.000000e+00 7.042030e+05 5.000000e+02 0.000000e+00 7.052005e+05 5.000000e+02 0.000000e+00 7.061979e+05 5.000000e+02 0.000000e+00 7.071954e+05 5.000000e+02 0.000000e+00 7.081929e+05 5.000000e+02 0.000000e+00 7.091903e+05 5.000000e+02 0.000000e+00 7.101878e+05 5.000000e+02 0.000000e+00 7.111852e+05 5.000000e+02 0.000000e+00 7.121827e+05 5.000000e+02 0.000000e+00 7.131801e+05 5.000000e+02 0.000000e+00 7.141776e+05 5.000000e+02 0.000000e+00 7.151750e+05 5.000000e+02 0.000000e+00 7.161725e+05 5.000000e+02 0.000000e+00 7.171699e+05 5.000000e+02 0.000000e+00 7.181674e+05 5.000000e+02 0.000000e+00 7.191649e+05 5.000000e+02 0.000000e+00 7.201623e+05 5.000000e+02 0.000000e+00 7.211598e+05 5.000000e+02 0.000000e+00 7.221572e+05 5.000000e+02 0.000000e+00 7.231547e+05 5.000000e+02 0.000000e+00 7.241521e+05 5.000000e+02 0.000000e+00 7.251496e+05 5.000000e+02 0.000000e+00 7.261470e+05 5.000000e+02 0.000000e+00 7.271445e+05 5.000000e+02 0.000000e+00 7.281419e+05 5.000000e+02 0.000000e+00 7.301574e+05 5.000000e+02 0.000000e+00 7.312826e+05 5.000000e+02 0.000000e+00 7.325263e+05 5.000000e+02 0.000000e+00 7.339010e+05 5.000000e+02 0.000000e+00 7.354203e+05 5.000000e+02 0.000000e+00 7.370997e+05 5.000000e+02 0.000000e+00 7.389559e+05 5.000000e+02 0.000000e+00 7.410075e+05 5.000000e+02 0.000000e+00 7.432752e+05 5.000000e+02 0.000000e+00 7.457817e+05 5.000000e+02 0.000000e+00 7.485520e+05 5.000000e+02 0.000000e+00 7.516141e+05 5.000000e+02 0.000000e+00 7.549986e+05 5.000000e+02 0.000000e+00 7.587394e+05 5.000000e+02 0.000000e+00 7.628742e+05 5.000000e+02 0.000000e+00 7.674443e+05 5.000000e+02 0.000000e+00 7.724957e+05 5.000000e+02 0.000000e+00 7.780789e+05 5.000000e+02 0.000000e+00 7.842500e+05 5.000000e+02 0.000000e+00 7.910709e+05 5.000000e+02 0.000000e+00 7.986100e+05 5.000000e+02 0.000000e+00 8.069429e+05 5.000000e+02 0.000000e+00 
        </DataArray>
      </Points>
      <Cells>
        <DataArray type="Int32" Name="connectivity" NumberOfComponents="1" format="ascii">
0 10 663 480 480 663 334 5 10 11 664 663 663 664 335 334 11 12 665 664 664 665 336 335 12 13 666 665 665 666 337 336 13 14 667 666 666 667 338 337 14 15 668 667 667 668 339 338 15 16 669 668 668 669 340 339 16 17 670 669 669 670 341 340 17 18 671 670 670 671 342 341 18 19 672 671 671 672 343 342 19 20 673 672 672 673 344 343 20 21 674 673 673 674 345 344 21 22 675 674 674 675 346 345 22 23 676 675 675 676 347 346 23 24 677 676 676 677 348 347 24 25 678 677 677 678 349 348 25 26 679 678 678 679 350 349 26 27 680 679 679 680 351 350 27 28 681 680 680 681 352 351 28 29 682 681 681 682 353 352 29 30 683 682 682 683 354 353 30 31 684 683 683 684 355 354 31 32 685 684 684 685 356 355 32 33 686 685 685 686 357 356 33 34 687 686 686 687 358 357 34 35 688 687 687 688 359 358 35 36 689 688 688 689 360 359 36 37 690 689 689 690 361 360 37 38 691 690 690 691 362 361 38 39 692 691 691 692 363 362 39 40 693 692 692 693 364 363 40 41 694 693 693 694 365 364 41 42 695 694 694 695 366 365 42 43 696 695 695 696 367 366 43 44 697 696 696 697 368 367 44 45 698 697 697 698 369 368 45 46 699 698 698 699 370 369 46 47 700 699 699 700 371 370 47 48 701 700 700 701 372 371 48 49 702 701 701 702 373 372 49 50 703 702 702 703 374 373 50 51 704 703 703 704 375 374 51 52 705 704 704 705 376 375 52 53 706 705 705 706 377 376 53 54 707 706 706 707 378 377 54 55 708 707 707 708 379 378 55 56 709 708 708 709 380 379 56 57 710 709 709 710 381 380 57 58 711 710 710 711 382 381 58 59 712 711 711 712 383 382 59 60 713 712 712 713 384 383 60 61 714 713 713 714 385 384 61 62 715 714 714 715 386 385 62 63 716 715 715 716 387 386 63 64 717 716 716 717 388 387 64 65 718 717 717 718 389 388 65 66 719 718 718 719 390 389 66 67 720 719 719 720 391 390 67 68 721 720 720 721 392 391 68 69 722 721 721 722 393 392 69 70 723 722 722 723 394 393 70 71 724 723 723 724 395 394 71 72 725 724 724 725 396 395 72 73 726 725 725 726 397 396 73 74 727 726 726 727 398 397 74 75 728 727 727 728 399 398 75 76 729 728 728 729 400 399 76 77 730 729 729 730 401 400 77 78 731 730 730 731 402 401 78 79 732 731 731 732 403 402 79 80 733 732 732 733 404 403 80 81 734 733 733 734 405 404 81 82 735 734 734 735 406 405 82 83 736 735 735 736 407 406 83 84 737 736 736 737 408 407 84 85 738 737 737 738 409 408 85 86 739 738 738 739 410 409 86 87 740 739 739 740 411 410 87 88 741 740 740 741 412 411 88 89 742 741 741 742 413 412 89 90 743 742 742 743 414 413 90 91 744 743 743 744 415 414 91 92 745 744 744 745 416 415 92 93 746 745 745 746 417 416 93 94 747 746 746 747 418 417 94 95 748 747 747 748 419 418 95 96 749 748 748 749 420 419 96 97 750 749 749 750 421 420 97 98 751 750 750 751 422 421 98 99 752 751 751 752 423 422 99 100 753 752 752 753 424 423 100 101 754 753 753 754 425 424 101 102 755 754 754 755 426 425 102 103 756 755 755 756 427 426 103 104 757 756 756 757 428 427 104 105 758 757 757 758 429 428 105 106 759 758 758 759 430 429 106 107 760 759 759 760 431 430 107 108 761 760 760 761 432 431 108 109 762 761 761 762 433 432 109 110 763 762 762 763 434 433 110 111 764 763 763 764 435 434 111 112 765 764 764 765 436 435 112 113 766 765 765 766 437 436 113 114 767 766 766 767 438 437 114 115 768 767 767 768 439 438 115 116 769 768 768 769 440 439 116 117 770 769 769 770 441 440 117 118 771 770 770 771 442 441 118 119 772 771 771 772 443 442 119 120 773 772 772 773 444 443 120 121 774 773 773 774 445 444 121 122 775 774 774 775 446 445 122 123 776 775 775 776 447 446 123 124 777 776 776 777 448 447 124 125 778 777 777 778 449 448 125 126 779 778 778 779 450 449 126 127 780 779 779 780 451 450 127 128 781 780 780 781 452 451 128 129 782 781 781 782 453 452 129 130 783 782 782 783 454 453 130 131 784 783 783 784 455 454 131 132 785 784 784 785 456 455 132 133 786 785 785 786 457 456 133 134 787 786 786 787 458 457 134 135 788 787 787 788 459 458 135 136 789 788 788 789 460 459 136 137 790 789 789 790 461 460 137 138 791 790 790 791 462 461 138 139 792 791 791 792 463 462 139 140 793 792 792 793 464 463 140 141 794 793 793 794 465 464 141 142 795 794 794 795 466 465 142 143 796 795 795 796 467 466 143 144 797 796 796 797 468 467 144 145 798 797 797 798 469 468 145 146 799 798 798 799 470 469 146 147 800 799 799 800 471 470 147 148 801 800 800 801 472 471 148 149 802 801 801 802 473 472 149 150 803 802 802 803 474 473 150 151 804 803 803 804 475 474 151 152 805 804 804 805 476 475 152 153 806 805 805 806 477 476 153 154 807 806 806 807 478 477 154 155 808 807 807 808 479 478 155 1 481 808 808 481 6 479 1 156 809 481 481 809 482 6 156 157 810 809 809 810 483 482 157 158 811 810 810 811 484 483 158 159 812 811 811 812 485 484 159 160 813 812 812 813 486 485 160 161 814 813 813 814 487 486 161 162 815 814 814 815 488 487 162 163 816 815 815 816 489 488 163 164 817 816 816 817 490 489 164 165 818 817 817 818 491 490 165 166 819 818 818 819 492 491 166 167 820 819 819 820 493 492 167 168 821 820 820 821 494 493 168 169 822 821 821 822 495 494 169 170 823 822 822 823 496 495 170 171 824 823 823 824 497 496 171 172 825 824 824 825 498 497 172 173 826 825 825 826 499 498 173 174 827 826 826 827 500 499 174 175 828 827 827 828 501 500 175 176 829 828 828 829 502 501 176 177 830 829 829 830 503 502 177 178 831 830 830 831 504 503 178 179 832 831 831 832 505 504 179 180 833 832 832 833 506 505 180 181 834 833 833 834 507 506 181 182 835 834 834 835 508 507 182 183 836 835 835 836 509 508 183 184 837 836 836 837 510 509 184 185 838 837 837 838 511 510 185 186 839 838 838 839 512 511 186 187 840 839 839 840 513 512 187 188 841 840 840 841 514 513 188 189 842 841 841 842 515 514 189 190 843 842 842 843 516 515 190 191 844 843 843 844 517 516 191 192 845 844 844 845 518 517 192 193 846 845 845 846 519 518 193 194 847 846 846 847 520 519 194 195 848 847 847 848 521 520 195 196 849 848 848 849 522 521 196 197 850 849 849 850 523 522 197 198 851 850 850 851 524 523 198 199 852 851 851 852 525 524 199 200 853 852 852 853 526 525 200 201 854 853 853 854 527 526 201 202 855 854 854 855 528 527 202 203 856 855 855 856 529 528 203 204 857 856 856 857 530 529 204 205 858 857 857 858 531 530 205 206 859 858 858 859 532 531 206 207 860 859 859 860 533 532 207 208 861 860 860 861 534 533 208 209 862 861 861 862 535 534 209 210 863 862 862 863 536 535 210 211 864 863 863 864 537 536 211 212 865 864 864 865 538 537 212 213 866 865 865 866 539 538 213 214 867 866 866 867 540 539 214 215 868 867 867 868 541 540 215 216 869 868 868 869 542 541 216 217 870 869 869 870 543 542 217 218 871 870 870 871 544 543 218 219 872 871 871 872 545 544 219 220 873 872 872 873 546 545 220 221 874 873 873 874 547 546 221 222 875 874 874 875 548 547 222 223 876 875 875 876 549 548 223 224 877 876 876 877 550 549 224 225 878 877 877 878 551 550 225 226 879 878 878 879 552 551 226 227 880 879 879 880 553 552 227 228 881 880 880 881 554 553 228 229 882 881 881 882 555 554 229 230 883 882 882 883 556 555 230 231 884 883 883 884 557 556 231 232 885 884 884 885 558 557 232 233 886 885 885 886 559 558 233 234 887 886 886 887 560 559 234 235 888 887 887 888 561 560 235 236 889 888 888 889 562 561 236 237 890 889 889 890 563 562 237 238 891 890 890 891 564 563 238 239 892 891 891 892 565 564 239 240 893 892 892 893 566 565 240 241 894 893 893 894 567 566 241 242 895 894 894 895 568 567 242 243 896 895 895 896 569 568 243 244 897 896 896 897 570 569 244 245 898 897 897 898 571 570 245 246 899 898 898 899 572 571 246 247 900 899 899 900 573 572 247 248 901 900 900 901 574 573 248 249 902 901 901 902 575 574 249 250 903 902 902 903 576 575 250 251 904 903 903 904 577 576 251 252 905 904 904 905 578 577 252 253 906 905 905 906 579 578 253 254 907 906 906 907 580 579 254 255 908 907 907 908 581 580 255 256 909 908 908 909 582 581 256 257 910 909 909 910 583 582 257 258 911 910 910 911 584 583 258 259 912 911 911 912 585 584 259 260 913 912 912 913 586 585 260 261 914 913 913 914 587 586 261 262 915 914 914 915 588 587 262 263 916 915 915 916 589 588 263 264 917 916 916 917 590 589 264 265 918 917 917 918 591 590 265 266 919 918 918 919 592 591 266 267 920 919 919 920 593 592 267 268 921 920 920 921 594 593 268 269 922 921 921 922 595 594 269 2 596 922 922 596 7 595 2 270 923 596 596 923 597 7 270 271 924 923 923 924 598 597 271 272 925 924 924 925 599 598 272 273 926 925 925 926 600 599 273 274 927 926 926 927 601 600 274 275 928 927 927 928 602 601 275 276 929 928 928 929 603 602 276 277 930 929 929 930 604 603 277 278 931 930 930 931 605 604 278 279 932 931 931 932 606 605 279 280 933 932 932 933 607 606 280 281 934 933 933 934 608 607 281 282 935 934 934 935 609 608 282 283 936 935 935 936 610 609 283 284 937 936 936 937 611 610 284 285 938 937 937 938 612 611 285 286 939 938 938 939 613 612 286 287 940 939 939 940 614 613 287 288 941 940 940 941 615 614 288 289 942 941 941 942 616 615 289 290 943 942 942 943 617 616 290 291 944 943 943 944 618 617 291 292 945 944 944 945 619 618 292 293 946 945 945 946 620 619 293 294 947 946 946 947 621 620 294 295 948 947 947 948 622 621 295 296 949 948 948 949 623 622 296 297 950 949 949 950 624 623 297 298 951 950 950 951 625 624 298 299 952 951 951 952 626 625 299 300 953 952 952 953 627 626 300 301 954 953 953 954 628 627 301 302 955 954 954 955 629 628 302 303 956 955 955 956 630 629 303 304 957 956 956 957 631 630 304 305 958 957 957 958 632 631 305 306 959 958 958 959 633 632 306 307 960 959 959 960 634 633 307 308 961 960 960 961 635 634 308 309 962 961 961 962 636 635 309 310 963 962 962 963 637 636 310 311 964 963 963 964 638 637 311 3 639 964 964 639 8 638 3 312 965 639 639 965 640 8 312 313 966 965 965 966 641 640 313 314 967 966 966 967 642 641 314 315 968 967 967 968 643 642 315 316 969 968 968 969 644 643 316 317 970 969 969 970 645 644 317 318 971 970 970 971 646 645 318 319 972 971 971 972 647 646 319 320 973 972 972 973 648 647 320 321 974 973 973 974 649 648 321 322 975 974 974 975 650 649 322 323 976 975 975 976 651 650 323 324 977 976 976 977 652 651 324 325 978 977 977 978 653 652 325 326 979 978 978 979 654 653 326 327 980 979 979 980 655 654 327 328 981 980 980 981 656 655 328 329 982 981 981 982 657 656 329 330 983 982 982 983 658 657 330 331 984 983 983 984 659 658 331 332 985 984 984 985 660 659 332 333 986 985 985 986 661 660 333 4 662 986 986 662 9 661 0 10 10 11 11 12 12 13 13 14 14 15 15 16 16 17 17 18 18 19 19 20 20 21 21 22 22 23 23 24 24 25 25 26 26 27 27 28 28 29 29 30 30 31 31 32 32 33 33 34 34 35 35 36 36 37 37 38 38 39 39 40 40 41 41 42 42 43 43 44 44 45 45 46 46 47 47 48 48 49 49 50 50 51 51 52 52 53 53 54 54 55 55 56 56 57 57 58 58 59 59 60 60 61 61 62 62 63 63 64 64 65 65 66 66 67 67 68 68 69 69 70 70 71 71 72 72 73 73 74 74 75 75 76 76 77 77 78 78 79 79 80 80 81 81 82 82 83 83 84 84 85 85 86 86 87 87 88 88 89 89 90 90 91 91 92 92 93 93 94 94 95 95 96 96 97 97 98 98 99 99 100 100 101 101 102 102 103 103 104 104 105 105 106 106 107 107 108 108 109 109 110 110 111 111 112 112 113 113 114 114 115 115 116 116 117 117 118 118 119 119 120 120 121 121 122 122 123 123 124 124 125 125 126 126 127 127 128 128 129 129 130 130 131 131 132 132 133 133 134 134 135 135 136 136 137 137 138 138 139 139 140 140 141 141 142 142 143 143 144 144 145 145 146 146 147 147 148 148 149 149 150 150 151 151 152 152 153 153 154 154 155 155 1 1 156 156 157 157 158 158 159 159 160 160 161 161 162 162 163 163 164 164 165 165 166 166 167 167 168 168 169 169 170 170 171 171 172 172 173 173 174 174 175 175 176 176 177 177 178 178 179 179 180 180 181 181 182 182 183 183 184 184 185 185 186 186 187 187 188 188 189 189 190 190 191 191 192 192 193 193 194 194 195 195 196 196 197 197 198 198 199 199 200 200 201 201 202 202 203 203 204 204 205 205 206 206 207 207 208 208 209 209 210 210 211 211 212 212 213 213 214 214 215 215 216 216 217 217 218 218 219 219 220 220 221 221 222 222 223 223 224 224 225 225 226 226 227 227 228 228 229 229 230 230 231 231 232 232 233 233 234 234 235 235 236 236 237 237 238 238 239 239 240 240 241 241 242 242 243 243 244 244 245 245 246 246 247 247 248 248 249 249 250 250 251 251 252 252 253 253 254 254 255 255 256 256 257 257 258 258 259 259 260 260 261 261 262 262 263 263 264 264 265 265 266 266 267 267 268 268 269 269 2 2 270 270 271 271 272 272 273 273 274 274 275 275 276 276 277 277 278 278 279 279 280 280 281 281 282 282 283 283 284 284 285 285 286 286 287 287 288 288 289 289 290 290 291 291 292 292 293 293 294 294 295 295 296 296 297 297 298 298 299 299 300 300 301 301 302 302 303 303 304 304 305 305 306 306 307 307 308 308 309 309 310 310 311 311 3 3 312 312 313 313 314 314 315 315 316 316 317 317 318 318 319 319 320 320 321 321 322 322 323 323 324 324 325 325 326 326 327 327 328 328 329 329 330 330 331 331 332 332 333 333 4 5 334 334 335 335 336 336 337 337 338 338 339 339 340 340 341 341 342 342 343 343 344 344 345 345 346 346 347 347 348 348 349 349 350 350 351 351 352 352 353 353 354 354 355 355 356 356 357 357 358 358 359 359 360 360 361 361 362 362 363 363 364 364 365 365 366 366 367 367 368 368 369 369 370 370 371 371 372 372 373 373 374 374 375 375 376 376 377 377 378 378 379 379 380 380 381 381 382 382 383 383 384 384 385 385 386 386 387 387 388 388 389 389 390 390 391 391 392 392 393 393 394 394 395 395 396 396 397 397 398 398 399 399 400 400 401 401 402 402 403 403 404 404 405 405 406 406 407 407 408 408 409 409 410 410 411 411 412 412 413 413 414 414 415 415 416 416 417 417 418 418 419 419 420 420 421 421 422 422 423 423 424 424 425 425 426 426 427 427 428 428 429 429 430 430 431 431 432 432 433 433 434 434 435 435 436 436 437 437 438 438 439 439 440 440 441 441 442 442 443 443 444 444 445 445 446 446 447 447 448 448 449 449 450 450 451 451 452 452 453 453 454 454 455 455 456 456 457 457 458 458 459 459 460 460 461 461 462 462 463 463 464 464 465 465 466 466 467 467 468 468 469 469 470 470 471 471 472 472 473 473 474 474 475 475 476 476 477 477 478 478 479 479 6 0 480 480 5 6 482 482 483 483 484 484 485 485 486 486 487 487 488 488 489 489 490 490 491 491 492 492 493 493 494 494 495 495 496 496 497 497 498 498 499 499 500 500 501 501 502 502 503 503 504 504 505 505 506 506 507 507 508 508 509 509 510 510 511 511 512 512 513 513 514 514 515 515 516 516 517 517 518 518 519 519 520 520 521 521 522 522 523 523 524 524 525 525 526 526 527 527 528 528 529 529 530 530 531 531 532 532 533 533 534 534 535 535 536 536 537 537 538 538 539 539 540 540 541 541 542 542 543 543 544 544 545 545 546 546 547 547 548 548 549 549 550 550 551 551 552 552 553 553 554 554 555 555 556 556 557 557 558 558 559 559 560 560 561 561 562 562 563 563 564 564 565 565 566 566 567 567 568 568 569 569 570 570 571 571 572 572 573 573 574 574 575 575 576 576 577 577 578 578 579 579 580 580 581 581 582 582 583 583 584 584 585 585 586 586 587 587 588 588 589 589 590 590 591 591 592 592 593 593 594 594 595 595 7 7 597 597 598 598 599 599 600 600 601 601 602 602 603 603 604 604 605 605 606 606 607 607 608 608 609 609 610 610 611 611 612 612 613 613 614 614 615 615 616 616 617 617 618 618 619 619 620 620 621 621 622 622 623 623 624 624 625 625 626 626 627 627 628 628 629 629 630 630 631 631 632 632 633 633 634 634 635 635 636 636 637 637 638 638 8 8 640 640 641 641 642 642 643 643 644 644 645 645 646 646 647 647 648 648 649 649 650 650 651 651 652 652 653 653 654 654 655 655 656 656 657 657 658 658 659 659 660 660 661 661 9 4 662 662 9 
        </DataArray>
        <DataArray type="Int32" Name="offsets" NumberOfComponents="1" format="ascii">
4 8 12 16 20 24 28 32 36 40 44 48 52 56 60 64 68 72 76 80 84 88 92 96 100 104 108 112 116 120 124 128 132 136 140 144 148 152 156 160 164 168 172 176 180 184 188 192 196 200 204 208 212 216 220 224 228 232 236 240 244 248 252 256 260 264 268 272 276 280 284 288 292 296 300 304 308 312 316 320 324 328 332 336 340 344 348 352 356 360 364 368 372 376 380 384 388 392 396 400 404 408 412 416 420 424 428 432 436 440 444 448 452 456 460 464 468 472 476 480 484 488 492 496 500 504 508 512 516 520 524 528 532 536 540 544 548 552 556 560 564 568 572 576 580 584 588 592 596 600 604 608 612 616 620 624 628 632 636 640 644 648 652 656 660 664 668 672 676 680 684 688 692 696 700 704 708 712 716 720 724 728 732 736 740 744 748 752 756 760 764 768 772 776 780 784 788 792 796 800 804 808 812 816 820 824 828 832 836 840 844 848 852 856 860 864 868 872 876 880 884 888 892 896 900 904 908 912 916 920 924 928 932 936 940 944 948 952 956 960 964 968 972 976 980 984 988 992 996 1000 1004 1008 1012 1016 1020 1024 1028 1032 1036 1040 1044 1048 1052 1056 1060 1064 1068 1072 1076 1080 1084 1088 1092 1096 1100 1104 1108 1112 1116 1120 1124 1128 1132 1136 1140 1144 1148 1152 1156 1160 1164 1168 1172 1176 1180 1184 1188 1192 1196 1200 1204 1208 1212 1216 1220 1224 1228 1232 1236 1240 1244 1248 1252 1256 1260 1264 1268 1272 1276 1280 1284 1288 1292 1296 1300 1304 1308 1312 1316 1320 1324 1328 1332 1336 1340 1344 1348 1352 1356 1360 1364 1368 1372 1376 1380 1384 1388 1392 1396 1400 1404 1408 1412 1416 1420 1424 1428 1432 1436 1440 1444 1448 1452 1456 1460 1464 1468 1472 1476 1480 1484 1488 1492 1496 1500 1504 1508 1512 1516 1520 1524 1528 1532 1536 1540 1544 1548 1552 1556 1560 1564 1568 1572 1576 1580 1584 1588 1592 1596 1600 1604 1608 1612 1616 1620 1624 1628 1632 1636 1640 1644 1648 1652 1656 1660 1664 1668 1672 1676 1680 1684 1688 1692 1696 1700 1704 1708 1712 1716 1720 1724 1728 1732 1736 1740 1744 1748 1752 1756 1760 1764 1768 1772 1776 1780 1784 1788 1792 1796 1800 1804 1808 1812 1816 1820 1824 1828 1832 1836 1840 1844 1848 1852 1856 1860 1864 1868 1872 1876 1880 1884 1888 1892 1896 1900 1904 1908 1912 1916 1920 1924 1928 1932 1936 1940 1944 1948 1952 1956 1960 1964 1968 1972 1976 1980 1984 1988 1992 1996 2000 2004 2008 2012 2016 2020 2024 2028 2032 2036 2040 2044 2048 2052 2056 2060 2064 2068 2072 2076 2080 2084 2088 2092 2096 2100 2104 2108 2112 2116 2120 2124 2128 2132 2136 2140 2144 2148 2152 2156 2160 2164 2168 2172 2176 2180 2184 2188 2192 2196 2200 2204 2208 2212 2216 2220 2224 2228 2232 2236 2240 2244 2248 2252 2256 2260 2264 2268 2272 2276 2280 2284 2288 2292 2296 2300 2304 2308 2312 2316 2320 2324 2328 2332 2336 2340 2344 2348 2352 2356 2360 2364 2368 2372 2376 2380 2384 2388 2392 2396 2400 2404 2408 2412 2416 2420 2424 2428 2432 2436 2440 2444 2448 2452 2456 2460 2464 2468 2472 2476 2480 2484 2488 2492 2496 2500 2504 2508 2512 2516 2520 2524 2528 2532 2536 2540 2544 2548 2552 2556 2560 2564 2568 2572 2576 2580 2584 2588 2592 2596 2600 2604 2608 2612 2616 2620 2624 2626 2628 2630 2632 2634 2636 2638 2640 2642 2644 2646 2648 2650 2652 2654 2656 2658 2660 2662 2664 2666 2668 2670 2672 2674 2676 2678 2680 2682 2684 2686 2688 2690 2692 2694 2696 2698 2700 2702 2704 2706 2708 2710 2712 2714 2716 2718 2720 2722 2724 2726 2728 2730 2732 2734 2736 2738 2740 2742 2744 2746 2748 2750 2752 2754 2756 2758 2760 2762 2764 2766 2768 2770 2772 2774 2776 2778 2780 2782 2784 2786 2788 2790 2792 2794 2796 2798 2800 2802 2804 2806 2808 2810 2812 2814 2816 2818 2820 2822 2824 2826 2828 2830 2832 2834 2836 2838 2840 2842 2844 2846 2848 2850 2852 2854 2856 2858 2860 2862 2864 2866 2868 2870 2872 2874 2876 2878 2880 2882 2884 2886 2888 2890 2892 2894 2896 2898 2900 2902 2904 2906 2908 2910 2912 2914 2916 2918 2920 2922 2924 2926 2928 2930 2932 2934 2936 2938 2940 2942 2944 2946 2948 2950 2952 2954 2956 2958 2960 2962 2964 2966 2968 2970 2972 2974 2976 2978 2980 2982 2984 2986 2988 2990 2992 2994 2996 2998 3000 3002 3004 3006 3008 3010 3012 3014 3016 3018 3020 3022 3024 3026 3028 3030 3032 3034 3036 3038 3040 3042 3044 3046 3048 3050 3052 3054 3056 3058 3060 3062 3064 3066 3068 3070 3072 3074 3076 3078 3080 3082 3084 3086 3088 3090 3092 3094 3096 3098 3100 3102 3104 3106 3108 3110 3112 3114 3116 3118 3120 3122 3124 3126 3128 3130 3132 3134 3136 3138 3140 3142 3144 3146 3148 3150 3152 3154 3156 3158 3160 3162 3164 3166 3168 3170 3172 3174 3176 3178 3180 3182 3184 3186 3188 3190 3192 3194 3196 3198 3200 3202 3204 3206 3208 3210 3212 3214 3216 3218 3220 3222 3224 3226 3228 3230 3232 3234 3236 3238 3240 3242 3244 3246 3248 3250 3252 3254 3256 3258 3260 3262 3264 3266 3268 3270 3272 3274 3276 3278 3280 3282 3284 3286 3288 3290 3292 3294 3296 3298 3300 3302 3304 3306 3308 3310 3312 3314 3316 3318 3320 3322 3324 3326 3328 3330 3332 3334 3336 3338 3340 3342 3344 3346 3348 3350 3352 3354 3356 3358 3360 3362 3364 3366 3368 3370 3372 3374 3376 3378 3380 3382 3384 3386 3388 3390 3392 3394 3396 3398 3400 3402 3404 3406 3408 3410 3412 3414 3416 3418 3420 3422 3424 3426 3428 3430 3432 3434 3436 3438 3440 3442 3444 3446 3448 3450 3452 3454 3456 3458 3460 3462 3464 3466 3468 3470 3472 3474 3476 3478 3480 3482 3484 3486 3488 3490 3492 3494 3496 3498 3500 3502 3504 3506 3508 3510 3512 3514 3516 3518 3520 3522 3524 3526 3528 3530 3532 3534 3536 3538 3540 3542 3544 3546 3548 3550 3552 3554 3556 3558 3560 3562 3564 3566 3568 3570 3572 3574 3576 3578 3580 3582 3584 3586 3588 3590 3592 3594 3596 3598 3600 3602 3604 3606 3608 3610 3612 3614 3616 3618 3620 3622 3624 3626 3628 3630 3632 3634 3636 3638 3640 3642 3644 3646 3648 3650 3652 3654 3656 3658 3660 3662 3664 3666 3668 3670 3672 3674 3676 3678 3680 3682 3684 3686 3688 3690 3692 3694 3696 3698 3700 3702 3704 3706 3708 3710 3712 3714 3716 3718 3720 3722 3724 3726 3728 3730 3732 3734 3736 3738 3740 3742 3744 3746 3748 3750 3752 3754 3756 3758 3760 3762 3764 3766 3768 3770 3772 3774 3776 3778 3780 3782 3784 3786 3788 3790 3792 3794 3796 3798 3800 3802 3804 3806 3808 3810 3812 3814 3816 3818 3820 3822 3824 3826 3828 3830 3832 3834 3836 3838 3840 3842 3844 3846 3848 3850 3852 3854 3856 3858 3860 3862 3864 3866 3868 3870 3872 3874 3876 3878 3880 3882 3884 3886 3888 3890 3892 3894 3896 3898 3900 3902 3904 3906 3908 3910 3912 3914 3916 3918 3920 3922 3924 3926 3928 3930 3932 3934 3936 3938 3940 3942 3944 
        </DataArray>
        <DataArray type="Int32" Name="types" NumberOfComponents="1" format="ascii">
9 9 9 9 9 9 9 9 9 9 9 9 9 9 9 9 9 9 9 9 9 9 9 9 9 9 9 9 9 9 9 9 9 9 9 9 9 9 9 9 9 9 9 9 9 9 9 9 9 9 9 9 9 9 9 9 9 9 9 9 9 9 9 9 9 9 9 9 9 9 9 9 9 9 9 9 9 9 9 9 9 9 9 9 9 9 9 9 9 9 9 9 9 9 9 9 9 9 9 9 9 9 9 9 9 9 9 9 9 9 9 9 9 9 9 9 9 9 9 9 9 9 9 9 9 9 9 9 9 9 9 9 9 9 9 9 9 9 9 9 9 9 9 9 9 9 9 9 9 9 9 9 9 9 9 9 9 9 9 9 9 9 9 9 9 9 9 9 9 9 9 9 9 9 9 9 9 9 9 9 9 9 9 9 9 9 9 9 9 9 9 9 9 9 9 9 9 9 9 9 9 9 9 9 9 9 9 9 9 9 9 9 9 9 9 9 9 9 9 9 9 9 9 9 9 9 9 9 9 9 9 9 9 9 9 9 9 9 9 9 9 9 9 9 9 9 9 9 9 9 9 9 9 9 9 9 9 9 9 9 9 9 9 9 9 9 9 9 9 9 9 9 9 9 9 9 9 9 9 9 9 9 9 9 9 9 9 9 9 9 9 9 9 9 9 9 9 9 9 9 9 9 9 9 9 9 9 9 9 9 9 9 9 9 9 9 9 9 9 9 9 9 9 9 9 9 9 9 9 9 9 9 9 9 9 9 9 9 9 9 9 9 9 9 9 9 9 9 9 9 9 9 9 9 9 9 9 9 9 9 9 9 9 9 9 9 9 9 9 9 9 9 9 9 9 9 9 9 9 9 9 9 9 9 9 9 9 9 9 9 9 9 9 9 9 9 9 9 9 9 9 9 9 9 9 9 9 9 9 9 9 9 9 9 9 9 9 9 9 9 9 9 9 9 9 9 9 9 9 9 9 9 9 9 9 9 9 9 9 9 9 9 9 9 9 9 9 9 9 9 9 9 9 9 9 9 9 9 9 9 9 9 9 9 9 9 9 9 9 9 9 9 9 9 9 9 9 9 9 9 9 9 9 9 9 9 9 9 9 9 9 9 9 9 9 9 9 9 9 9 9 9 9 9 9 9 9 9 9 9 9 9 9 9 9 9 9 9 9 9 9 9 9 9 9 9 9 9 9 9 9 9 9 9 9 9 9 9 9 9 9 9 9 9 9 9 9 9 9 9 9 9 9 9 9 9 9 9 9 9 9 9 9 9 9 9 9 9 9 9 9 9 9 9 9 9 9 9 9 9 9 9 9 9 9 9 9 9 9 9 9 9 9 9 9 9 9 9 9 9 9 9 9 9 9 9 9 9 9 9 9 9 9 9 9 9 9 9 9 9 9 9 9 9 9 9 9 9 9 9 9 9 9 9 9 9 9 9 9 9 9 9 9 9 9 9 9 9 9 9 9 9 9 9 9 9 3 3 3 3 3 3 3 3 3 3 3 3 3 3 3 3 3 3 3 3 3 3 3 3 3 3 3 3 3 3 3 3 3 3 3 3 3 3 3 3 3 3 3 3 3 3 3 3 3 3 3 3 3 3 3 3 3 3 3 3 3 3 3 3 3 3 3 3 3 3 3 3 3 3 3 3 3 3 3 3 3 3 3 3 3 3 3 3 3 3 3 3 3 3 3 3 3 3 3 3 3 3 3 3 3 3 3 3 3 3 3 3 3 3 3 3 3 3 3 3 3 3 3 3 3 3 3 3 3 3 3 3 3 3 3 3 3 3 3 3 3 3 3 3 3 3 3 3 3 3 3 3 3 3 3 3 3 3 3 3 3 3 3 3 3 3 3 3 3 3 3 3 3 3 3 3 3 3 3 3 3 3 3 3 3 3 3 3 3 3 3 3 3 3 3 3 3 3 3 3 3 3 3 3 3 3 3 3 3 3 3 3 3 3 3 3 3 3 3 3 3 3 3 3 3 3 3 3 3 3 3 3 3 3 3 3 3 3 3 3 3 3 3 3 3 3 3 3 3 3 3 3 3 3 3 3 3 3 3 3 3 3 3 3 3 3 3 3 3 3 3 3 3 3 3 3 3 3 3 3 3 3 3 3 3 3 3 3 3 3 3 3 3 3 3 3 3 3 3 3 3 3 3 3 3 3 3 3 3 3 3 3 3 3 3 3 3 3 3 3 3 3 3 3 3 3 3 3 3 3 3 3 3 3 3 3 3 3 3 3 3 3 3 3 3 3 3 3 3 3 3 3 3 3 3 3 3 3 3 3 3 3 3 3 3 3 3 3 3 3 3 3 3 3 3 3 3 3 3 3 3 3 3 3 3 3 3 3 3 3 3 3 3 3 3 3 3 3 3 3 3 3 3 3 3 3 3 3 3 3 3 3 3 3 3 3 3 3 3 3 3 3 3 3 3 3 3 3 3 3 3 3 3 3 3 3 3 3 3 3 3 3 3 3 3 3 3 3 3 3 3 3 3 3 3 3 3 3 3 3 3 3 3 3 3 3 3 3 3 3 3 3 3 3 3 3 3 3 3 3 3 3 3 3 3 3 3 3 3 3 3 3 3 3 3 3 3 3 3 3 3 3 3 3 3 3 3 3 3 3 3 3 3 3 3 3 3 3 3 3 3 3 3 3 3 3 3 3 3 3 3 3 3 3 3 3 3 3 3 3 3 3 3 3 3 3 3 3 3 3 3 3 3 3 3 3 3 3 3 3 3 3 3 3 3 3 3 3 3 3 3 3 3 3 3 3 3 3 3 3 3 3 3 3 3 3 3 3 3 3 3 3 3 3 3 3 3 3 3 3 3 3 3 3 3 3 3 3 3 3 3 3 3 3 3 3 3 3 3 3 3 3 3 3 3 3 3 3 3 3 3 3 3 3 3 3 3 3 3 3 3 3 3 3 3 3 3 3 3 3 3 3 3 3 3 3 3 3 3 3 
        </DataArray>
      </Cells>
    </Piece>
  </UnstructuredGrid>
</VTKFile>
