$MeshFormat
4.1 0 8
$EndMeshFormat
$Entities
10 13 4 0
1 0 0 0 0 
2 571874.0412421208 0 0 0 
3 686248.8494905449 0 0 0 
4 729139.402583704 0 0 0 
5 816153.2402266143 0 0 0 
6 0 1000 0 0 
7 571874.0412421208 1000 0 0 
9 686248.8494905449 1000 0 0 
11 729139.402583704 1000 0 0 
13 816153.2402266143 1000 0 0 
1 0 0 0 571874.0412421208 0 0 1 24 2 1 -2 
2 571874.0412421208 0 0 686248.8494905449 0 0 1 24 2 2 -3 
3 686248.8494905449 0 0 729139.402583704 0 0 1 24 2 3 -4 
4 729139.402583704 0 0 816153.2402266143 0 0 1 24 2 4 -5 
5 0 1000 0 571874.0412421208 1000 0 1 25 2 6 -7 
6 0 0 0 0 1000 0 1 22 2 1 -6 
7 571874.0412421208 0 0 571874.0412421208 1000 0 0 2 2 -7 
9 571874.0412421208 1000 0 686248.8494905449 1000 0 1 25 2 7 -9 
11 686248.8494905449 0 0 686248.8494905449 1000 0 0 2 3 -9 
13 686248.8494905449 1000 0 729139.402583704 1000 0 1 25 2 9 -11 
15 729139.402583704 0 0 729139.402583704 1000 0 0 2 4 -11 
17 729139.402583704 1000 0 816153.2402266143 1000 0 1 25 2 11 -13 
19 816153.2402266143 0 0 816153.2402266143 1000 0 1 23 2 5 -13 
8 0 0 0 571874.0412421208 1000 0 1 21 4 1 7 -5 -6 
12 571874.0412421208 0 0 686248.8494905449 1000 0 1 21 4 2 11 -9 -7 
16 686248.8494905449 0 0 729139.402583704 1000 0 1 21 4 3 15 -13 -11 
20 729139.402583704 0 0 816153.2402266143 1000 0 1 21 4 4 19 -17 -15 
$EndEntities
$Nodes
27 987 1 987
0 1 0 1
1
0 0 0
0 2 0 1
2
571874.0412421208 0 0
0 3 0 1
3
686248.8494905449 0 0
0 4 0 1
4
729139.402583704 0 0
0 5 0 1
5
816153.2402266143 0 0
0 6 0 1
6
0 1000 0
0 7 0 1
7
571874.0412421208 1000 0
0 9 0 1
8
686248.8494905449 1000 0
0 11 0 1
9
729139.402583704 1000 0
0 13 0 1
10
816153.2402266143 1000 0
1 1 0 146
11
12
13
14
15
16
17
18
19
20
21
22
23
24
25
26
27
28
29
30
31
32
33
34
35
36
37
38
39
40
41
42
43
44
45
46
47
48
49
50
51
52
53
54
55
56
57
58
59
60
61
62
63
64
65
66
67
68
69
70
71
72
73
74
75
76
77
78
79
80
81
82
83
84
85
86
87
88
89
90
91
92
93
94
95
96
97
98
99
100
101
102
103
104
105
106
107
108
109
110
111
112
113
114
115
116
117
118
119
120
121
122
123
124
125
126
127
128
129
130
131
132
133
134
135
136
137
138
139
140
141
142
143
144
145
146
147
148
149
150
151
152
153
154
155
156
9875.501784681263 0 0
19597.52283980381 0 0
29168.44919546082 0 0
38590.62098439677 0 0
47866.35956078449 0 0
56997.93390839933 0 0
65987.58706877808 0 0
74837.52935902835 0 0
83549.92369153984 0 0
92126.91167503584 0 0
100570.5980345505 0 0
108883.0544787955 0 0
117066.3209442392 0 0
125122.4030888696 0 0
133053.2810014862 0 0
140860.8972358392 0 0
148547.1699854486 0 0
156113.9831426234 0 0
163563.1960471735 0 0
170896.6335117259 0 0
178116.0953571695 0 0
185223.3549400987 0 0
192220.154430948 0 0
199108.2117845495 0 0
205889.2154145321 0 0
212564.8313998628 0 0
219136.6950095589 0 0
225606.4197340732 0 0
231975.5947532298 0 0
238245.779552871 0 0
244418.5148269519 0 0
250495.3148160298 0 0
256477.6718588549 0 0
262367.0494522064 0 0
268164.89687738 0 0
273872.6360112606 0 0
279491.6654531264 0 0
285023.3664999864 0 0
290469.0940383743 0 0
295830.1841600295 0 0
301107.9540574318 0 0
306303.6982192787 0 0
311418.6921851496 0 0
316454.1878565828 0 0
321411.4235886767 0 0
326291.6155446418 0 0
331095.9597588565 0 0
335825.6349135847 0 0
340481.8034605554 0 0
345065.6085607656 0 0
349578.1693964904 0 0
354020.5989221284 0 0
358393.9864328894 0 0
362699.4020136544 0 0
366937.9036542997 0 0
371110.5316270101 0 0
375218.3093852698 0 0
379262.2445448488 0 0
383243.3299301461 0 0
387162.5422221075 0 0
391020.8422515277 0 0
394819.1777109725 0 0
398558.4802087221 0 0
402239.6677574206 0 0
405863.6422241852 0 0
409431.2939777594 0 0
412943.4974308762 0 0
416401.1153712549 0 0
419804.9955837305 0 0
423155.9733833601 0 0
426454.8710462451 0 0
429702.4978704904 0 0
432899.6503176487 0 0
436047.1135735274 0 0
439145.6595672212 0 0
442196.0487311166 0 0
445199.0292319207 0 0
448155.3376366897 0 0
451065.7004449852 0 0
453930.8307396488 0 0
456751.4310225301 0 0
459528.1943928665 0 0
462261.8019791495 0 0
464952.9245372009 0 0
467602.2219185843 0 0
470210.3445572659 0 0
472777.9329072011 0 0
475305.6150799795 0 0
477794.0130884573 0 0
480243.7372497503 0 0
482655.3882281549 0 0
485029.5575993586 0 0
487366.827900574 0 0
489667.7726945659 0 0
491932.9566485863 0 0
494162.9356292153 0 0
496358.2579069287 0 0
498519.4597665611 0 0
500647.0727387072 0 0
502741.6188315561 0 0
504803.6120072231 0 0
506833.5578665064 0 0
508831.9547812979 0 0
510799.292966217 0 0
512736.0552301068 0 0
514642.7167471882 0 0
516519.7453145248 0 0
518367.6015264716 0 0
520186.7384562797 0 0
521977.6031398133 0 0
523740.6343256257 0 0
525476.2644751676 0 0
527184.9201441635 0 0
528867.0202307738 0 0
530522.9773534037 0 0
532153.198287025 0 0
533758.0823422376 0 0
535338.023246816 0 0
536893.4093871416 0 0
538424.6219921524 0 0
539932.0368604917 0 0
541416.0237416324 0 0
542876.946638093 0 0
544315.1645379006 0 0
545731.0298059317 0 0
547124.8897249373 0 0
548497.0864053119 0 0
549847.9572448437 0 0
551177.8327503751 0 0
552487.0396258719 0 0
553775.8992866344 0 0
555044.7271655163 0 0
556293.8355763692 0 0
557523.530544616 0 0
558734.1140740769 0 0
559925.8824190147 0 0
561099.1288236857 0 0
562254.1410170867 0 0
563391.2023279644 0 0
564510.5913933826 0 0
565612.5829470871 0 0
566697.4480676588 0 0
567765.4521752382 0 0
568816.8574962744 0 0
569851.9221505362 0 0
570870.9001071854 0 0
1 2 0 114
157
158
159
160
161
162
163
164
165
166
167
168
169
170
171
172
173
174
175
176
177
178
179
180
181
182
183
184
185
186
187
188
189
190
191
192
193
194
195
196
197
198
199
200
201
202
203
204
205
206
207
208
209
210
211
212
213
214
215
216
217
218
219
220
221
222
223
224
225
226
227
228
229
230
231
232
233
234
235
236
237
238
239
240
241
242
243
244
245
246
247
248
249
250
251
252
253
254
255
256
257
258
259
260
261
262
263
264
265
266
267
268
269
270
572868.6047921067 0 0
573863.1683420925 0 0
574857.7318920707 0 0
575852.2954420417 0 0
576846.8589920276 0 0
577841.4225420135 0 0
578835.9860919993 0 0
579830.5496419852 0 0
580825.1131919707 0 0
581819.6767419343 0 0
582814.2402919203 0 0
583808.8038419061 0 0
584803.367391892 0 0
585797.9309418779 0 0
586792.4944918639 0 0
587787.0580418314 0 0
588781.6215918129 0 0
589776.1851417988 0 0
590770.7486917847 0 0
591765.3122417706 0 0
592759.8757917566 0 0
593754.4393417314 0 0
594749.0028917056 0 0
595743.5664416915 0 0
596738.1299916774 0 0
597732.6935416632 0 0
598727.2570916491 0 0
599721.8206416313 0 0
600716.3841915983 0 0
601710.9477415842 0 0
602705.51129157 0 0
603700.0748415559 0 0
604694.6383915418 0 0
605689.2019415278 0 0
606683.7654914919 0 0
607678.3290414768 0 0
608672.8925914627 0 0
609667.4561414486 0 0
610662.0196914345 0 0
611656.5832414204 0 0
612651.1467914063 0 0
613645.7103414092 0 0
614640.2738914009 0 0
615634.8374413868 0 0
616629.4009913726 0 0
617623.9645413585 0 0
618618.5280913373 0 0
619613.0916412979 0 0
620607.6551912585 0 0
621602.2187412339 0 0
622596.7822912198 0 0
623591.3458412058 0 0
624585.9093911917 0 0
625580.4729411799 0 0
626575.0364911861 0 0
627569.6000411721 0 0
628564.163591158 0 0
629558.7271411439 0 0
630553.2906911297 0 0
631547.8542411157 0 0
632542.417791122 0 0
633536.9813411102 0 0
634531.5448910962 0 0
635526.1084410821 0 0
636520.6719910679 0 0
637515.2355410538 0 0
638509.7990910527 0 0
639504.3626410484 0 0
640498.9261910343 0 0
641493.4897410201 0 0
642488.053291006 0 0
643482.616840992 0 0
644477.1803909779 0 0
645471.7439409638 0 0
646466.3074909606 0 0
647460.8710409583 0 0
648455.4345909442 0 0
649449.9981409301 0 0
650444.5616909161 0 0
651439.1252409247 0 0
652433.6887909105 0 0
653428.2523408965 0 0
654422.8158908824 0 0
655417.3794408683 0 0
656411.9429908541 0 0
657406.50654084 0 0
658401.0700908259 0 0
659395.6336408334 0 0
660390.1971908205 0 0
661384.7607408063 0 0
662379.3242907923 0 0
663373.8878407873 0 0
664368.4513907868 0 0
665363.0149407728 0 0
666357.5784907587 0 0
667352.1420407445 0 0
668346.7055907304 0 0
669341.2691407164 0 0
670335.8326907023 0 0
671330.396240695 0 0
672324.9597906967 0 0
673319.5233406827 0 0
674314.0868906686 0 0
675308.6504406545 0 0
676303.2139906602 0 0
677297.7775406491 0 0
678292.3410906349 0 0
679286.9046406208 0 0
680281.4681906067 0 0
681276.0317405927 0 0
682270.5952905786 0 0
683265.1588405644 0 0
684259.7223905679 0 0
685254.285940559 0 0
1 3 0 42
271
272
273
274
275
276
277
278
279
280
281
282
283
284
285
286
287
288
289
290
291
292
293
294
295
296
297
298
299
300
301
302
303
304
305
306
307
308
309
310
311
312
687246.3042136459 0 0
688243.7589367685 0 0
689241.2136598477 0 0
690238.6683829465 0 0
691236.1231060042 0 0
692233.5778291051 0 0
693231.0325521796 0 0
694228.4872752615 0 0
695225.9419983578 0 0
696223.3967214634 0 0
697220.8514445813 0 0
698218.3061676818 0 0
699215.7608908049 0 0
700213.2156138673 0 0
701210.6703369683 0 0
702208.1250600379 0 0
703205.5797831246 0 0
704203.0345062161 0 0
705200.4892292811 0 0
706197.9439523942 0 0
707195.3986754946 0 0
708192.8533986178 0 0
709190.3081217182 0 0
710187.7628448313 0 0
711185.2175678964 0 0
712182.6722909878 0 0
713180.1270140745 0 0
714177.5817371442 0 0
715175.0364602526 0 0
716172.491183353 0 0
717169.9459064761 0 0
718167.4006295765 0 0
719164.8553526944 0 0
720162.3100758002 0 0
721159.7647989006 0 0
722157.2195220237 0 0
723154.6742451242 0 0
724152.1289682447 0 0
725149.5836913023 0 0
726147.0384144011 0 0
727144.4931374803 0 0
728141.947860603 0 0
1 4 0 22
313
314
315
316
317
318
319
320
321
322
323
324
325
326
327
328
329
330
331
332
333
334
730157.417593113 0 0
731282.6247604174 0 0
732526.3104394305 0 0
733900.95030009 0 0
735420.3329969908 0 0
737099.6992541082 0 0
738955.8948118794 0 0
741007.5386467883 0 0
743275.2108025018 0 0
745781.6575909385 0 0
748552.0211693009 0 0
751614.0901566348 0 0
754998.5807127981 0 0
758739.4413222986 0 0
762874.1962299972 0 0
767444.3215011873 0 0
772495.6579976372 0 0
778078.8762985325 0 0
784249.9797621384 0 0
791070.8707139029 0 0
798609.9680677659 0 0
806942.8962242639 0 0
1 5 0 146
335
336
337
338
339
340
341
342
343
344
345
346
347
348
349
350
351
352
353
354
355
356
357
358
359
360
361
362
363
364
365
366
367
368
369
370
371
372
373
374
375
376
377
378
379
380
381
382
383
384
385
386
387
388
389
390
391
392
393
394
395
396
397
398
399
400
401
402
403
404
405
406
407
408
409
410
411
412
413
414
415
416
417
418
419
420
421
422
423
424
425
426
427
428
429
430
431
432
433
434
435
436
437
438
439
440
441
442
443
444
445
446
447
448
449
450
451
452
453
454
455
456
457
458
459
460
461
462
463
464
465
466
467
468
469
470
471
472
473
474
475
476
477
478
479
480
9875.501784681263 1000 0
19597.52283980381 1000 0
29168.44919546082 1000 0
38590.62098439677 1000 0
47866.35956078449 1000 0
56997.93390839933 1000 0
65987.58706877808 1000 0
74837.52935902835 1000 0
83549.92369153984 1000 0
92126.91167503584 1000 0
100570.5980345505 1000 0
108883.0544787955 1000 0
117066.3209442392 1000 0
125122.4030888696 1000 0
133053.2810014862 1000 0
140860.8972358392 1000 0
148547.1699854486 1000 0
156113.9831426234 1000 0
163563.1960471735 1000 0
170896.6335117259 1000 0
178116.0953571695 1000 0
185223.3549400987 1000 0
192220.154430948 1000 0
199108.2117845495 1000 0
205889.2154145321 1000 0
212564.8313998628 1000 0
219136.6950095589 1000 0
225606.4197340732 1000 0
231975.5947532298 1000 0
238245.779552871 1000 0
244418.5148269519 1000 0
250495.3148160298 1000 0
256477.6718588549 1000 0
262367.0494522064 1000 0
268164.89687738 1000 0
273872.6360112606 1000 0
279491.6654531264 1000 0
285023.3664999864 1000 0
290469.0940383743 1000 0
295830.1841600295 1000 0
301107.9540574318 1000 0
306303.6982192787 1000 0
311418.6921851496 1000 0
316454.1878565828 1000 0
321411.4235886767 1000 0
326291.6155446418 1000 0
331095.9597588565 1000 0
335825.6349135847 1000 0
340481.8034605554 1000 0
345065.6085607656 1000 0
349578.1693964904 1000 0
354020.5989221284 1000 0
358393.9864328894 1000 0
362699.4020136544 1000 0
366937.9036542997 1000 0
371110.5316270101 1000 0
375218.3093852698 1000 0
379262.2445448488 1000 0
383243.3299301461 1000 0
387162.5422221075 1000 0
391020.8422515277 1000 0
394819.1777109725 1000 0
398558.4802087221 1000 0
402239.6677574206 1000 0
405863.6422241852 1000 0
409431.2939777594 1000 0
412943.4974308762 1000 0
416401.1153712549 1000 0
419804.9955837305 1000 0
423155.9733833601 1000 0
426454.8710462451 1000 0
429702.4978704904 1000 0
432899.6503176487 1000 0
436047.1135735274 1000 0
439145.6595672212 1000 0
442196.0487311166 1000 0
445199.0292319207 1000 0
448155.3376366897 1000 0
451065.7004449852 1000 0
453930.8307396488 1000 0
456751.4310225301 1000 0
459528.1943928665 1000 0
462261.8019791495 1000 0
464952.9245372009 1000 0
467602.2219185843 1000 0
470210.3445572659 1000 0
472777.9329072011 1000 0
475305.6150799795 1000 0
477794.0130884573 1000 0
480243.7372497503 1000 0
482655.3882281549 1000 0
485029.5575993586 1000 0
487366.827900574 1000 0
489667.7726945659 1000 0
491932.9566485863 1000 0
494162.9356292153 1000 0
496358.2579069287 1000 0
498519.4597665611 1000 0
500647.0727387072 1000 0
502741.6188315561 1000 0
504803.6120072231 1000 0
506833.5578665064 1000 0
508831.9547812979 1000 0
510799.292966217 1000 0
512736.0552301068 1000 0
514642.7167471882 1000 0
516519.7453145248 1000 0
518367.6015264716 1000 0
520186.7384562797 1000 0
521977.6031398133 1000 0
523740.6343256257 1000 0
525476.2644751676 1000 0
527184.9201441635 1000 0
528867.0202307738 1000 0
530522.9773534037 1000 0
532153.198287025 1000 0
533758.0823422376 1000 0
535338.023246816 1000 0
536893.4093871416 1000 0
538424.6219921524 1000 0
539932.0368604917 1000 0
541416.0237416324 1000 0
542876.946638093 1000 0
544315.1645379006 1000 0
545731.0298059317 1000 0
547124.8897249373 1000 0
548497.0864053119 1000 0
549847.9572448437 1000 0
551177.8327503751 1000 0
552487.0396258719 1000 0
553775.8992866344 1000 0
555044.7271655163 1000 0
556293.8355763692 1000 0
557523.530544616 1000 0
558734.1140740769 1000 0
559925.8824190147 1000 0
561099.1288236857 1000 0
562254.1410170867 1000 0
563391.2023279644 1000 0
564510.5913933826 1000 0
565612.5829470871 1000 0
566697.4480676588 1000 0
567765.4521752382 1000 0
568816.8574962744 1000 0
569851.9221505362 1000 0
570870.9001071854 1000 0
1 6 0 1
481
0 500 0
1 7 0 1
482
571874.0412421208 500 0
1 9 0 114
483
484
485
486
487
488
489
490
491
492
493
494
495
496
497
498
499
500
501
502
503
504
505
506
507
508
509
510
511
512
513
514
515
516
517
518
519
520
521
522
523
524
525
526
527
528
529
530
531
532
533
534
535
536
537
538
539
540
541
542
543
544
545
546
547
548
549
550
551
552
553
554
555
556
557
558
559
560
561
562
563
564
565
566
567
568
569
570
571
572
573
574
575
576
577
578
579
580
581
582
583
584
585
586
587
588
589
590
591
592
593
594
595
596
572868.6047921067 1000 0
573863.1683420925 1000 0
574857.7318920707 1000 0
575852.2954420417 1000 0
576846.8589920276 1000 0
577841.4225420135 1000 0
578835.9860919993 1000 0
579830.5496419852 1000 0
580825.1131919707 1000 0
581819.6767419343 1000 0
582814.2402919203 1000 0
583808.8038419061 1000 0
584803.367391892 1000 0
585797.9309418779 1000 0
586792.4944918639 1000 0
587787.0580418314 1000 0
588781.6215918129 1000 0
589776.1851417988 1000 0
590770.7486917847 1000 0
591765.3122417706 1000 0
592759.8757917566 1000 0
593754.4393417314 1000 0
594749.0028917056 1000 0
595743.5664416915 1000 0
596738.1299916774 1000 0
597732.6935416632 1000 0
598727.2570916491 1000 0
599721.8206416313 1000 0
600716.3841915983 1000 0
601710.9477415842 1000 0
602705.51129157 1000 0
603700.0748415559 1000 0
604694.6383915418 1000 0
605689.2019415278 1000 0
606683.7654914919 1000 0
607678.3290414768 1000 0
608672.8925914627 1000 0
609667.4561414486 1000 0
610662.0196914345 1000 0
611656.5832414204 1000 0
612651.1467914063 1000 0
613645.7103414092 1000 0
614640.2738914009 1000 0
615634.8374413868 1000 0
616629.4009913726 1000 0
617623.9645413585 1000 0
618618.5280913373 1000 0
619613.0916412979 1000 0
620607.6551912585 1000 0
621602.2187412339 1000 0
622596.7822912198 1000 0
623591.3458412058 1000 0
624585.9093911917 1000 0
625580.4729411799 1000 0
626575.0364911861 1000 0
627569.6000411721 1000 0
628564.163591158 1000 0
629558.7271411439 1000 0
630553.2906911297 1000 0
631547.8542411157 1000 0
632542.417791122 1000 0
633536.9813411102 1000 0
634531.5448910962 1000 0
635526.1084410821 1000 0
636520.6719910679 1000 0
637515.2355410538 1000 0
638509.7990910527 1000 0
639504.3626410484 1000 0
640498.9261910343 1000 0
641493.4897410201 1000 0
642488.053291006 1000 0
643482.616840992 1000 0
644477.1803909779 1000 0
645471.7439409638 1000 0
646466.3074909606 1000 0
647460.8710409583 1000 0
648455.4345909442 1000 0
649449.9981409301 1000 0
650444.5616909161 1000 0
651439.1252409247 1000 0
652433.6887909105 1000 0
653428.2523408965 1000 0
654422.8158908824 1000 0
655417.3794408683 1000 0
656411.9429908541 1000 0
657406.50654084 1000 0
658401.0700908259 1000 0
659395.6336408334 1000 0
660390.1971908205 1000 0
661384.7607408063 1000 0
662379.3242907923 1000 0
663373.8878407873 1000 0
664368.4513907868 1000 0
665363.0149407728 1000 0
666357.5784907587 1000 0
667352.1420407445 1000 0
668346.7055907304 1000 0
669341.2691407164 1000 0
670335.8326907023 1000 0
671330.396240695 1000 0
672324.9597906967 1000 0
673319.5233406827 1000 0
674314.0868906686 1000 0
675308.6504406545 1000 0
676303.2139906602 1000 0
677297.7775406491 1000 0
678292.3410906349 1000 0
679286.9046406208 1000 0
680281.4681906067 1000 0
681276.0317405927 1000 0
682270.5952905786 1000 0
683265.1588405644 1000 0
684259.7223905679 1000 0
685254.285940559 1000 0
1 11 0 1
597
686248.8494905449 500 0
1 13 0 42
598
599
600
601
602
603
604
605
606
607
608
609
610
611
612
613
614
615
616
617
618
619
620
621
622
623
624
625
626
627
628
629
630
631
632
633
634
635
636
637
638
639
687246.3042136459 1000 0
688243.7589367685 1000 0
689241.2136598477 1000 0
690238.6683829465 1000 0
691236.1231060042 1000 0
692233.5778291051 1000 0
693231.0325521796 1000 0
694228.4872752615 1000 0
695225.9419983578 1000 0
696223.3967214634 1000 0
697220.8514445813 1000 0
698218.3061676818 1000 0
699215.7608908049 1000 0
700213.2156138673 1000 0
701210.6703369683 1000 0
702208.1250600379 1000 0
703205.5797831246 1000 0
704203.0345062161 1000 0
705200.4892292811 1000 0
706197.9439523942 1000 0
707195.3986754946 1000 0
708192.8533986178 1000 0
709190.3081217182 1000 0
710187.7628448313 1000 0
711185.2175678964 1000 0
712182.6722909878 1000 0
713180.1270140745 1000 0
714177.5817371442 1000 0
715175.0364602526 1000 0
716172.491183353 1000 0
717169.9459064761 1000 0
718167.4006295765 1000 0
719164.8553526944 1000 0
720162.3100758002 1000 0
721159.7647989006 1000 0
722157.2195220237 1000 0
723154.6742451242 1000 0
724152.1289682447 1000 0
725149.5836913023 1000 0
726147.0384144011 1000 0
727144.4931374803 1000 0
728141.947860603 1000 0
1 15 0 1
640
729139.402583704 500 0
1 17 0 22
641
642
643
644
645
646
647
648
649
650
651
652
653
654
655
656
657
658
659
660
661
662
730157.417593113 1000 0
731282.6247604174 1000 0
732526.3104394305 1000 0
733900.95030009 1000 0
735420.3329969908 1000 0
737099.6992541082 1000 0
738955.8948118794 1000 0
741007.5386467883 1000 0
743275.2108025018 1000 0
745781.6575909385 1000 0
748552.0211693009 1000 0
751614.0901566348 1000 0
754998.5807127981 1000 0
758739.4413222986 1000 0
762874.1962299972 1000 0
767444.3215011873 1000 0
772495.6579976372 1000 0
778078.8762985325 1000 0
784249.9797621384 1000 0
791070.8707139029 1000 0
798609.9680677659 1000 0
806942.8962242639 1000 0
1 19 0 1
663
816153.2402266143 500 0
2 8 0 146
664
665
666
667
668
669
670
671
672
673
674
675
676
677
678
679
680
681
682
683
684
685
686
687
688
689
690
691
692
693
694
695
696
697
698
699
700
701
702
703
704
705
706
707
708
709
710
711
712
713
714
715
716
717
718
719
720
721
722
723
724
725
726
727
728
729
730
731
732
733
734
735
736
737
738
739
740
741
742
743
744
745
746
747
748
749
750
751
752
753
754
755
756
757
758
759
760
761
762
763
764
765
766
767
768
769
770
771
772
773
774
775
776
777
778
779
780
781
782
783
784
785
786
787
788
789
790
791
792
793
794
795
796
797
798
799
800
801
802
803
804
805
806
807
808
809
9875.501784681263 500 0
19597.52283980381 500 0
29168.44919546082 500 0
38590.62098439677 500 0
47866.35956078449 500 0
56997.93390839933 500 0
65987.58706877808 500 0
74837.52935902835 500 0
83549.92369153984 500 0
92126.91167503584 500 0
100570.5980345505 500 0
108883.0544787955 500 0
117066.3209442392 500 0
125122.4030888696 500 0
133053.2810014862 500 0
140860.8972358392 500 0
148547.1699854486 500 0
156113.9831426234 500 0
163563.1960471735 500 0
170896.6335117259 500 0
178116.0953571695 500 0
185223.3549400987 500 0
192220.154430948 500 0
199108.2117845495 500 0
205889.2154145321 500 0
212564.8313998628 500 0
219136.6950095589 500 0
225606.4197340732 500 0
231975.5947532298 500 0
238245.779552871 500 0
244418.5148269519 500 0
250495.3148160298 500 0
256477.6718588549 500 0
262367.0494522064 500 0
268164.89687738 500 0
273872.6360112606 500 0
279491.6654531264 500 0
285023.3664999864 500 0
290469.0940383743 500 0
295830.1841600295 500 0
301107.9540574318 500 0
306303.6982192787 500 0
311418.6921851496 500 0
316454.1878565828 500 0
321411.4235886767 500 0
326291.6155446418 500 0
331095.9597588565 500 0
335825.6349135847 500 0
340481.8034605554 500 0
345065.6085607656 500 0
349578.1693964904 500 0
354020.5989221284 500 0
358393.9864328894 500 0
362699.4020136544 500 0
366937.9036542997 500 0
371110.5316270101 500 0
375218.3093852698 500 0
379262.2445448488 500 0
383243.3299301461 500 0
387162.5422221075 500 0
391020.8422515277 500 0
394819.1777109725 500 0
398558.4802087221 500 0
402239.6677574206 500 0
405863.6422241852 500 0
409431.2939777594 500 0
412943.4974308762 500 0
416401.1153712549 500 0
419804.9955837305 500 0
423155.9733833601 500 0
426454.8710462451 500 0
429702.4978704904 500 0
432899.6503176487 500 0
436047.1135735274 500 0
439145.6595672212 500 0
442196.0487311166 500 0
445199.0292319207 500 0
448155.3376366897 500 0
451065.7004449852 500 0
453930.8307396488 500 0
456751.4310225301 500 0
459528.1943928665 500 0
462261.8019791495 500 0
464952.9245372009 500 0
467602.2219185843 500 0
470210.3445572659 500 0
472777.9329072011 500 0
475305.6150799795 500 0
477794.0130884573 500 0
480243.7372497503 500 0
482655.3882281549 500 0
485029.5575993586 500 0
487366.827900574 500 0
489667.7726945659 500 0
491932.9566485863 500 0
494162.9356292153 500 0
496358.2579069287 500 0
498519.4597665611 500 0
500647.0727387072 500 0
502741.6188315561 500 0
504803.6120072231 500 0
506833.5578665064 500 0
508831.9547812979 500 0
510799.292966217 500 0
512736.0552301068 500 0
514642.7167471882 500 0
516519.7453145248 500 0
518367.6015264716 500 0
520186.7384562797 500 0
521977.6031398133 500 0
523740.6343256257 500 0
525476.2644751676 500 0
527184.9201441635 500 0
528867.0202307738 500 0
530522.9773534037 500 0
532153.198287025 500 0
533758.0823422376 500 0
535338.023246816 500 0
536893.4093871416 500 0
538424.6219921524 500 0
539932.0368604917 500 0
541416.0237416324 500 0
542876.946638093 500 0
544315.1645379006 500 0
545731.0298059317 500 0
547124.8897249373 500 0
548497.0864053119 500 0
549847.9572448437 500 0
551177.8327503751 500 0
552487.0396258719 500 0
553775.8992866344 500 0
555044.7271655163 500 0
556293.8355763692 500 0
557523.530544616 500 0
558734.1140740769 500 0
559925.8824190147 500 0
561099.1288236857 500 0
562254.1410170867 500 0
563391.2023279644 500 0
564510.5913933826 500 0
565612.5829470871 500 0
566697.4480676588 500 0
567765.4521752382 500 0
568816.8574962744 500 0
569851.9221505362 500 0
570870.9001071854 500 0
2 12 0 114
810
811
812
813
814
815
816
817
818
819
820
821
822
823
824
825
826
827
828
829
830
831
832
833
834
835
836
837
838
839
840
841
842
843
844
845
846
847
848
849
850
851
852
853
854
855
856
857
858
859
860
861
862
863
864
865
866
867
868
869
870
871
872
873
874
875
876
877
878
879
880
881
882
883
884
885
886
887
888
889
890
891
892
893
894
895
896
897
898
899
900
901
902
903
904
905
906
907
908
909
910
911
912
913
914
915
916
917
918
919
920
921
922
923
572868.6047921067 500 0
573863.1683420925 500 0
574857.7318920707 500 0
575852.2954420417 500 0
576846.8589920276 500 0
577841.4225420135 500 0
578835.9860919993 500 0
579830.5496419852 500 0
580825.1131919707 500 0
581819.6767419343 500 0
582814.2402919203 500 0
583808.8038419061 500 0
584803.367391892 500 0
585797.9309418779 500 0
586792.4944918639 500 0
587787.0580418314 500 0
588781.6215918129 500 0
589776.1851417988 500 0
590770.7486917847 500 0
591765.3122417706 500 0
592759.8757917566 500 0
593754.4393417314 500 0
594749.0028917056 500 0
595743.5664416915 500 0
596738.1299916774 500 0
597732.6935416632 500 0
598727.2570916491 500 0
599721.8206416313 500 0
600716.3841915983 500 0
601710.9477415842 500 0
602705.51129157 500 0
603700.0748415559 500 0
604694.6383915418 500 0
605689.2019415278 500 0
606683.7654914919 500 0
607678.3290414768 500 0
608672.8925914627 500 0
609667.4561414486 500 0
610662.0196914345 500 0
611656.5832414204 500 0
612651.1467914063 500 0
613645.7103414092 500 0
614640.2738914009 500 0
615634.8374413868 500 0
616629.4009913726 500 0
617623.9645413585 500 0
618618.5280913373 500 0
619613.0916412979 500 0
620607.6551912585 500 0
621602.2187412339 500 0
622596.7822912198 500 0
623591.3458412058 500 0
624585.9093911917 500 0
625580.4729411799 500 0
626575.0364911861 500 0
627569.6000411721 500 0
628564.163591158 500 0
629558.7271411439 500 0
630553.2906911297 500 0
631547.8542411157 500 0
632542.417791122 500 0
633536.9813411102 500 0
634531.5448910962 500 0
635526.1084410821 500 0
636520.6719910679 500 0
637515.2355410538 500 0
638509.7990910527 500 0
639504.3626410484 500 0
640498.9261910343 500 0
641493.4897410201 500 0
642488.053291006 500 0
643482.616840992 500 0
644477.1803909779 500 0
645471.7439409638 500 0
646466.3074909606 500 0
647460.8710409583 500 0
648455.4345909442 500 0
649449.9981409301 500 0
650444.5616909161 500 0
651439.1252409247 500 0
652433.6887909105 500 0
653428.2523408965 500 0
654422.8158908824 500 0
655417.3794408683 500 0
656411.9429908541 500 0
657406.50654084 500 0
658401.0700908259 500 0
659395.6336408334 500 0
660390.1971908205 500 0
661384.7607408063 500 0
662379.3242907923 500 0
663373.8878407873 500 0
664368.4513907868 500 0
665363.0149407728 500 0
666357.5784907587 500 0
667352.1420407445 500 0
668346.7055907304 500 0
669341.2691407164 500 0
670335.8326907023 500 0
671330.396240695 500 0
672324.9597906967 500 0
673319.5233406827 500 0
674314.0868906686 500 0
675308.6504406545 500 0
676303.2139906602 500 0
677297.7775406491 500 0
678292.3410906349 500 0
679286.9046406208 500 0
680281.4681906067 500 0
681276.0317405927 500 0
682270.5952905786 500 0
683265.1588405644 500 0
684259.7223905679 500 0
685254.285940559 500 0
2 16 0 42
924
925
926
927
928
929
930
931
932
933
934
935
936
937
938
939
940
941
942
943
944
945
946
947
948
949
950
951
952
953
954
955
956
957
958
959
960
961
962
963
964
965
687246.3042136459 500 0
688243.7589367685 500 0
689241.2136598477 500 0
690238.6683829465 500 0
691236.1231060042 500 0
692233.5778291051 500 0
693231.0325521796 500 0
694228.4872752615 500 0
695225.9419983578 500 0
696223.3967214634 500 0
697220.8514445813 500 0
698218.3061676818 500 0
699215.7608908049 500 0
700213.2156138673 500 0
701210.6703369683 500 0
702208.1250600379 500 0
703205.5797831246 500 0
704203.0345062161 500 0
705200.4892292811 500 0
706197.9439523942 500 0
707195.3986754946 500 0
708192.8533986178 500 0
709190.3081217182 500 0
710187.7628448313 500 0
711185.2175678964 500 0
712182.6722909878 500 0
713180.1270140745 500 0
714177.5817371442 500 0
715175.0364602526 500 0
716172.491183353 500 0
717169.9459064761 500 0
718167.4006295765 500 0
719164.8553526944 500 0
720162.3100758002 500 0
721159.7647989006 500 0
722157.2195220237 500 0
723154.6742451242 500 0
724152.1289682447 500 0
725149.5836913023 500 0
726147.0384144011 500 0
727144.4931374803 500 0
728141.947860603 500 0
2 20 0 22
966
967
968
969
970
971
972
973
974
975
976
977
978
979
980
981
982
983
984
985
986
987
730157.417593113 500 0
731282.6247604174 500 0
732526.3104394305 500 0
733900.95030009 500 0
735420.3329969908 500 0
737099.6992541082 500 0
738955.8948118794 500 0
741007.5386467883 500 0
743275.2108025018 500 0
745781.6575909385 500 0
748552.0211693009 500 0
751614.0901566348 500 0
754998.5807127981 500 0
758739.4413222986 500 0
762874.1962299972 500 0
767444.3215011873 500 0
772495.6579976372 500 0
778078.8762985325 500 0
784249.9797621384 500 0
791070.8707139029 500 0
798609.9680677659 500 0
806942.8962242639 500 0
$EndNodes
$Elements
14 1316 1 1316
1 1 1 147
1 1 11 
2 11 12 
3 12 13 
4 13 14 
5 14 15 
6 15 16 
7 16 17 
8 17 18 
9 18 19 
10 19 20 
11 20 21 
12 21 22 
13 22 23 
14 23 24 
15 24 25 
16 25 26 
17 26 27 
18 27 28 
19 28 29 
20 29 30 
21 30 31 
22 31 32 
23 32 33 
24 33 34 
25 34 35 
26 35 36 
27 36 37 
28 37 38 
29 38 39 
30 39 40 
31 40 41 
32 41 42 
33 42 43 
34 43 44 
35 44 45 
36 45 46 
37 46 47 
38 47 48 
39 48 49 
40 49 50 
41 50 51 
42 51 52 
43 52 53 
44 53 54 
45 54 55 
46 55 56 
47 56 57 
48 57 58 
49 58 59 
50 59 60 
51 60 61 
52 61 62 
53 62 63 
54 63 64 
55 64 65 
56 65 66 
57 66 67 
58 67 68 
59 68 69 
60 69 70 
61 70 71 
62 71 72 
63 72 73 
64 73 74 
65 74 75 
66 75 76 
67 76 77 
68 77 78 
69 78 79 
70 79 80 
71 80 81 
72 81 82 
73 82 83 
74 83 84 
75 84 85 
76 85 86 
77 86 87 
78 87 88 
79 88 89 
80 89 90 
81 90 91 
82 91 92 
83 92 93 
84 93 94 
85 94 95 
86 95 96 
87 96 97 
88 97 98 
89 98 99 
90 99 100 
91 100 101 
92 101 102 
93 102 103 
94 103 104 
95 104 105 
96 105 106 
97 106 107 
98 107 108 
99 108 109 
100 109 110 
101 110 111 
102 111 112 
103 112 113 
104 113 114 
105 114 115 
106 115 116 
107 116 117 
108 117 118 
109 118 119 
110 119 120 
111 120 121 
112 121 122 
113 122 123 
114 123 124 
115 124 125 
116 125 126 
117 126 127 
118 127 128 
119 128 129 
120 129 130 
121 130 131 
122 131 132 
123 132 133 
124 133 134 
125 134 135 
126 135 136 
127 136 137 
128 137 138 
129 138 139 
130 139 140 
131 140 141 
132 141 142 
133 142 143 
134 143 144 
135 144 145 
136 145 146 
137 146 147 
138 147 148 
139 148 149 
140 149 150 
141 150 151 
142 151 152 
143 152 153 
144 153 154 
145 154 155 
146 155 156 
147 156 2 
1 2 1 115
148 2 157 
149 157 158 
150 158 159 
151 159 160 
152 160 161 
153 161 162 
154 162 163 
155 163 164 
156 164 165 
157 165 166 
158 166 167 
159 167 168 
160 168 169 
161 169 170 
162 170 171 
163 171 172 
164 172 173 
165 173 174 
166 174 175 
167 175 176 
168 176 177 
169 177 178 
170 178 179 
171 179 180 
172 180 181 
173 181 182 
174 182 183 
175 183 184 
176 184 185 
177 185 186 
178 186 187 
179 187 188 
180 188 189 
181 189 190 
182 190 191 
183 191 192 
184 192 193 
185 193 194 
186 194 195 
187 195 196 
188 196 197 
189 197 198 
190 198 199 
191 199 200 
192 200 201 
193 201 202 
194 202 203 
195 203 204 
196 204 205 
197 205 206 
198 206 207 
199 207 208 
200 208 209 
201 209 210 
202 210 211 
203 211 212 
204 212 213 
205 213 214 
206 214 215 
207 215 216 
208 216 217 
209 217 218 
210 218 219 
211 219 220 
212 220 221 
213 221 222 
214 222 223 
215 223 224 
216 224 225 
217 225 226 
218 226 227 
219 227 228 
220 228 229 
221 229 230 
222 230 231 
223 231 232 
224 232 233 
225 233 234 
226 234 235 
227 235 236 
228 236 237 
229 237 238 
230 238 239 
231 239 240 
232 240 241 
233 241 242 
234 242 243 
235 243 244 
236 244 245 
237 245 246 
238 246 247 
239 247 248 
240 248 249 
241 249 250 
242 250 251 
243 251 252 
244 252 253 
245 253 254 
246 254 255 
247 255 256 
248 256 257 
249 257 258 
250 258 259 
251 259 260 
252 260 261 
253 261 262 
254 262 263 
255 263 264 
256 264 265 
257 265 266 
258 266 267 
259 267 268 
260 268 269 
261 269 270 
262 270 3 
1 3 1 43
263 3 271 
264 271 272 
265 272 273 
266 273 274 
267 274 275 
268 275 276 
269 276 277 
270 277 278 
271 278 279 
272 279 280 
273 280 281 
274 281 282 
275 282 283 
276 283 284 
277 284 285 
278 285 286 
279 286 287 
280 287 288 
281 288 289 
282 289 290 
283 290 291 
284 291 292 
285 292 293 
286 293 294 
287 294 295 
288 295 296 
289 296 297 
290 297 298 
291 298 299 
292 299 300 
293 300 301 
294 301 302 
295 302 303 
296 303 304 
297 304 305 
298 305 306 
299 306 307 
300 307 308 
301 308 309 
302 309 310 
303 310 311 
304 311 312 
305 312 4 
1 4 1 23
306 4 313 
307 313 314 
308 314 315 
309 315 316 
310 316 317 
311 317 318 
312 318 319 
313 319 320 
314 320 321 
315 321 322 
316 322 323 
317 323 324 
318 324 325 
319 325 326 
320 326 327 
321 327 328 
322 328 329 
323 329 330 
324 330 331 
325 331 332 
326 332 333 
327 333 334 
328 334 5 
1 5 1 147
329 6 335 
330 335 336 
331 336 337 
332 337 338 
333 338 339 
334 339 340 
335 340 341 
336 341 342 
337 342 343 
338 343 344 
339 344 345 
340 345 346 
341 346 347 
342 347 348 
343 348 349 
344 349 350 
345 350 351 
346 351 352 
347 352 353 
348 353 354 
349 354 355 
350 355 356 
351 356 357 
352 357 358 
353 358 359 
354 359 360 
355 360 361 
356 361 362 
357 362 363 
358 363 364 
359 364 365 
360 365 366 
361 366 367 
362 367 368 
363 368 369 
364 369 370 
365 370 371 
366 371 372 
367 372 373 
368 373 374 
369 374 375 
370 375 376 
371 376 377 
372 377 378 
373 378 379 
374 379 380 
375 380 381 
376 381 382 
377 382 383 
378 383 384 
379 384 385 
380 385 386 
381 386 387 
382 387 388 
383 388 389 
384 389 390 
385 390 391 
386 391 392 
387 392 393 
388 393 394 
389 394 395 
390 395 396 
391 396 397 
392 397 398 
393 398 399 
394 399 400 
395 400 401 
396 401 402 
397 402 403 
398 403 404 
399 404 405 
400 405 406 
401 406 407 
402 407 408 
403 408 409 
404 409 410 
405 410 411 
406 411 412 
407 412 413 
408 413 414 
409 414 415 
410 415 416 
411 416 417 
412 417 418 
413 418 419 
414 419 420 
415 420 421 
416 421 422 
417 422 423 
418 423 424 
419 424 425 
420 425 426 
421 426 427 
422 427 428 
423 428 429 
424 429 430 
425 430 431 
426 431 432 
427 432 433 
428 433 434 
429 434 435 
430 435 436 
431 436 437 
432 437 438 
433 438 439 
434 439 440 
435 440 441 
436 441 442 
437 442 443 
438 443 444 
439 444 445 
440 445 446 
441 446 447 
442 447 448 
443 448 449 
444 449 450 
445 450 451 
446 451 452 
447 452 453 
448 453 454 
449 454 455 
450 455 456 
451 456 457 
452 457 458 
453 458 459 
454 459 460 
455 460 461 
456 461 462 
457 462 463 
458 463 464 
459 464 465 
460 465 466 
461 466 467 
462 467 468 
463 468 469 
464 469 470 
465 470 471 
466 471 472 
467 472 473 
468 473 474 
469 474 475 
470 475 476 
471 476 477 
472 477 478 
473 478 479 
474 479 480 
475 480 7 
1 6 1 2
476 1 481 
477 481 6 
1 9 1 115
478 7 483 
479 483 484 
480 484 485 
481 485 486 
482 486 487 
483 487 488 
484 488 489 
485 489 490 
486 490 491 
487 491 492 
488 492 493 
489 493 494 
490 494 495 
491 495 496 
492 496 497 
493 497 498 
494 498 499 
495 499 500 
496 500 501 
497 501 502 
498 502 503 
499 503 504 
500 504 505 
501 505 506 
502 506 507 
503 507 508 
504 508 509 
505 509 510 
506 510 511 
507 511 512 
508 512 513 
509 513 514 
510 514 515 
511 515 516 
512 516 517 
513 517 518 
514 518 519 
515 519 520 
516 520 521 
517 521 522 
518 522 523 
519 523 524 
520 524 525 
521 525 526 
522 526 527 
523 527 528 
524 528 529 
525 529 530 
526 530 531 
527 531 532 
528 532 533 
529 533 534 
530 534 535 
531 535 536 
532 536 537 
533 537 538 
534 538 539 
535 539 540 
536 540 541 
537 541 542 
538 542 543 
539 543 544 
540 544 545 
541 545 546 
542 546 547 
543 547 548 
544 548 549 
545 549 550 
546 550 551 
547 551 552 
548 552 553 
549 553 554 
550 554 555 
551 555 556 
552 556 557 
553 557 558 
554 558 559 
555 559 560 
556 560 561 
557 561 562 
558 562 563 
559 563 564 
560 564 565 
561 565 566 
562 566 567 
563 567 568 
564 568 569 
565 569 570 
566 570 571 
567 571 572 
568 572 573 
569 573 574 
570 574 575 
571 575 576 
572 576 577 
573 577 578 
574 578 579 
575 579 580 
576 580 581 
577 581 582 
578 582 583 
579 583 584 
580 584 585 
581 585 586 
582 586 587 
583 587 588 
584 588 589 
585 589 590 
586 590 591 
587 591 592 
588 592 593 
589 593 594 
590 594 595 
591 595 596 
592 596 8 
1 13 1 43
593 8 598 
594 598 599 
595 599 600 
596 600 601 
597 601 602 
598 602 603 
599 603 604 
600 604 605 
601 605 606 
602 606 607 
603 607 608 
604 608 609 
605 609 610 
606 610 611 
607 611 612 
608 612 613 
609 613 614 
610 614 615 
611 615 616 
612 616 617 
613 617 618 
614 618 619 
615 619 620 
616 620 621 
617 621 622 
618 622 623 
619 623 624 
620 624 625 
621 625 626 
622 626 627 
623 627 628 
624 628 629 
625 629 630 
626 630 631 
627 631 632 
628 632 633 
629 633 634 
630 634 635 
631 635 636 
632 636 637 
633 637 638 
634 638 639 
635 639 9 
1 17 1 23
636 9 641 
637 641 642 
638 642 643 
639 643 644 
640 644 645 
641 645 646 
642 646 647 
643 647 648 
644 648 649 
645 649 650 
646 650 651 
647 651 652 
648 652 653 
649 653 654 
650 654 655 
651 655 656 
652 656 657 
653 657 658 
654 658 659 
655 659 660 
656 660 661 
657 661 662 
658 662 10 
1 19 1 2
659 5 663 
660 663 10 
2 8 3 294
661 1 11 664 481 
662 481 664 335 6 
663 11 12 665 664 
664 664 665 336 335 
665 12 13 666 665 
666 665 666 337 336 
667 13 14 667 666 
668 666 667 338 337 
669 14 15 668 667 
670 667 668 339 338 
671 15 16 669 668 
672 668 669 340 339 
673 16 17 670 669 
674 669 670 341 340 
675 17 18 671 670 
676 670 671 342 341 
677 18 19 672 671 
678 671 672 343 342 
679 19 20 673 672 
680 672 673 344 343 
681 20 21 674 673 
682 673 674 345 344 
683 21 22 675 674 
684 674 675 346 345 
685 22 23 676 675 
686 675 676 347 346 
687 23 24 677 676 
688 676 677 348 347 
689 24 25 678 677 
690 677 678 349 348 
691 25 26 679 678 
692 678 679 350 349 
693 26 27 680 679 
694 679 680 351 350 
695 27 28 681 680 
696 680 681 352 351 
697 28 29 682 681 
698 681 682 353 352 
699 29 30 683 682 
700 682 683 354 353 
701 30 31 684 683 
702 683 684 355 354 
703 31 32 685 684 
704 684 685 356 355 
705 32 33 686 685 
706 685 686 357 356 
707 33 34 687 686 
708 686 687 358 357 
709 34 35 688 687 
710 687 688 359 358 
711 35 36 689 688 
712 688 689 360 359 
713 36 37 690 689 
714 689 690 361 360 
715 37 38 691 690 
716 690 691 362 361 
717 38 39 692 691 
718 691 692 363 362 
719 39 40 693 692 
720 692 693 364 363 
721 40 41 694 693 
722 693 694 365 364 
723 41 42 695 694 
724 694 695 366 365 
725 42 43 696 695 
726 695 696 367 366 
727 43 44 697 696 
728 696 697 368 367 
729 44 45 698 697 
730 697 698 369 368 
731 45 46 699 698 
732 698 699 370 369 
733 46 47 700 699 
734 699 700 371 370 
735 47 48 701 700 
736 700 701 372 371 
737 48 49 702 701 
738 701 702 373 372 
739 49 50 703 702 
740 702 703 374 373 
741 50 51 704 703 
742 703 704 375 374 
743 51 52 705 704 
744 704 705 376 375 
745 52 53 706 705 
746 705 706 377 376 
747 53 54 707 706 
748 706 707 378 377 
749 54 55 708 707 
750 707 708 379 378 
751 55 56 709 708 
752 708 709 380 379 
753 56 57 710 709 
754 709 710 381 380 
755 57 58 711 710 
756 710 711 382 381 
757 58 59 712 711 
758 711 712 383 382 
759 59 60 713 712 
760 712 713 384 383 
761 60 61 714 713 
762 713 714 385 384 
763 61 62 715 714 
764 714 715 386 385 
765 62 63 716 715 
766 715 716 387 386 
767 63 64 717 716 
768 716 717 388 387 
769 64 65 718 717 
770 717 718 389 388 
771 65 66 719 718 
772 718 719 390 389 
773 66 67 720 719 
774 719 720 391 390 
775 67 68 721 720 
776 720 721 392 391 
777 68 69 722 721 
778 721 722 393 392 
779 69 70 723 722 
780 722 723 394 393 
781 70 71 724 723 
782 723 724 395 394 
783 71 72 725 724 
784 724 725 396 395 
785 72 73 726 725 
786 725 726 397 396 
787 73 74 727 726 
788 726 727 398 397 
789 74 75 728 727 
790 727 728 399 398 
791 75 76 729 728 
792 728 729 400 399 
793 76 77 730 729 
794 729 730 401 400 
795 77 78 731 730 
796 730 731 402 401 
797 78 79 732 731 
798 731 732 403 402 
799 79 80 733 732 
800 732 733 404 403 
801 80 81 734 733 
802 733 734 405 404 
803 81 82 735 734 
804 734 735 406 405 
805 82 83 736 735 
806 735 736 407 406 
807 83 84 737 736 
808 736 737 408 407 
809 84 85 738 737 
810 737 738 409 408 
811 85 86 739 738 
812 738 739 410 409 
813 86 87 740 739 
814 739 740 411 410 
815 87 88 741 740 
816 740 741 412 411 
817 88 89 742 741 
818 741 742 413 412 
819 89 90 743 742 
820 742 743 414 413 
821 90 91 744 743 
822 743 744 415 414 
823 91 92 745 744 
824 744 745 416 415 
825 92 93 746 745 
826 745 746 417 416 
827 93 94 747 746 
828 746 747 418 417 
829 94 95 748 747 
830 747 748 419 418 
831 95 96 749 748 
832 748 749 420 419 
833 96 97 750 749 
834 749 750 421 420 
835 97 98 751 750 
836 750 751 422 421 
837 98 99 752 751 
838 751 752 423 422 
839 99 100 753 752 
840 752 753 424 423 
841 100 101 754 753 
842 753 754 425 424 
843 101 102 755 754 
844 754 755 426 425 
845 102 103 756 755 
846 755 756 427 426 
847 103 104 757 756 
848 756 757 428 427 
849 104 105 758 757 
850 757 758 429 428 
851 105 106 759 758 
852 758 759 430 429 
853 106 107 760 759 
854 759 760 431 430 
855 107 108 761 760 
856 760 761 432 431 
857 108 109 762 761 
858 761 762 433 432 
859 109 110 763 762 
860 762 763 434 433 
861 110 111 764 763 
862 763 764 435 434 
863 111 112 765 764 
864 764 765 436 435 
865 112 113 766 765 
866 765 766 437 436 
867 113 114 767 766 
868 766 767 438 437 
869 114 115 768 767 
870 767 768 439 438 
871 115 116 769 768 
872 768 769 440 439 
873 116 117 770 769 
874 769 770 441 440 
875 117 118 771 770 
876 770 771 442 441 
877 118 119 772 771 
878 771 772 443 442 
879 119 120 773 772 
880 772 773 444 443 
881 120 121 774 773 
882 773 774 445 444 
883 121 122 775 774 
884 774 775 446 445 
885 122 123 776 775 
886 775 776 447 446 
887 123 124 777 776 
888 776 777 448 447 
889 124 125 778 777 
890 777 778 449 448 
891 125 126 779 778 
892 778 779 450 449 
893 126 127 780 779 
894 779 780 451 450 
895 127 128 781 780 
896 780 781 452 451 
897 128 129 782 781 
898 781 782 453 452 
899 129 130 783 782 
900 782 783 454 453 
901 130 131 784 783 
902 783 784 455 454 
903 131 132 785 784 
904 784 785 456 455 
905 132 133 786 785 
906 785 786 457 456 
907 133 134 787 786 
908 786 787 458 457 
909 134 135 788 787 
910 787 788 459 458 
911 135 136 789 788 
912 788 789 460 459 
913 136 137 790 789 
914 789 790 461 460 
915 137 138 791 790 
916 790 791 462 461 
917 138 139 792 791 
918 791 792 463 462 
919 139 140 793 792 
920 792 793 464 463 
921 140 141 794 793 
922 793 794 465 464 
923 141 142 795 794 
924 794 795 466 465 
925 142 143 796 795 
926 795 796 467 466 
927 143 144 797 796 
928 796 797 468 467 
929 144 145 798 797 
930 797 798 469 468 
931 145 146 799 798 
932 798 799 470 469 
933 146 147 800 799 
934 799 800 471 470 
935 147 148 801 800 
936 800 801 472 471 
937 148 149 802 801 
938 801 802 473 472 
939 149 150 803 802 
940 802 803 474 473 
941 150 151 804 803 
942 803 804 475 474 
943 151 152 805 804 
944 804 805 476 475 
945 152 153 806 805 
946 805 806 477 476 
947 153 154 807 806 
948 806 807 478 477 
949 154 155 808 807 
950 807 808 479 478 
951 155 156 809 808 
952 808 809 480 479 
953 156 2 482 809 
954 809 482 7 480 
2 12 3 230
955 2 157 810 482 
956 482 810 483 7 
957 157 158 811 810 
958 810 811 484 483 
959 158 159 812 811 
960 811 812 485 484 
961 159 160 813 812 
962 812 813 486 485 
963 160 161 814 813 
964 813 814 487 486 
965 161 162 815 814 
966 814 815 488 487 
967 162 163 816 815 
968 815 816 489 488 
969 163 164 817 816 
970 816 817 490 489 
971 164 165 818 817 
972 817 818 491 490 
973 165 166 819 818 
974 818 819 492 491 
975 166 167 820 819 
976 819 820 493 492 
977 167 168 821 820 
978 820 821 494 493 
979 168 169 822 821 
980 821 822 495 494 
981 169 170 823 822 
982 822 823 496 495 
983 170 171 824 823 
984 823 824 497 496 
985 171 172 825 824 
986 824 825 498 497 
987 172 173 826 825 
988 825 826 499 498 
989 173 174 827 826 
990 826 827 500 499 
991 174 175 828 827 
992 827 828 501 500 
993 175 176 829 828 
994 828 829 502 501 
995 176 177 830 829 
996 829 830 503 502 
997 177 178 831 830 
998 830 831 504 503 
999 178 179 832 831 
1000 831 832 505 504 
1001 179 180 833 832 
1002 832 833 506 505 
1003 180 181 834 833 
1004 833 834 507 506 
1005 181 182 835 834 
1006 834 835 508 507 
1007 182 183 836 835 
1008 835 836 509 508 
1009 183 184 837 836 
1010 836 837 510 509 
1011 184 185 838 837 
1012 837 838 511 510 
1013 185 186 839 838 
1014 838 839 512 511 
1015 186 187 840 839 
1016 839 840 513 512 
1017 187 188 841 840 
1018 840 841 514 513 
1019 188 189 842 841 
1020 841 842 515 514 
1021 189 190 843 842 
1022 842 843 516 515 
1023 190 191 844 843 
1024 843 844 517 516 
1025 191 192 845 844 
1026 844 845 518 517 
1027 192 193 846 845 
1028 845 846 519 518 
1029 193 194 847 846 
1030 846 847 520 519 
1031 194 195 848 847 
1032 847 848 521 520 
1033 195 196 849 848 
1034 848 849 522 521 
1035 196 197 850 849 
1036 849 850 523 522 
1037 197 198 851 850 
1038 850 851 524 523 
1039 198 199 852 851 
1040 851 852 525 524 
1041 199 200 853 852 
1042 852 853 526 525 
1043 200 201 854 853 
1044 853 854 527 526 
1045 201 202 855 854 
1046 854 855 528 527 
1047 202 203 856 855 
1048 855 856 529 528 
1049 203 204 857 856 
1050 856 857 530 529 
1051 204 205 858 857 
1052 857 858 531 530 
1053 205 206 859 858 
1054 858 859 532 531 
1055 206 207 860 859 
1056 859 860 533 532 
1057 207 208 861 860 
1058 860 861 534 533 
1059 208 209 862 861 
1060 861 862 535 534 
1061 209 210 863 862 
1062 862 863 536 535 
1063 210 211 864 863 
1064 863 864 537 536 
1065 211 212 865 864 
1066 864 865 538 537 
1067 212 213 866 865 
1068 865 866 539 538 
1069 213 214 867 866 
1070 866 867 540 539 
1071 214 215 868 867 
1072 867 868 541 540 
1073 215 216 869 868 
1074 868 869 542 541 
1075 216 217 870 869 
1076 869 870 543 542 
1077 217 218 871 870 
1078 870 871 544 543 
1079 218 219 872 871 
1080 871 872 545 544 
1081 219 220 873 872 
1082 872 873 546 545 
1083 220 221 874 873 
1084 873 874 547 546 
1085 221 222 875 874 
1086 874 875 548 547 
1087 222 223 876 875 
1088 875 876 549 548 
1089 223 224 877 876 
1090 876 877 550 549 
1091 224 225 878 877 
1092 877 878 551 550 
1093 225 226 879 878 
1094 878 879 552 551 
1095 226 227 880 879 
1096 879 880 553 552 
1097 227 228 881 880 
1098 880 881 554 553 
1099 228 229 882 881 
1100 881 882 555 554 
1101 229 230 883 882 
1102 882 883 556 555 
1103 230 231 884 883 
1104 883 884 557 556 
1105 231 232 885 884 
1106 884 885 558 557 
1107 232 233 886 885 
1108 885 886 559 558 
1109 233 234 887 886 
1110 886 887 560 559 
1111 234 235 888 887 
1112 887 888 561 560 
1113 235 236 889 888 
1114 888 889 562 561 
1115 236 237 890 889 
1116 889 890 563 562 
1117 237 238 891 890 
1118 890 891 564 563 
1119 238 239 892 891 
1120 891 892 565 564 
1121 239 240 893 892 
1122 892 893 566 565 
1123 240 241 894 893 
1124 893 894 567 566 
1125 241 242 895 894 
1126 894 895 568 567 
1127 242 243 896 895 
1128 895 896 569 568 
1129 243 244 897 896 
1130 896 897 570 569 
1131 244 245 898 897 
1132 897 898 571 570 
1133 245 246 899 898 
1134 898 899 572 571 
1135 246 247 900 899 
1136 899 900 573 572 
1137 247 248 901 900 
1138 900 901 574 573 
1139 248 249 902 901 
1140 901 902 575 574 
1141 249 250 903 902 
1142 902 903 576 575 
1143 250 251 904 903 
1144 903 904 577 576 
1145 251 252 905 904 
1146 904 905 578 577 
1147 252 253 906 905 
1148 905 906 579 578 
1149 253 254 907 906 
1150 906 907 580 579 
1151 254 255 908 907 
1152 907 908 581 580 
1153 255 256 909 908 
1154 908 909 582 581 
1155 256 257 910 909 
1156 909 910 583 582 
1157 257 258 911 910 
1158 910 911 584 583 
1159 258 259 912 911 
1160 911 912 585 584 
1161 259 260 913 912 
1162 912 913 586 585 
1163 260 261 914 913 
1164 913 914 587 586 
1165 261 262 915 914 
1166 914 915 588 587 
1167 262 263 916 915 
1168 915 916 589 588 
1169 263 264 917 916 
1170 916 917 590 589 
1171 264 265 918 917 
1172 917 918 591 590 
1173 265 266 919 918 
1174 918 919 592 591 
1175 266 267 920 919 
1176 919 920 593 592 
1177 267 268 921 920 
1178 920 921 594 593 
1179 268 269 922 921 
1180 921 922 595 594 
1181 269 270 923 922 
1182 922 923 596 595 
1183 270 3 597 923 
1184 923 597 8 596 
2 16 3 86
1185 3 271 924 597 
1186 597 924 598 8 
1187 271 272 925 924 
1188 924 925 599 598 
1189 272 273 926 925 
1190 925 926 600 599 
1191 273 274 927 926 
1192 926 927 601 600 
1193 274 275 928 927 
1194 927 928 602 601 
1195 275 276 929 928 
1196 928 929 603 602 
1197 276 277 930 929 
1198 929 930 604 603 
1199 277 278 931 930 
1200 930 931 605 604 
1201 278 279 932 931 
1202 931 932 606 605 
1203 279 280 933 932 
1204 932 933 607 606 
1205 280 281 934 933 
1206 933 934 608 607 
1207 281 282 935 934 
1208 934 935 609 608 
1209 282 283 936 935 
1210 935 936 610 609 
1211 283 284 937 936 
1212 936 937 611 610 
1213 284 285 938 937 
1214 937 938 612 611 
1215 285 286 939 938 
1216 938 939 613 612 
1217 286 287 940 939 
1218 939 940 614 613 
1219 287 288 941 940 
1220 940 941 615 614 
1221 288 289 942 941 
1222 941 942 616 615 
1223 289 290 943 942 
1224 942 943 617 616 
1225 290 291 944 943 
1226 943 944 618 617 
1227 291 292 945 944 
1228 944 945 619 618 
1229 292 293 946 945 
1230 945 946 620 619 
1231 293 294 947 946 
1232 946 947 621 620 
1233 294 295 948 947 
1234 947 948 622 621 
1235 295 296 949 948 
1236 948 949 623 622 
1237 296 297 950 949 
1238 949 950 624 623 
1239 297 298 951 950 
1240 950 951 625 624 
1241 298 299 952 951 
1242 951 952 626 625 
1243 299 300 953 952 
1244 952 953 627 626 
1245 300 301 954 953 
1246 953 954 628 627 
1247 301 302 955 954 
1248 954 955 629 628 
1249 302 303 956 955 
1250 955 956 630 629 
1251 303 304 957 956 
1252 956 957 631 630 
1253 304 305 958 957 
1254 957 958 632 631 
1255 305 306 959 958 
1256 958 959 633 632 
1257 306 307 960 959 
1258 959 960 634 633 
1259 307 308 961 960 
1260 960 961 635 634 
1261 308 309 962 961 
1262 961 962 636 635 
1263 309 310 963 962 
1264 962 963 637 636 
1265 310 311 964 963 
1266 963 964 638 637 
1267 311 312 965 964 
1268 964 965 639 638 
1269 312 4 640 965 
1270 965 640 9 639 
2 20 3 46
1271 4 313 966 640 
1272 640 966 641 9 
1273 313 314 967 966 
1274 966 967 642 641 
1275 314 315 968 967 
1276 967 968 643 642 
1277 315 316 969 968 
1278 968 969 644 643 
1279 316 317 970 969 
1280 969 970 645 644 
1281 317 318 971 970 
1282 970 971 646 645 
1283 318 319 972 971 
1284 971 972 647 646 
1285 319 320 973 972 
1286 972 973 648 647 
1287 320 321 974 973 
1288 973 974 649 648 
1289 321 322 975 974 
1290 974 975 650 649 
1291 322 323 976 975 
1292 975 976 651 650 
1293 323 324 977 976 
1294 976 977 652 651 
1295 324 325 978 977 
1296 977 978 653 652 
1297 325 326 979 978 
1298 978 979 654 653 
1299 326 327 980 979 
1300 979 980 655 654 
1301 327 328 981 980 
1302 980 981 656 655 
1303 328 329 982 981 
1304 981 982 657 656 
1305 329 330 983 982 
1306 982 983 658 657 
1307 330 331 984 983 
1308 983 984 659 658 
1309 331 332 985 984 
1310 984 985 660 659 
1311 332 333 986 985 
1312 985 986 661 660 
1313 333 334 987 986 
1314 986 987 662 661 
1315 334 5 663 987 
1316 987 663 10 662 
$EndElements
